<svg width="228" height="35" xmlns="http://www.w3.org/2000/svg" xmlns:xlink="http://www.w3.org/1999/xlink"><defs><path id="a" d="M0 0h228v35H0z"/></defs><g fill="none" fill-rule="evenodd"><mask id="b" fill="#fff"><use xlink:href="#a"/></mask><path d="M213.98 9.7h3.259V8.587h-3.258V9.7zm5.44 2.08h1.003v-1.012h-1.004v1.011zm-2.136-3.245h3.142v-.987h-3.142v.987zm-.051 2.197h-1.086v.01h-.006v1.055h1.094c0-.24.003-.455-.002-.664v-.4zm-1.06-4.332h1.075V5.35h-1.074V6.4zm-28.89 28.004h3.478V14.412h-3.477v19.992zm28.857-22.608h-1.086v1.06h-1.073v1.06h.057v.002h1.018v-.001h.01v-1.06h1.074v-1.062zm-28.931-1.07h3.627v-4.02h-3.627v4.02zm-7.612 16.81c-.237.93-.61 1.737-1.121 2.42a5.345 5.345 0 01-1.926 1.6c-.772.385-1.695.577-2.766.577-.923 0-1.733-.192-2.43-.577a4.965 4.965 0 01-1.739-1.6c-.461-.683-.81-1.49-1.046-2.42a12.252 12.252 0 01-.356-3.035c0-1.092.118-2.11.356-3.052.236-.944.585-1.756 1.046-2.44a4.98 4.98 0 011.739-1.6c.697-.385 1.507-.578 2.43-.578.997 0 1.881.187 2.654.56a5.34 5.34 0 011.945 1.581c.523.683.915 1.496 1.177 2.439.262.944.393 1.973.393 3.09 0 1.093-.119 2.104-.356 3.034zm.169-13.757c0 .67.005 1.34.018 2.01.013.67.044 1.23.094 1.676h-.075a7.462 7.462 0 00-2.598-2.569c-1.085-.645-2.337-.968-3.758-.968-1.246 0-2.405.242-3.477.726a8.018 8.018 0 00-2.785 2.085c-.785.906-1.402 2.01-1.85 3.313-.449 1.303-.673 2.774-.673 4.412 0 1.613.205 3.071.617 4.374.41 1.303 1.002 2.408 1.775 3.314a7.93 7.93 0 002.804 2.103c1.097.497 2.319.745 3.664.745 1.42 0 2.648-.304 3.683-.912 1.034-.608 1.875-1.458 2.523-2.55h.075v2.866h3.44V6.705h-3.477v7.074zm31.09 11.996h1.097v-3.187h-1.097v3.187zm-1.16 2.27h1.214v-1.208h-1.213v1.208zm.094-6.565h1.046v-1.054h-1.046v1.054zm-1.08 8.204v.475h-1.212V28.95h1.213v.093h.026c-.023.208-.006.443-.026.64zm5.416-11.452h-1.157v-2.094h-2.146v-1.093h-2.154v-3.233h-3.277v-.515c-.01-.915.04-1.838.03-2.753h-1.042v3.285h-3.252v3.243h-2.145v1.09h-2.185v2.106h-1.055v.04h-.012v2.13h-1.046v7.511h1.046v2.145h1.01v2.226h2.189v.958h.08v.014h2.144v1.112h7.628v-1.126h2.237v-1.021h1.948v-.004h.066V30.26a.396.396 0 01.022-.047h1.041V28h1.032v-.051h.002v-7.532h-1.004v-2.185zm9.7-14.03h1.085v-1.06h-1.086v1.06zM227 7.486h1V6.459h-.999v1.027zm-2.09-4.344h1.086v-1.06h-1.086v1.06zm-2.172 2.12h1.086v-1.06h-1.086v1.06zm0 6.534h1.086v-1.06h-1.086v1.06zm-.069-4.319h1.016V6.46h-1.016v1.017zm2.175.01h.958v-1.03h-.958v1.03zm-5.41 8.6h.993v-1.01h-.993v1.01zm-.008-2.162h.995V12.91h-.995v1.014zm5.484-2.13h-1.086v1.061h1.086v1.06h1.086v-1.06h-1.086v-1.06zm-13.013-4.297h.012V6.374h-5.46v1.111h5.447v.013zm2.035 1.046V7.498h-2.023v1.046h2.023zM9.907 13.928c-1.47 0-2.723.298-3.757.893-1.035.596-1.925 1.428-2.673 2.495h-.112c.024-.497.05-1.055.074-1.676.025-.62.038-1.178.038-1.675v-7.26H0v27.7h3.477V22.23c0-.794.13-1.526.392-2.197a4.91 4.91 0 011.103-1.712 4.956 4.956 0 011.701-1.098 5.795 5.795 0 012.15-.392c1.37 0 2.449.349 3.234 1.043.785.695 1.178 1.688 1.178 2.979v13.551h3.44v-13.96c0-2.11-.6-3.724-1.795-4.84-1.197-1.118-2.855-1.676-4.973-1.676zm201.94-9.674h1.075V3.205h-1.074v1.049zm-6.428 4.29h1.03v-1.06h-1.03v1.058zm12.944-3.233h.995V4.31h-.995v1zM33.248 27.032c0 .572-.119 1.167-.356 1.787a5.035 5.035 0 01-1.084 1.695c-.486.509-1.097.93-1.832 1.266-.735.335-1.601.502-2.598.502a8.37 8.37 0 01-1.477-.13 3.37 3.37 0 01-1.29-.503 2.742 2.742 0 01-.897-.986c-.224-.41-.336-.937-.336-1.583 0-.694.13-1.26.392-1.694a3.17 3.17 0 011.103-1.08c.473-.285 1.047-.508 1.72-.67.673-.16 1.42-.316 2.243-.465.823-.149 1.639-.34 2.449-.577.81-.235 1.464-.515 1.963-.837v3.275zm3.589 4.543c-.275-.397-.412-.993-.412-1.787v-9.345c0-1.34-.237-2.457-.71-3.35a5.172 5.172 0 00-1.981-2.086 7.546 7.546 0 00-2.206-.818 12.884 12.884 0 00-2.655-.261c-1.345 0-2.523.174-3.533.521-1.009.348-1.85.819-2.523 1.415a6.066 6.066 0 00-1.533 2.047 6.238 6.238 0 00-.56 2.42h3.364c.05-1.19.467-2.134 1.252-2.83.785-.694 1.975-1.041 3.57-1.041 1.396 0 2.462.31 3.197.93.735.62 1.103 1.477 1.103 2.569 0 .521-.112.944-.336 1.266-.225.323-.549.59-.972.8-.424.212-.935.38-1.533.503a19.71 19.71 0 01-2.02.298 31.215 31.215 0 00-3.532.595c-1.06.249-1.969.596-2.73 1.043a4.656 4.656 0 00-1.756 1.787c-.411.744-.617 1.7-.617 2.867 0 .968.174 1.805.523 2.513a4.985 4.985 0 001.44 1.768c.61.472 1.333.826 2.168 1.061a9.803 9.803 0 002.673.354c.847 0 1.613-.093 2.3-.28a7.982 7.982 0 001.85-.744 7.568 7.568 0 001.458-1.061 8.844 8.844 0 001.122-1.266h.037c.2 1.068.573 1.856 1.122 2.364.548.51 1.358.763 2.43.763a5.2 5.2 0 001.065-.092c.287-.063.555-.13.804-.206v-2.42h-.15c-.872.2-1.445.1-1.72-.297zm177.192-26.27h1.027v-.996h-1.027v.996zm2.142-4.32h1V0h-1v.985zm1.121 2.17h1V2.17h-1v.985zM51.192 14.15c-1.345 0-2.517.354-3.514 1.062-.997.707-1.807 1.644-2.43 2.81h-.112v-3.611h-3.44v19.992h3.477v-10.87c0-.944.156-1.788.468-2.533a5.8 5.8 0 011.252-1.898 5.549 5.549 0 011.832-1.21 5.781 5.781 0 012.206-.428c.3 0 .548.012.748.037.199.025.423.075.672.149h.113v-3.276a3.81 3.81 0 00-.58-.168 3.631 3.631 0 00-.692-.056zm77.879 10.09c-.686-.447-1.477-.795-2.374-1.043a40.425 40.425 0 00-2.842-.67c-.847-.173-1.601-.335-2.262-.484-.66-.149-1.221-.335-1.682-.558-.461-.224-.81-.503-1.047-.838-.237-.335-.355-.763-.355-1.285 0-.769.305-1.426.916-1.973.61-.545 1.601-.82 2.972-.82 1.445 0 2.536.275 3.272.82.735.547 1.177 1.34 1.327 2.383h3.477c-.225-1.737-.985-3.14-2.28-4.207-1.297-1.067-3.204-1.6-5.72-1.6-2.344 0-4.157.502-5.44 1.507-1.285 1.005-1.926 2.364-1.926 4.076 0 1.093.206 1.987.617 2.681.41.695.959 1.254 1.645 1.675.685.423 1.482.758 2.393 1.005.909.249 1.85.472 2.822.67 1.77.349 3.085.74 3.944 1.174.86.434 1.29 1.197 1.29 2.29 0 .892-.355 1.644-1.065 2.252-.71.608-1.864.911-3.459.911a9.403 9.403 0 01-2.018-.204 5.336 5.336 0 01-1.664-.652 3.818 3.818 0 01-1.215-1.191c-.324-.496-.536-1.104-.636-1.824h-3.514c.15 2.035.984 3.655 2.505 4.858 1.52 1.204 3.676 1.806 6.468 1.806 1.17 0 2.255-.13 3.252-.391.997-.26 1.851-.645 2.561-1.154a5.36 5.36 0 001.664-1.918c.398-.768.598-1.662.598-2.68 0-1.167-.2-2.116-.598-2.848a4.837 4.837 0 00-1.626-1.768zm-21.83 10.163h4.038V30.31h-4.038v4.095zm51.065-7.818c0 .77-.118 1.49-.355 2.16a5.092 5.092 0 01-1.01 1.73 4.593 4.593 0 01-1.588 1.136c-.623.274-1.321.41-2.094.41-1.396 0-2.473-.355-3.234-1.062-.76-.707-1.14-1.693-1.14-2.959V14.412h-3.477v13.775c0 2.11.61 3.748 1.832 4.914 1.221 1.167 2.879 1.75 4.972 1.75 1.446 0 2.636-.292 3.57-.875.935-.583 1.764-1.371 2.487-2.364h.075v2.792h3.44V14.412h-3.478v12.174zm-89.224.875c-.262.93-.654 1.744-1.178 2.438a5.564 5.564 0 01-1.963 1.638c-.785.398-1.688.596-2.71.596-1.023 0-1.925-.198-2.71-.596a5.563 5.563 0 01-1.963-1.638c-.524-.694-.916-1.507-1.178-2.438-.262-.93-.393-1.942-.393-3.034 0-1.067.131-2.072.393-3.016.262-.943.654-1.768 1.178-2.476a5.493 5.493 0 011.962-1.656c.786-.397 1.688-.596 2.71-.596 1.023 0 1.926.199 2.711.596.785.397 1.44.949 1.963 1.656.524.708.916 1.533 1.178 2.476.262.944.392 1.949.392 3.016 0 1.092-.13 2.103-.392 3.034zM70.409 17a9.103 9.103 0 00-3.065-2.252c-1.197-.546-2.556-.819-4.075-.819-1.521 0-2.886.273-4.094.819A9.042 9.042 0 0056.09 17a10.236 10.236 0 00-1.963 3.35 11.919 11.919 0 00-.691 4.078c0 1.464.23 2.836.691 4.114a10.215 10.215 0 001.963 3.35 9.03 9.03 0 003.085 2.253c1.208.545 2.573.819 4.094.819 1.52 0 2.878-.274 4.075-.82a9.09 9.09 0 003.065-2.252 9.957 9.957 0 001.944-3.35c.449-1.278.673-2.65.673-4.114 0-1.44-.224-2.798-.673-4.077A9.963 9.963 0 0070.41 17zm68.606-8.879h-3.44v6.292h-3.14v2.68h3.14v13.403c0 1.465.424 2.5 1.272 3.109.847.608 1.944.924 3.29.95.921 0 1.856-.113 2.804-.336v-2.904h-.113c-.2.05-.467.106-.803.168a5.227 5.227 0 01-.954.093c-.648 0-1.153-.13-1.514-.391-.361-.26-.542-.75-.542-1.47V17.091h4.15v-2.68h-4.15V8.12zM97.02 13.928c-1.221 0-2.38.304-3.476.912-1.098.608-2.007 1.545-2.73 2.81h-.074c-.425-1.24-1.091-2.17-2-2.791-.911-.62-1.977-.931-3.198-.931-1.295 0-2.454.304-3.476.912-1.023.608-1.845 1.458-2.468 2.55h-.112v-2.978h-3.44v19.992h3.478V22.081c0-.769.149-1.47.448-2.103a6.03 6.03 0 011.14-1.657 5 5 0 011.59-1.098 4.457 4.457 0 011.794-.392c1.046 0 1.882.342 2.505 1.024.622.683.934 1.645.934 2.886v13.663h3.44V22.081c0-.769.13-1.47.392-2.103a5.724 5.724 0 011.029-1.657 4.483 4.483 0 011.495-1.098 4.368 4.368 0 011.832-.392c1.022 0 1.882.342 2.58 1.024.697.683 1.047 1.645 1.047 2.886v13.663h3.476v-13.96c0-2.11-.573-3.724-1.72-4.84-1.146-1.118-2.641-1.676-4.486-1.676z" fill="#322F31" mask="url(#b)"/></g></svg>