<svg data-name="Layer 1" xmlns="http://www.w3.org/2000/svg" viewBox="0 0 158 158"><path fill="#322f31" d="M0 0h158v158H0z"/><path d="M109.79 81.69v-3a1.4 1.4 0 00-.36-1 1.33 1.33 0 00-.9-.29 1.21 1.21 0 00-1.13.54 4.12 4.12 0 00-.05-.48h-.76v4.24h.77v-2.85a.82.82 0 01.85-.94.71.71 0 01.78.79v3zm-4.92 9.13h.77v-6.13h-.77zm.75-11.25c0-1.63-.61-2.18-1.71-2.18s-1.7.55-1.7 2.18.61 2.18 1.7 2.18 1.71-.55 1.71-2.18m-.79 0c0 1.17-.23 1.63-.92 1.63s-.91-.46-.91-1.63.23-1.63.91-1.63.92.46.92 1.63m-4.35 2.12h.73v-6.13h-.78V78a1.06 1.06 0 00-.94-.58c-.94 0-1.42.6-1.42 2.22 0 1.4.39 2.12 1.36 2.12a1 1 0 001-.56 4.42 4.42 0 00.06.52m-.06-2.14c0 1.32-.29 1.63-.79 1.63s-.8-.37-.8-1.6.31-1.67.75-1.67.84.19.84 1.64m-2.18 7h-.67v.55h.67v2.67c0 .74.24 1.06.92 1.06a5.88 5.88 0 00.82-.06v-.53a4.81 4.81 0 01-.5 0c-.34 0-.47-.16-.47-.44v-2.69h.91v-.55H99v-1.13l-.77.33zM96.8 83c.23-.21.23-.71.23-1.27v-4.28h-.76v4.85c0 .37 0 .48-.47.48v.54a1.26 1.26 0 001-.28m-.53-6.71H97v-.77h-.76zm-.91 10.2a1.74 1.74 0 00-1.23.36 1 1 0 00-.27.85h.76v-.09c0-.47.3-.64.74-.64s.71.17.71.59v.62a3 3 0 00-1.94.45 1.28 1.28 0 00-.35 1c0 .8.4 1.23 1.07 1.23a1.36 1.36 0 001.15-.71 5.76 5.76 0 000 .63h.8a3.09 3.09 0 01-.07-.65v-2.3c0-.86-.46-1.34-1.47-1.34m.71 2.74a1.09 1.09 0 01-.35.75.92.92 0 01-.64.29c-.34 0-.56-.24-.56-.72a.73.73 0 01.38-.59c.26-.26 1-.26 1.27-.26zm-1.69-7.58h.81a2.58 2.58 0 01-.07-.65v-2.3c0-.87-.47-1.35-1.48-1.35a1.75 1.75 0 00-1.22.36 1.06 1.06 0 00-.28.85h.76v-.09c0-.46.3-.64.74-.64s.71.18.71.6v.62a2.89 2.89 0 00-1.93.45 1.24 1.24 0 00-.36 1c0 .8.4 1.24 1.07 1.24a1.37 1.37 0 001.18-.69v.63m0-1.56a1.09 1.09 0 01-.35.75.92.92 0 01-.64.29c-.33 0-.55-.24-.55-.72a.76.76 0 01.27-.62c.26-.26 1-.26 1.27-.26zm-1.83 6.46l-1.06 3.65-1-3.65h-.8l1.48 4.2h.92l1.34-4.23zm-2.23-4.9h.77v-6.16h-.77zm-1.89 0h.75v-4.27h-.77v2.84a.82.82 0 01-.85.93.69.69 0 01-.77-.77v-3H86v3a1.39 1.39 0 00.35 1 1.33 1.33 0 00.9.28 1.21 1.21 0 001.13-.53 3.91 3.91 0 00.05.48m-4.25-5.47h1.62v-.66h-4.11v.66h1.64v5.47h.82zm-5.73 14.6h.76v-4.22h-.76zm0-5.36h.76v-.77h-.76zm-.23-3.77H79v-4.23h-.77zm0-5.36H79v-.77h-.77zm-1.4 14.55a6 6 0 00.82-.06v-.53h-.51c-.33 0-.46-.16-.46-.44v-2.7h.9v-.55h-.9v-1.13l-.77.33v.8h-.67v.55h.67v2.67c0 .74.24 1.06.92 1.06m-.55-9.18H77v-3.13a1 1 0 00-1.11-1.17 1.27 1.27 0 00-1.2.62 1 1 0 00-1-.62 1.22 1.22 0 00-1.14.58 3.56 3.56 0 000-.52h-.74a5.73 5.73 0 010 .59v3.65h.76v-3a.76.76 0 01.28-.61.87.87 0 01.55-.2.63.63 0 01.65.71v3.07h.76v-3.04a.83.83 0 01.83-.71.61.61 0 01.65.6zm-4.92 7c0 1.41.44 2.17 1.72 2.17a1.36 1.36 0 001.56-1.31h-.78a.75.75 0 01-.82.76c-.79 0-.89-.8-.89-1.47h2.49a3.08 3.08 0 00-.38-1.84 1.47 1.47 0 00-1.19-.47c-.83 0-1.71.27-1.71 2.19m.79-.35c0-.74.22-1.29.9-1.29a.72.72 0 01.69.43 2.86 2.86 0 01.1.86zm-3.86-8.63h2.5a3.05 3.05 0 00-.39-1.87 1.44 1.44 0 00-1.19-.48c-.82 0-1.7.28-1.7 2.19 0 1.42.44 2.18 1.71 2.18a1.38 1.38 0 001.57-1.31H70a.74.74 0 01-.82.76c-.78 0-.89-.81-.89-1.47m0-.5c0-.74.22-1.3.9-1.3a.71.71 0 01.69.43 2.6 2.6 0 01.1.87zm-2.08 11.58H67v-3.13a1 1 0 00-1.11-1.16 1.26 1.26 0 00-1.2.62 1 1 0 00-1-.62 1.23 1.23 0 00-1.14.57v-.51h-.74v4.23h.77v-3a.77.77 0 01.27-.62.87.87 0 01.56-.2.62.62 0 01.64.71v3.07h.77v-3.03a.83.83 0 01.83-.71.62.62 0 01.64.61zm-.49-9.13h.76v-6.13h-.76zm-1.92 0h.77v-6.13h-.77zm-3.52-2h2.5a3.05 3.05 0 00-.39-1.87 1.44 1.44 0 00-1.19-.48c-.82 0-1.71.28-1.71 2.19 0 1.42.44 2.18 1.72 2.18a1.38 1.38 0 001.57-1.31H62a.74.74 0 01-.82.76c-.78 0-.89-.81-.89-1.47m0-.5c0-.74.22-1.3.9-1.3a.71.71 0 01.69.43 2.6 2.6 0 01.1.87zm0 7.76a1.45 1.45 0 00-1.19-.47c-.82 0-1.7.27-1.7 2.19 0 1.41.44 2.17 1.72 2.17a1.36 1.36 0 001.56-1.31h-.78a.75.75 0 01-.82.76c-.79 0-.89-.8-.89-1.47h2.49a3 3 0 00-.36-1.82m-.41 1.37h-1.69c0-.74.22-1.29.89-1.29a.7.7 0 01.69.43 2.56 2.56 0 01.11.86M56 81.69h2.84v-.55h-2.06L58.85 78v-.54h-2.72V78H58l-2 3.1zm-.49 3V90l-2.46-5.35h-1.23v6.13h.77v-5.47l2.53 5.51h1.14v-6.13zM52.41 77a.84.84 0 01.92-.88c.65 0 1 .46 1 1.07v.11h.82v-.12a1.62 1.62 0 00-.44-1.27 1.8 1.8 0 00-1.29-.4 1.57 1.57 0 00-1.8 1.49 1.81 1.81 0 001.21 1.72c.86.45 1.59.8 1.59 1.48s-.45.92-1.06.92a1 1 0 01-.78-.28 1.6 1.6 0 01-.3-1.1h-.8V80a1.69 1.69 0 001.88 1.79c1.18 0 1.84-.59 1.84-1.66 0-.89-.6-1.38-1.48-1.84s-1.31-.67-1.31-1.34M45 75.36l9.71-7-1.02-1.46L45 73.15l-8.1-5.85 3.29-10.1-1.71-.54L34.79 68zm0-3.66l6.9-5-2.45-7.44-1.71.56 2 6.2L45 69.49l-5.3-3.83-1.06 1.45zm3.4-6.12l-1.38-4.19h-3.74v1.78h2.48l.56 1.72-2 1.44 1.06 1.45zm21.47 21.56l-2 3.1v.58h2.83v-.55h-2.07l2.06-3.15v-.53H68v.55zm13.8-2.45h-.82v6.13h.82V88H86v2.87h.82v-6.18H86v2.59h-2.33zm5.21 0h-.77v.77h.77zm0 1.9h-.77v4.23h.77zM101 88.67a1.28 1.28 0 00-.35 1c0 .8.4 1.23 1.07 1.23a1.38 1.38 0 001.18-.69 5.76 5.76 0 000 .63h.8a2.52 2.52 0 01-.07-.65v-2.3c0-.86-.47-1.34-1.47-1.34a1.73 1.73 0 00-1.23.36 1 1 0 00-.27.85h.76v-.09c0-.47.3-.64.74-.64s.7.17.7.59v.62a3 3 0 00-1.93.45m.39.92a.76.76 0 01.27-.62 2.23 2.23 0 011.27-.26v.56a1.08 1.08 0 01-.34.75.92.92 0 01-.64.29c-.34 0-.56-.24-.56-.72m5.6-.92a1.28 1.28 0 00-.35 1c0 .8.4 1.23 1.07 1.23a1.38 1.38 0 001.18-.69 5.76 5.76 0 000 .63h.8a2.52 2.52 0 01-.07-.65v-2.3c0-.86-.47-1.34-1.47-1.34a1.74 1.74 0 00-1.23.36 1 1 0 00-.27.85h.76v-.09c0-.47.3-.64.74-.64s.7.17.7.59v.62a3 3 0 00-1.93.45m.39.92a.76.76 0 01.27-.62 2.23 2.23 0 011.27-.26v.56a1.08 1.08 0 01-.34.75.92.92 0 01-.64.29c-.34 0-.56-.24-.56-.72" fill="#fff"/></svg>