<svg data-name="Layer 1" xmlns="http://www.w3.org/2000/svg" viewBox="0 0 158 158"><path fill="#322f31" d="M0 0h158v158H0z"/><path d="M101.5 83.33V72.67a1.49 1.49 0 00-1.5-1.49h-7.49v4.14h3.88a1.16 1.16 0 010 2.31h-3.88S92.25 80 95.35 80H98a1.16 1.16 0 010 2.32h-3c-4.78 0-4.73-4.7-4.73-4.7v-6.44h-.77a1.48 1.48 0 00-1.5 1.49v10.66a1.48 1.48 0 001.47 1.49H100a1.49 1.49 0 001.48-1.49m-15.75 0V72.67a1.48 1.48 0 00-1.47-1.49H73.73a1.49 1.49 0 00-1.48 1.49v10.62a1.49 1.49 0 001.48 1.49h.76V78.2s0-4.69 4.73-4.69h3a1.16 1.16 0 010 2.31H79.6c-3.1 0-2.84 2.4-2.84 2.4h3.87a1.16 1.16 0 010 2.32h-3.87v4.26h7.52a1.48 1.48 0 001.47-1.49M70 83.33V72.67a1.49 1.49 0 00-1.48-1.49H58a1.49 1.49 0 00-1.48 1.49v.78h4.59a4.55 4.55 0 014.64 4.78v3.09a1.15 1.15 0 11-2.29 0v-2.7c0-3.13-2.37-2.88-2.37-2.88v3.93a1.15 1.15 0 11-2.29 0v-3.93h-2.3v7.59a1.49 1.49 0 001.5 1.49h10.52A1.49 1.49 0 0070 83.33" fill="#fff"/></svg>