<svg data-name="Layer 1" xmlns="http://www.w3.org/2000/svg" viewBox="0 0 158 158"><path fill="#322f31" d="M0 0h158v158H0z"/><path d="M62.92 65.8V72h-1.37v-.78a2.35 2.35 0 01-.87.64 2.76 2.76 0 01-1.12.22 2.7 2.7 0 01-1.94-.68 2.73 2.73 0 01-.71-2v-3.6h1.44v3.32a1.77 1.77 0 00.38 1.24 1.34 1.34 0 001.06.41 1.6 1.6 0 001.21-.48 1.9 1.9 0 00.46-1.38V65.8zm7.26.61a2.68 2.68 0 01.71 2V72h-1.45v-3.39a1.69 1.69 0 00-.38-1.21A1.37 1.37 0 0068 67a1.67 1.67 0 00-1.26.48 1.88 1.88 0 00-.46 1.37V72h-1.46v-6.2h1.37v.79a2.25 2.25 0 01.9-.64 3.16 3.16 0 011.22-.22 2.59 2.59 0 011.87.68zm8.72-.61V71q0 3.25-3.33 3.25a6.14 6.14 0 01-1.68-.22 3.56 3.56 0 01-1.32-.66l.65-1.08a3.28 3.28 0 001 .54 4.13 4.13 0 001.25.2A2.09 2.09 0 0077 72.6a1.88 1.88 0 00.47-1.41v-.33a2.31 2.31 0 01-.9.62 3.11 3.11 0 01-1.16.2 3.33 3.33 0 01-1.59-.37 2.79 2.79 0 01-1.12-1.06 3.15 3.15 0 010-3.11 2.74 2.74 0 011.12-1 3.33 3.33 0 011.59-.37 3.23 3.23 0 011.22.22 2.17 2.17 0 01.91.67v-.86zM77 70a1.67 1.67 0 00.53-1.28 1.62 1.62 0 00-.53-1.28 2.1 2.1 0 00-2.7 0 1.62 1.62 0 00-.52 1.25 1.67 1.67 0 00.47 1.31A2.1 2.1 0 0077 70zm8.23-3.62a2.53 2.53 0 01.72 2V72h-1.36v-.75a1.68 1.68 0 01-.76.62 3.36 3.36 0 01-2.39 0 1.91 1.91 0 01-.81-.66 1.73 1.73 0 01-.28-1 1.65 1.65 0 01.65-1.35 3.09 3.09 0 011.94-.5h1.6v-.09a1.25 1.25 0 00-.39-1 1.63 1.63 0 00-1.15-.34 3.24 3.24 0 00-1 .16 2.64 2.64 0 00-.85.45l-.56-1.05a3.59 3.59 0 011.16-.57 5.27 5.27 0 011.44-.19 3 3 0 012.04.65zm-1.32 4.36a1.36 1.36 0 00.6-.71v-.71H83c-.83 0-1.25.27-1.25.82a.74.74 0 00.31.62A1.47 1.47 0 0083 71a1.81 1.81 0 00.91-.26zm7.45-5.01v1.37h-.33a1.75 1.75 0 00-1.32.49 2 2 0 00-.47 1.41v3H87.8v-6.2h1.37v.9a2.4 2.4 0 012.19-.97zm1.3-1.2a.84.84 0 010-1.23.88.88 0 01.65-.25.94.94 0 01.66.24.74.74 0 01.27.59.87.87 0 01-.26.64.9.9 0 01-.67.26.88.88 0 01-.65-.25zm-.07 1.27H94V72h-1.41zm7.77.58a2.53 2.53 0 01.72 2V72h-1.36v-.75a1.68 1.68 0 01-.76.62 3 3 0 01-1.18.21 3 3 0 01-1.21-.23 1.82 1.82 0 01-.8-.66 1.74 1.74 0 01.33-2.29 3.1 3.1 0 012-.5h1.59v-.09a1.25 1.25 0 00-.39-1 1.63 1.63 0 00-1.15-.35 3.29 3.29 0 00-1 .16 2.64 2.64 0 00-.85.45l-.56-1.05a3.59 3.59 0 011.16-.57 5.29 5.29 0 011.45-.19 3 3 0 012.01.62zM99 70.74a1.31 1.31 0 00.6-.71v-.71h-1.45c-.83 0-1.25.27-1.25.82a.73.73 0 00.32.62 1.42 1.42 0 00.86.23 1.81 1.81 0 00.92-.25zm9.3-4.33a2.68 2.68 0 01.7 2V72h-1.44v-3.39a1.74 1.74 0 00-.38-1.21 1.4 1.4 0 00-1.09-.41 1.67 1.67 0 00-1.26.48 1.92 1.92 0 00-.46 1.37V72h-1.44v-6.2h1.37v.79a2.25 2.25 0 01.9-.64 3.17 3.17 0 011.23-.22 2.6 2.6 0 011.87.68zM56.94 76a.8.8 0 01-.26-.62.78.78 0 01.26-.61.92.92 0 01.66-.25 1 1 0 01.66.23.79.79 0 01.26.6.84.84 0 01-.26.64.9.9 0 01-.66.26.92.92 0 01-.66-.25zm-.07 1.26h1.45v6.14h-1.45zm3.34-2.43h1.44v8.57h-1.44zm12.96 3.01a2.76 2.76 0 01.68 2v3.56h-1.44v-3.35a1.81 1.81 0 00-.36-1.22 1.3 1.3 0 00-1-.41 1.49 1.49 0 00-1.16.48 1.93 1.93 0 00-.44 1.37v3.13H68v-3.35a1.81 1.81 0 00-.36-1.22 1.3 1.3 0 00-1-.41 1.5 1.5 0 00-1.17.48 1.94 1.94 0 00-.47 1.37v3.13h-1.46v-6.17h1.38V78a2.29 2.29 0 01.86-.64 3.07 3.07 0 011.16-.22 2.85 2.85 0 011.23.26 2 2 0 01.84.77 2.66 2.66 0 011-.75 3.18 3.18 0 011.32-.28 2.51 2.51 0 011.84.7zM60.24 88.6V90h-.33a1.75 1.75 0 00-1.32.49 2 2 0 00-.47 1.41v3h-1.44v-6.23h1.37v.9a2.4 2.4 0 012.19-.97zm2.28 5.91a2.92 2.92 0 01-1.19-1.12 3.14 3.14 0 01-.43-1.64 3.08 3.08 0 01.43-1.63A2.94 2.94 0 0162.51 89a3.6 3.6 0 011.73-.41 3.31 3.31 0 011.6.37 2.45 2.45 0 011 1.06l-1.11.65a1.75 1.75 0 00-.63-.67 1.87 1.87 0 00-.87-.22 1.82 1.82 0 00-1.34.53 2.13 2.13 0 000 2.8 1.83 1.83 0 001.35.53 1.86 1.86 0 00.87-.21 1.92 1.92 0 00.66-.64l1.11.64a2.52 2.52 0 01-1.05 1.07 3.21 3.21 0 01-1.58.37 3.58 3.58 0 01-1.73-.36zm10.9-5.23a2.7 2.7 0 01.71 2v3.53h-1.44v-3.32a1.7 1.7 0 00-.39-1.22 1.4 1.4 0 00-1.08-.41 1.67 1.67 0 00-1.26.48 1.9 1.9 0 00-.46 1.38v3.11h-1.44v-8.56h1.44v3.12a2.35 2.35 0 01.88-.59 3.34 3.34 0 011.17-.2 2.59 2.59 0 011.87.68zm8.37 2.93H77a1.62 1.62 0 00.66 1.08 2.14 2.14 0 001.33.4 2.25 2.25 0 001.64-.69l.77.89a2.66 2.66 0 01-1.05.75 4.21 4.21 0 01-3.22-.15 3 3 0 01-1.2-1.12 3.41 3.41 0 010-3.26A2.92 2.92 0 0177.06 89a3.3 3.3 0 011.64-.41 3.18 3.18 0 011.61.4 2.85 2.85 0 011.11 1.12 3.46 3.46 0 01.4 1.67 4.06 4.06 0 01-.03.43zm-4.26-2a1.71 1.71 0 00-.59 1.09h3.5a1.79 1.79 0 00-2.91-1.09zm6.11 4.51a3.57 3.57 0 01-1.14-.5l.55-1.09a3.68 3.68 0 001 .44 4.22 4.22 0 001.15.17c.86 0 1.29-.23 1.29-.68a.45.45 0 00-.33-.45 5.4 5.4 0 00-1-.25 7.91 7.91 0 01-1.25-.26 1.94 1.94 0 01-.83-.53 1.49 1.49 0 01-.35-1 1.65 1.65 0 01.73-1.4 3.34 3.34 0 012-.53 5.44 5.44 0 011.27.15 3.39 3.39 0 011 .38l-.55 1.1a3.41 3.41 0 00-1.77-.46 1.92 1.92 0 00-1 .19.56.56 0 00-.33.5.51.51 0 00.35.49 5.17 5.17 0 001.09.27 8.64 8.64 0 011.21.27 2 2 0 01.82.5 1.46 1.46 0 01.34 1 1.62 1.62 0 01-.75 1.39 3.58 3.58 0 01-2 .51 5.54 5.54 0 01-1.5-.21zm9.21-.22a1.64 1.64 0 01-.62.31 2.76 2.76 0 01-.77.1 2.12 2.12 0 01-1.56-.53 2 2 0 01-.56-1.54v-3h-1v-1.12h1v-1.41h1.44v1.41h1.65v1.15h-1.65v2.93a1 1 0 00.22.69.83.83 0 00.64.24 1.29 1.29 0 00.81-.26zm4.76-5.9V90h-.34a1.71 1.71 0 00-1.31.49 1.94 1.94 0 00-.48 1.41v3H94v-6.23h1.37v.9a2.41 2.41 0 012.24-.97zm5.62.65a2.53 2.53 0 01.72 2v3.61h-1.36v-.75a1.7 1.7 0 01-.75.62 3.05 3.05 0 01-1.19.21 2.87 2.87 0 01-1.21-.23 1.88 1.88 0 01-.8-.66 1.77 1.77 0 01.36-2.32 3.12 3.12 0 012-.5h1.59v-.09a1.25 1.25 0 00-.39-1 1.65 1.65 0 00-1.2-.34 3.63 3.63 0 00-1 .16 2.59 2.59 0 00-.84.45l-.57-1a3.54 3.54 0 011.17-.56 5.17 5.17 0 011.44-.2 3 3 0 012.03.6zm-1.31 4.37a1.37 1.37 0 00.59-.71v-.72H101c-.83 0-1.24.27-1.24.82a.72.72 0 00.31.62 1.35 1.35 0 00.86.23 1.94 1.94 0 00.99-.24zm-46.81-26.4h-4.03v-3.7h-1.49v8.44h1.49V68.5h4.03v-1.28zM49.58 83.4h1.5v-6.82h4.03v-1.26h-5.53v8.08zm3.77 10.23a2.91 2.91 0 01-1.45-.36 2.63 2.63 0 01-1-1 2.86 2.86 0 01-.37-1.46 2.91 2.91 0 01.37-1.46 2.67 2.67 0 011-1 2.92 2.92 0 011.45-.35v-1.36a4.63 4.63 0 00-2.23.54 3.88 3.88 0 00-1.55 1.48 4.09 4.09 0 00-.57 2.13 4 4 0 00.57 2.13 3.9 3.9 0 001.55 1.49 4.63 4.63 0 002.23.54z" fill="#fff"/></svg>