<svg id="Layer_1" data-name="Layer 1" xmlns="http://www.w3.org/2000/svg" viewBox="0 0 158 158"><defs><style>.cls-2{fill:#fff}</style></defs><path fill="#322f31" d="M0 0h158v158H0z"/><path class="cls-2" d="M76.51 74.66s0 .12.11.07a1.19 1.19 0 00.16-.16v-.09a.12.12 0 00-.09-.08h-.13c-.01 0 0-.06-.06-.07s-.08 0-.12 0-.09 0-.09.09v.15c0 .01.07.06.12.07s.07 0 .11 0m-3.42-.57a.81.81 0 00.36.22h.43c.06 0 .08.13.17.11s.18-.15.18-.15a.55.55 0 00-.25-.1.7.7 0 01-.37-.1 5.43 5.43 0 01-.63-.54 2.32 2.32 0 00-.23-.3s-.1-.14-.2-.15-.26 0-.21.12.2.28.2.28l.29.4.26.23zm5.78 7a5.46 5.46 0 001.13 0 4.54 4.54 0 00.49-.14c.1 0 .17 0 .15-.15s-.21-.24-.33-.29a3.92 3.92 0 00-.52-.1h-1.2l-.4.17c-.1 0-.25.07-.26.15s0 .27.13.31a4.33 4.33 0 00.5 0h.31M76 81s.15.13.13.59-.11.63-.11.81v.74s0 .51-.12.31a2 2 0 01-.09-.63 11.69 11.69 0 010-1.41 3.71 3.71 0 01.15-.4zm.7 5.95v-1.73s-.09-.13-.15-.13 0 0 0 .05-.1.69-.1.7 0 .84-.14.87h-.13a.18.18 0 01-.21-.2v-1c0-.09.08-.55.15-1s.12-.72.14-.88 0-.33 0-.55c0-.39.06-.79.08-.87s.1-.48.15-.74 0-.25 0-.26v-.07a.24.24 0 010-.15.06.06 0 01.08 0c.15.07.2.21.24.48a2.08 2.08 0 010 .61V84c0 .39 0 .59.07.61s0 0 .08 0 .08-.07.12-.23a8.19 8.19 0 00.11-.93v-.44a8.45 8.45 0 01.21-1.2c.08-.17.2-.38.28-.38a2.77 2.77 0 01.09.85 3.26 3.26 0 000 .33 6 6 0 010 .94c0 .17-.08.47-.08.47l-.09-.05h-.11q-.09 0-.09.12c0 .2-.16.87-.16.9s-.06.83-.09 1S77 87 77 87h-.37zm.78-.29s0 .38.12.46.2.23.26.12a6.3 6.3 0 00.08-1s.08-.86.07-.93 0-.25-.11-.19a.82.82 0 00-.28.36c0 .15 0 .24-.08.38a4.59 4.59 0 000 .52v.26m1.19-1.89s-.06.88-.08 1a4.74 4.74 0 00-.08.6c0 .15.07.43 0 .51s-.2.19-.25.12a2.81 2.81 0 01-.11-.4s0-1 .07-1.27 0-1.38 0-1.46-.08-.68-.08-.73.07-.38.07-.38.1-.32.15-.14.15.45.15.45a3.58 3.58 0 01.13.6v1.06m.56-2.39s.11.53.14.88 0 1 0 1.07V85s-.07.34-.08.44a5.34 5.34 0 00-.05.69 2 2 0 01.09.44c0 .07 0 .21-.2.15s-.28-.13-.29-.27a2.69 2.69 0 010-.57c0-.11.08-1 .1-1s0-.35 0-.62a6.66 6.66 0 000-1 2.72 2.72 0 01-.1-.58c0-.09-.06-.44 0-.54s.13-.25.13-.14.15.4.15.4m.72-.36a1 1 0 01.09.29c0 .07.06.14.13 0a.54.54 0 00.1-.25c0-.07 0-.35.07-.23a1 1 0 01.07.32l.06.9s0 .29.06.51.1.68.1.68.07 1 .08 1.09.06.61.06.61a3.26 3.26 0 010 .67s-.08.07-.16 0-.13-.4-.13-.58v-.63s-.1-.06-.09-.42a2.52 2.52 0 000-.57l-.06-.11a4.14 4.14 0 000-.45.59.59 0 01-.05-.12v-.31s-.12-.13-.1 0 0 .79 0 .79a.69.69 0 01.06.28A2.47 2.47 0 0180 85a4.38 4.38 0 000 .69v.84s-.07.27-.13.29-.14.12-.21 0a.42.42 0 01-.09-.37c0-.17.09-1.52.09-1.52v-1.37c0-.04-.06-1.08-.06-1.08a1.69 1.69 0 01-.08-.5.32.32 0 01.27-.13c.07 0 .07.07.1.16m1.18-.62a1.27 1.27 0 01.24.69 5.62 5.62 0 00.21 1c0 .15.14.67.13.76s.11.85.11.85l.14.28.06 1s-.06.29-.15.31-.23 0-.25 0a4.53 4.53 0 010-.75 1 1 0 00-.06-.4 6.31 6.31 0 01-.13-.62c0-.06 0-.71-.06-.78s-.39-1.48-.39-1.48 0-.68.07-.75 0-.16.12 0m.92.89a.16.16 0 01.09 0 .51.51 0 01.28.35v.87a5.19 5.19 0 01.16 1v.48s-.11 0-.14-.24-.15-.87-.15-.87a7.16 7.16 0 00-.24-.83c-.09-.19-.18-.19-.15-.37a1.08 1.08 0 010-.35h.11m.11-.94s-.06.24.13.17.18-.2.23-.44 0-.47-.07-.48-.16 0-.18.09a1.79 1.79 0 010 .34 1.46 1.46 0 00-.08.32m.48-2s.39 0 .39.54a4 4 0 00.06.79l-.17.41a1.45 1.45 0 01-.16-.39 5.64 5.64 0 01-.09-.61v-.74m.66-2.81v-.12c0-.03.14.13.14.21a3.12 3.12 0 010 .68 3 3 0 00-.06.34.87.87 0 000 .36 2.11 2.11 0 00.15.41c.06.15.12.28.14.34a2.69 2.69 0 01.2.75c0 .18 0 .36.06.5a1.81 1.81 0 010 .37.65.65 0 010 .13.88.88 0 010 .15.49.49 0 000 .34 1.28 1.28 0 00.16.27 1.53 1.53 0 01.13.16 5.43 5.43 0 01.35.87c0 .17.27 1.06.33 1.35a7.45 7.45 0 01.14.92v.42l-.27.14s-.12-.15-.2-.27a3.45 3.45 0 010-.91v-.38s0 .09-.05.09a.08.08 0 01-.07 0v-.2l-.45-.79s-.19-.6-.22-.71 0-.09-.08-.09-.06.5-.08.63a2.22 2.22 0 000 .35 3 3 0 000 .32 2.16 2.16 0 010 .31.63.63 0 010 .19v-.12c0-.06-.13-.75-.15-.84a1.66 1.66 0 01-.06-.31v-.38a5.86 5.86 0 01.07-.94l.06-.15s.05-.11.08-.2a2.5 2.5 0 00.06-.75c0-.13-.12-.64-.15-.76s-.21-.57-.24-.65a4.57 4.57 0 010-.73v-1.42"/><path class="cls-2" d="M81.86 77.05a4.32 4.32 0 00.61-.52 1.53 1.53 0 00.31-.53c0-.1 0-.34-.2-.16a3.51 3.51 0 01-.51.31 1.93 1.93 0 00-.13.24l-.15.53.07.13zm-5.16-.86s-.2.17-.34.12a2 2 0 01-.6-.43c-.05-.1-.13-.38-.18-.34a.43.43 0 00-.11.18.38.38 0 000 .17c0 .15 0 .54.19.66s.3.39.5.37.46-.12.47-.17 0-.56 0-.56m-1-1.19a.54.54 0 000 .08.69.69 0 00.25.35l.09.07.1.08a.63.63 0 00.23.12 1.9 1.9 0 00.37 0H77a2.13 2.13 0 01.18.26 1.46 1.46 0 01.07.19.65.65 0 010 .1l.11.16a.37.37 0 00.27-.37c0-.14-.18-.87-.2-1s0-.09-.06-.16h.74a1.86 1.86 0 00.15.52.47.47 0 00.24.07c.15 0 0 .11-.07.22s0 .32 0 .37a.2.2 0 01.07.15 1.34 1.34 0 00-.15.27c0 .11.23.23.31.19a1.83 1.83 0 00.28-1.14c0-.46 0-.59.11-.65h.2a1.72 1.72 0 010 .34v1.29c0 .09.14.11.28.2a.13.13 0 00.2 0v-.18a.42.42 0 01-.16-.23.44.44 0 010-.18s.23 0 .22-.09-.14-.23-.15-.34.12-.11.12-.11.14-.27.23-.48a.59.59 0 01.13-.18H81c-.12.29-.31.87-.35 1a3.6 3.6 0 000 .74h.21a1.53 1.53 0 01.14-.36 4.83 4.83 0 01.39-.58 2.92 2.92 0 00.69 0 1.52 1.52 0 00.5-.4 1.35 1.35 0 01.19-.28h.71v.12a2.77 2.77 0 00.92-.16h.52a.19.19 0 000 .08v.07a1.7 1.7 0 00.59-.15h.7c-.15.12-.29.25-.38.31a8.35 8.35 0 01-1.17.46 3.83 3.83 0 01-.71.09c-.21 0-.6 0-.64-.18s0-.13 0-.14h-.21a4.94 4.94 0 010 1 1.91 1.91 0 01-.21.63s-.08.19-.16.33a3 3 0 01-.33.65 1.74 1.74 0 01-.6.54.42.42 0 01-.18-.14.36.36 0 01-.07-.1l-.07-.08c-.1-.1-.18 0-.19 0a.09.09 0 000 .07v.15a3.22 3.22 0 01.15.55 1.59 1.59 0 010 .65.82.82 0 01-.44.36 1.91 1.91 0 01-.55-.06.47.47 0 01-.22-.09 1.42 1.42 0 01-.18-.11v-.06h.13a2 2 0 00.41-.29.39.39 0 000-.23v-.23a2.41 2.41 0 00-.16-.54.12.12 0 00-.14 0h-.06l-.44.17h-1.23a1.19 1.19 0 01-.47-.16.12.12 0 00-.16 0 .58.58 0 00-.1.12.62.62 0 000 .1v.14a1.31 1.31 0 01-.07.27v.3c0 .1.09.16.14.24a.63.63 0 00.17.1h.1l.09.05c.07 0 0 .16 0 .2a3.67 3.67 0 01-.64.12.83.83 0 01-.51-.22 1.32 1.32 0 01-.18-.61.69.69 0 01.06-.26c0-.1.07-.18.08-.21a1.13 1.13 0 000-.45c0-.1-.07-.12-.12 0a.5.5 0 000 .13v.11a1.79 1.79 0 01-.13.22s0-.06-.07-.09h-.09c-.1 0-.26-.32-.33-.5s-.09-.17-.13-.27a.76.76 0 01-.1-.31v-.15a.27.27 0 000-.12.24.24 0 00-.16-.15c-.11 0-.2.36-.22.46a6.37 6.37 0 000 1 7.24 7.24 0 000 .74 3.42 3.42 0 010 .87c0 .05-.24 0-.3 0s0-.07 0-.11v-.39a.28.28 0 000-.16.06.06 0 00-.1 0 .44.44 0 00-.1.19 1.12 1.12 0 000 .56 6.9 6.9 0 01.31 1.19c0 .22.15 1.6.15 1.6V85a2.36 2.36 0 01-.1.78h-.29a.33.33 0 010-.12 1.18 1.18 0 000-.19v-.4a.34.34 0 000-.09 1.8 1.8 0 01.08-.53 1.86 1.86 0 000-.52v-.49a3.54 3.54 0 00-.09-.49c0-.1 0-.21-.06-.29a1.54 1.54 0 010-.16 2.7 2.7 0 00-.15-.69c0-.06-.08-.06-.12 0a1.38 1.38 0 00-.06.16c0 .14-.06.31-.08.39a1.69 1.69 0 000 .21v.35a5 5 0 01-.09.67 5 5 0 00-.12.71c0 .13-.08.61-.1.66a.93.93 0 01-.36.44h-.09s-.17-.12-.13-.38.38-1.57.43-1.78.5-2.11.6-2.55.27-1.43.37-1.76a5.83 5.83 0 00.25-1.27 8 8 0 000-1.12 1.64 1.64 0 01.2-.63.13.13 0 000-.06v-.62a.13.13 0 010-.06zM73 75h.29l.14.08.13.08a.2.2 0 01.08 0h.08a3.4 3.4 0 01.29.26h-.3c-.19 0-.39-.16-.46-.17a7 7 0 01-1.27-.54L72 75z"/><path class="cls-2" d="M78.77 74.82a.4.4 0 00.26-.21.82.82 0 00.18-.4c0-.09 0-.18-.21 0a1.48 1.48 0 00-.31.43c0 .12-.14.25-.07.23s0 0 .15-.07m.59.18s0-.08-.08-.06a.34.34 0 00-.12.06zm-4 0a.85.85 0 01.21-.11v.14V75zm11.81-.89a6.14 6.14 0 01-.47.46l-.41.34-.1.09h-.7.06a6.72 6.72 0 001.09-.76l.09-.1zm-1 0l-.26.23a2.66 2.66 0 01-.44.38c-.14.07-.44.18-.46.21a.22.22 0 00-.06.07h-.51l.13-.06c.15-.08.27-.1.33-.15s.19-.19.19-.25v-.13h-.16s0-.06.06-.1.49-.16.54-.18zm-2.83 0a.5.5 0 010 .12l-.09.48a1.38 1.38 0 01-.33.11c-.17 0-.08.15-.08.15h.71a2.12 2.12 0 010-.24c0-.16 0-.08.06-.11s0-.19 0-.23a.76.76 0 01.09-.18s.08 0 .16-.09zm-.9 0a.88.88 0 01.13.25s0 .13.09 0a.77.77 0 000-.27zm-1.87 0v.32a1.06 1.06 0 01-.09.43l-.16.14H81l.06-.12a4.38 4.38 0 01.43-.77zm-2.7 0h-.75a.68.68 0 01.12.21c0 .07.2.45.29.68h.74v-.06a7.88 7.88 0 00-.07-.83zm-2 0l-.1.09h-.06l-.12-.06h-.08.41zm-4.19 0l.18.08h.07l.12.06a.33.33 0 00.16.05h.39v.05h.05l.11.07h-.37a.15.15 0 000 .06v.06h.26a.23.23 0 01.1 0H72a7.62 7.62 0 01-1.1-.89z"/><path class="cls-2" d="M78.75 73.8c.11 0 .23 0 .28-.08s.25-.31.1-.29-.23 0-.28 0-.2.31-.1.32m-.62.31a2.13 2.13 0 000-.25H78a.39.39 0 010 .15l-.08.15zm9.75-.89l-.35.53-.34.36h-.44a3.4 3.4 0 00.36-.42.44.44 0 000-.26h-.07c-.01 0 0-.07 0-.1l.15-.07zm-1 0c-.1.14-.39.5-.45.59a2.71 2.71 0 01-.3.3h-.63l.38-.22.08-.08s0-.13-.08-.15h-.32v-.15l.71-.26h.63zm-1.73 0h.07zm-2.39 0a.19.19 0 000 .07 5.13 5.13 0 00.46.57.41.41 0 01.06.25h.56c.1-.15.33-.6.53-.89h-1a.16.16 0 01-.18.06.24.24 0 01-.09-.06zm-1.46 0s-.07.22-.16.26a.24.24 0 01-.24-.07.22.22 0 00-.13-.06.11.11 0 00-.1.07l-.06.4a.4.4 0 01-.06.2h.94a.54.54 0 01.14-.13c.2-.11.4-.22.64 0l.15.16h.22a1.24 1.24 0 000-.24s-.21-.37-.24-.46 0-.12-.06-.19zm-4.1 0c0 .13 0 .2-.08.08a.27.27 0 01-.07-.08h-2.28l.4.38a.2.2 0 00.1 0h.19c.05 0 .06 0 .06.07v.35h.41L76 74a.94.94 0 01.22-.12.57.57 0 01.21-.06h.24a.58.58 0 01.34.25h.75c0-.11-.07-.22-.1-.33s-.09-.38-.14-.56zm-3.46 0v.16l-.24-.16zm-2.62 0a.28.28 0 000 .13.34.34 0 00.06.06h.06a.35.35 0 00.14.06h.39l.08.05.11.06a.23.23 0 010 .05v.09c0 .03-.17 0-.19 0h-.09a.17.17 0 00-.17 0 .21.21 0 000 .06v.1h-.81a4 4 0 01-.38-.5l-.23-.35z"/><path class="cls-2" d="M82.29 73.22a.78.78 0 00-.07-.17.3.3 0 00-.16-.08h-.24s-.08.13-.09.07.07-.18.07-.18 0-.08-.11-.07-.17 0-.22.08l-.16.34zm-4.73 0v-.09s0-.23-.1-.23a.44.44 0 00-.17.06l-.05.16v.1zm10.83-.89a2.81 2.81 0 01-.13.33c0 .08-.21.32-.38.56h-.66a1.14 1.14 0 00.34-.2c0-.06.14-.18.07-.26a.27.27 0 00-.07-.06.18.18 0 01.06-.15c.06-.06.18-.06.26-.09a.36.36 0 00.1-.13zm-1 0c0 .09-.47.73-.5.8h-.61a.79.79 0 00.25-.17.09.09 0 000-.14h-.22c-.04 0 0 .07-.07.06a.12.12 0 01-.08 0s-.07-.05 0-.08a.59.59 0 01.16-.15 3 3 0 01.35-.16l.46-.21zm-1.66 0l-.17.14-.18.18a2.19 2.19 0 01-.16.16s-.14.07-.16.14-.11.22 0 .23h.16a.22.22 0 00.13-.06c.1-.09.17-.27.27-.35s.17-.19.24-.25.12-.08.1-.13a.14.14 0 00-.07-.1zm-.58 0a7.74 7.74 0 00-.77.87h-.94a4.28 4.28 0 00.52-.69l.16-.2zm-2.55 0a2.43 2.43 0 01.06.51 1.4 1.4 0 00.07.38h.41v-.06a.7.7 0 01-.08-.36 2.29 2.29 0 01.08-.47zm-8.2 0l.27.26a3.6 3.6 0 00.47.39c.11 0 .4-.35.35-.52s-.07-.08-.14-.13H76c-.09.15-.06.24-.11.4s0 .19.14.25.13 0 .18 0a.73.73 0 00.15-.11.29.29 0 01.21-.22c.18 0 .24.2.24.2s.14.21.26.36h-2.3l-.22-.21c-.27-.24-.58-.5-.83-.68zm-1.5 0l.12.09c.1.08.21.2.31.3l.21.23.18.2v.07h-.32a2.52 2.52 0 01-.4-.42l-.24-.23c-.08-.08-.16-.14-.24-.21zm-1.82 0h-.25a.09.09 0 00-.07 0h-.07v.24l.07.06.48.23h.17l.1.06h-.39v.07h-.9a3.08 3.08 0 01-.38-.88h1.27z"/><path class="cls-2" d="M85.9 72.33zm2.77-.89c0 .08 0 .16-.07.21s-.12.43-.21.68H88a2 2 0 00.11-.19s.08-.09 0-.06-.24 0-.24 0v-.11a1.56 1.56 0 00.44-.3.48.48 0 000-.18zm-.7 0c-.09.14-.19.3-.21.32s-.25.43-.33.57H87h.06s.1-.2 0-.22a1.87 1.87 0 00-.32 0v-.1l.22-.09s.39-.16.43-.24a1 1 0 000-.19H88zm-1.35 0l-.34.14s-.71.43-1 .63a1.49 1.49 0 00-.14.12h-1c.19-.21.39-.42.6-.62a3.43 3.43 0 01.28-.27zm-4.49 0c.16.26.47.79.51.89h.49v-.12a1.21 1.21 0 01.45-.59l.28-.18h-.45c-.13.15-.17.27-.32.19l-.09-.19zm-6.17 0c-.2.24-.36.5-.7.24l-.3-.24h-.6l.44.39c.06 0 .11.19.28.31a3.21 3.21 0 00.31.19H76a1 1 0 01.15-.18c.2-.21.56-.52.74-.7zm-2.89 0c.31.15.73.43.9.51a3.54 3.54 0 01.47.38h-.72l-.15-.1-.6-.36a.73.73 0 00-.29-.13c-.14 0-.23.15-.14.31a.5.5 0 00.22.18l.15.09h-.46L72 72a5.33 5.33 0 00-.46-.31l-.34-.18h-.09zm-2.69 0a.64.64 0 010 .07.27.27 0 000 .2.24.24 0 00.1.12l.18.13.25.19.14.09.09.09h-1.29a4.48 4.48 0 00-.18-.79.51.51 0 010-.1z"/><path class="cls-2" d="M85 71.44a3.07 3.07 0 011-.48c.48-.13.7-.18.86-.21a1.92 1.92 0 01.5 0H88a1.79 1.79 0 01.39 0 1 1 0 01.35.1c.07.11 0 .36 0 .42a1.46 1.46 0 010 .2h-.32c0-.14 0-.29-.06-.29h-.05a.41.41 0 00-.14.1l-.13.2h-.54a.21.21 0 000-.07.1.1 0 000-.09h-.07a1.51 1.51 0 00-.36 0l-.47.19zm-10.66 0a7.29 7.29 0 01-.59-.56 1.45 1.45 0 00-.4-.32H74a6.22 6.22 0 00.95.88zm-4.74 0a.76.76 0 01-.08-.48c0-.15.18-.22.41-.23a6.73 6.73 0 011 .08c.35 0 .66.13.88.18s.89.3 1.15.41h.09-2a.74.74 0 00-.18 0h-.48zm14.74-.88a7.37 7.37 0 01-.8.78l-.11.1h.45l.28-.17c.2-.15.67-.47 1-.71zm-3.08 0l.18.1a3.82 3.82 0 01.63.72v.07H83l-.06-.07c-.16-.2-.14-.19-.31-.39s-.27-.29-.28-.42zm-2.82 0a.48.48 0 010 .18c0 .08-.14.21-.06.23a.22.22 0 00.25-.07 1.35 1.35 0 00.17-.34zm-.77 0a.81.81 0 01.16 0 .58.58 0 01-.17.28c-.13.12-.19.23-.15.31s.06.19.15.13a1.82 1.82 0 00.36-.41c0-.07.12-.24.18-.35zm-1.83 0h.1a4 4 0 00.42 0c.27.18-.19.64-.33.78l-.09.1h.92a1.29 1.29 0 00.12-.12l.28-.5a1.5 1.5 0 01.33-.26z"/><path class="cls-2" d="M84.9 69.67a3.53 3.53 0 01-.54.89h.86c.13-.09.24-.17.33-.22.31-.2.3-.16.58-.32a1.82 1.82 0 01.5-.19l.37-.09h.21a.32.32 0 00.22-.07H86.3c-.52.24-1.13.57-1.13.57a2.66 2.66 0 01.17-.42.77.77 0 00.06-.15zm-10.44 0a4.69 4.69 0 00.69.55 5.91 5.91 0 00.71.34h2.36a.44.44 0 01.09-.14h.14v.15h.33a.39.39 0 000-.11h2.06s.22.08.4.17h1.06c0-.11.36-.13.51-.13a6.21 6.21 0 00.58-.29 4.06 4.06 0 00.52-.42h-.62a7.42 7.42 0 01-.68.39.65.65 0 01-.44-.07.84.84 0 00-.34-.06 2.45 2.45 0 00-.37 0c-.14 0-.73.14-.84.15a3.16 3.16 0 01-.58 0h-1.72a1.93 1.93 0 00-.33 0h-.32a.61.61 0 01-.4-.14.38.38 0 00-.23-.11.76.76 0 00-.3 0 .84.84 0 00-.24.1.54.54 0 01-.24.11 2.88 2.88 0 01-.51-.1 3.29 3.29 0 01-.66-.29zm-1.35 0l.08.37h-.26a2.45 2.45 0 01-.64-.11 3.74 3.74 0 01-.5-.24H71c.34.18 1 .54 1.14.59s1 .23 1.16.25a.31.31 0 01.12 0H74a1.28 1.28 0 01-.14-.21 5.2 5.2 0 01-.33-.68z"/><path class="cls-2" d="M83.33 69.67h.06a3.26 3.26 0 00.62-.91c0-.11.17-.46.29-.82h.44a5.31 5.31 0 01-.47 1.44 4.41 4.41 0 01-.32.34zm5-1.78a3 3 0 01-.14.42 2.56 2.56 0 01-1.35 1.14 3.75 3.75 0 00-.52.22h1.13a.82.82 0 01.42-.25c.16 0 .33-.07.4-.09s.26-.1.49-.21.53-.23.65-.27a3.46 3.46 0 00.85-.47c.12-.09.23-.19.36-.28l.2-.17h-.55a5.08 5.08 0 01-1 .57c-.45.22-.91.39-.91.39s.17-.33.23-.42.15-.2.19-.28.21-.2.37-.26zm-3.14 0c0 .42-.07.87-.12 1.19a2 2 0 01-.15.59h.5c.06-.17.11-.38.12-.42s.46-.25.52-.25a2.67 2.67 0 001.52-1.09h-.69a5.45 5.45 0 01-.88.46 1.78 1.78 0 01-.31.08h-.21a.73.73 0 01-.07-.37v-.17zm-11.51 0a7.6 7.6 0 00.55 1.49 1.87 1.87 0 00.25.29h.67a5.58 5.58 0 01-.66-.86 5 5 0 01-.44-.9zm-2.64 0a3.32 3.32 0 00.69.83 2.81 2.81 0 00.87.38 2.32 2.32 0 01.43.12l.1.45h.43a5.12 5.12 0 01-.28-1.78h-.38v.68c0 .06 0 .18-.14.21s-.35-.12-.39-.14a8.6 8.6 0 01-.69-.54 2 2 0 01-.15-.21H71zm-1.92 0a1.38 1.38 0 00.5.14c.31 0 .33.31.45.54l.21.3h-.62a2.23 2.23 0 01-.91-.26 2.29 2.29 0 01-.89-.72h-.52a10.8 10.8 0 00.89.86 2.73 2.73 0 001 .37c.18 0 1.38.38 1.53.45l.17.1h.84a3.1 3.1 0 01-1-.83c-.17-.28-.41-.61-.58-1z"/><path class="cls-2" d="M86.89 67.89a1.77 1.77 0 00.32-.22 13.56 13.56 0 00.57-1.49.64.64 0 000-.07h.44v.19a5 5 0 01-.5 1.4l-.12.19zm-2.59 0l.23-.74c0-.18.15-.63.25-1h.37c-.1 0-.13.16-.14.34s-.13.79-.27 1.44zm6.94-1.78a2.93 2.93 0 010 .29 3.61 3.61 0 01-.9 1.48h.54a.33.33 0 00.06-.08c0-.07.22-.23.39-.42l.4-.46a1.1 1.1 0 01.25-.2 2.79 2.79 0 00.28-.16 2.16 2.16 0 00.43-.46h-.4l-.06.06a5.42 5.42 0 01-.46.36v-.42zm-2.61 0v.14a14 14 0 01-.3 1.64h.84l.28-.09c.51-.14.68-.51 1-.92a2.79 2.79 0 00.28-.77h-.61a5.13 5.13 0 01-.77 1 1.36 1.36 0 01-.46.19c-.12 0-.14-.14-.09-.37a3.32 3.32 0 01.07-.51v-.28zm-3.41 0a.14.14 0 010 .09 3.12 3.12 0 010 .53c0 .12 0 .62-.08 1.16h.26v-.18c0-.03.06-.59.07-.84s0-.46 0-.76zm-11.54 0c.06.29.12.58.14.7s0 .3 0 .46a2.75 2.75 0 00.12.53v.09h-.35c-.08-.39-.1-.83-.15-1.07s-.11-.28-.26-.27 0 0-.07.06c0 .23.08 1 .09 1.23v.07h-.38c0-.47 0-1.29-.07-1.78zm-3.34 0a3 3 0 00.42 1.31c.08.16.17.32.26.47h.47c-.08-.12-.16-.25-.23-.38S71 67 71 67s-.2-.53-.31-.86zm-2.42 0a7.15 7.15 0 00.58 1.24 1.6 1.6 0 00.6.54h1.11a1.79 1.79 0 01-.18-.52c-.06-.42-.11-.84-.14-1.26h-.39v.61c0 .03.18.63 0 .78h-.26a2.26 2.26 0 01-.6-.65 5.36 5.36 0 01-.29-.7zm-1.14 0a.68.68 0 01.14.32c0 .22.13.32.17.55 0 0-.18.24-.4.11a2.54 2.54 0 01-.62-.72 2.33 2.33 0 01-.17-.26h-.37a1.29 1.29 0 00.12.26 4.26 4.26 0 00.85.92 4.38 4.38 0 00.42.28l.2.15.17.14h.52a4.24 4.24 0 01-.54-1.46 1.65 1.65 0 01-.06-.32z"/><path class="cls-2" d="M84.78 66.11c.09-.39.17-.75.18-.81a2.48 2.48 0 01.43-1.09 4.83 4.83 0 01.53-.55 4 4 0 01-.15.61c0 .12-.12.53-.13.57s0 .37 0 .64v.58h-.79zm-12 0v-.38l-.11-.65c-.06-.31-.12-.63-.13-.65a.49.49 0 010-.26c0-.06 0-.16.11-.13a1.38 1.38 0 01.39.35c0 .07.37.8.47 1a6.61 6.61 0 01.18.68zm-7.28 0c-.15-.33-.32-.78-.37-.91s-.15-.32-.24-.52a2.87 2.87 0 01-.2-.45v-.38a.75.75 0 00-.1-.39l-.54-.46a2.21 2.21 0 01-.42-.43h.57c.22.21.49.41.64.55a1.79 1.79 0 01.17.41c.06.21.37 1.38.47 1.61l.24.58a2.06 2.06 0 00.19.4zm28.29-3.55c-.11.16-.25.38-.31.45a1.73 1.73 0 00-.14.58c-.08.33-.26.59-.33.92a5.24 5.24 0 01-.43 1.1 1.7 1.7 0 01-.37.5h.4a1.73 1.73 0 00.25-.38 1.83 1.83 0 00.07-.32.58.58 0 01.09-.26.82.82 0 00.08-.25 2.24 2.24 0 01.11-.29 7.59 7.59 0 00.37-1 1.75 1.75 0 01.21-.56l.33-.45zm-2.67 0c.06.18.21.7.23.75s.05 1 .08 1.12a4.56 4.56 0 00.12.48.23.23 0 00.12 0 .26.26 0 00.14-.09 3.85 3.85 0 00.27-.64l.24-.64a7.92 7.92 0 00.13-1h.39a.52.52 0 010 .14 5.7 5.7 0 010 1.1 6.31 6.31 0 01-.32.91 3.56 3.56 0 01-.42.65 2 2 0 01-.31.29v.46h-.52a6.85 6.85 0 000-1.5c0-.12 0-.45-.12-.36a.51.51 0 00-.2.39 4.35 4.35 0 01-.09 1 4.64 4.64 0 00-.12.45h-.61a.25.25 0 000-.07 7.67 7.67 0 00.32-1.25 17.79 17.79 0 00-.2-1.84c0-.06-.06-.21-.11-.39zm-2.06 0v1.31a4.22 4.22 0 00-.08.77c0 .37-.11 1.3-.11 1.3a1 1 0 010 .17h-.26c.05-.37.06-.63.1-1.09 0-.07 0-.15-.09-.16s-.08.06-.11.19-.2.7-.29 1.06h-.42c.12-.43.42-1.81.47-2a8.71 8.71 0 01.24-.88c.06-.1.19-.24.42-.58a.46.46 0 01.07-.07zm-19.47 0a2 2 0 01.23.33c.05.1.46 1.18.49 1.27s.23 1.59.23 1.64 0 .15.09.31h-.32a4.8 4.8 0 00-.09-.5c-.06-.27 0-.57-.27-.69a.25.25 0 00-.17 0c0 .45 0 .83.08 1.2h-.36v-.42c0-.12-.09-1.29-.09-1.45v-1.32a1.89 1.89 0 00-.1-.36zm-4.25 0v.25a6 6 0 00.28 1.32c.11.3.37 1.06.48 1.3a1.69 1.69 0 00.53.58l.1.1h.46a6.12 6.12 0 010-1.35l.12-.84c.09 0 .2.27.21.44a7.32 7.32 0 00.23 1.37c0 .12.08.25.13.38h.44l-.07-.19c-.11-.35-.16-.44-.23-.72a7 7 0 01-.12-1v-.35a1.78 1.78 0 010-.4c0-.09.07-.28.11-.47s.1-.28.13-.44h-.88v.09a3.27 3.27 0 01-.14.46 4.78 4.78 0 00-.14.64c0 .26-.09.51-.11.61a1.89 1.89 0 00-.06.4v.42c0 .11 0 .15-.07.18a.15.15 0 01-.16-.09c-.08-.18-.17-.45-.17-.45l-.21-.7a4.71 4.71 0 01-.2-1.44v-.1zm14.56.4h-1.32v-6h-2.73v-1.18h2.73V53h1.35v2.82h2.67v1.14h-2.67zm-11.16-8.38l-3-.54.29-.31 3 .56zm6.44 1.14l-4.82-.87v-.28l4.79.9zm1.13-.61h-.71l-7.8-2.87.32-.24z"/><path class="cls-2" d="M77.4 55.11h-.47L69.75 51l.33-.2zm.46 0h-.24L71.6 50l.34-.17L77.91 55v.07zm0-.21l-4.64-5.54.35-.11 4.29 5.28zm2.24-2.61h-.28l.67-3.88h.36zm-.74 0h-.28v-3.91h.36zm-1.49 1.94l-3.1-5.31.35-.09 2.75 4.89zm0-1.25l-1.59-4.36h.36l1.24 3.61zm.81-.69h-.28l-.66-3.84h.35zm4.55 3.53v-.26l4.94-.84.09.32zm-2.63-2.71v-.78l1.4-3.77h.35zm0 1.21v-.49l2.9-5 .36.09zm0 .64v-.36l4.49-5.29.35.13zm.35.15h-.37l6.2-5.11.36.16h-.06zm.77 0h-.49l7.45-4.2.29.21zm1.46 0h-.76l8.21-2.93.31.26zm5.65 28.71L86 75.72l.29-.18 2.89 8.11zm4-3.09l-4.28-7.63.11-.38.06.1 4.33 7.64zm3-3.9l-6.2-7.58.29-.16L96 76.51zm1.84-4.44l-5.7-4.93.24-.19L97.73 72zm.67-4.52l-4.68-2.81.06-.32 4.59 2.72zm-.39-4.26l-3.07-1.2.11-.29 2.86 1.07zm-1.19-3.78l-1.23-.24v-.33l1.05.2zM95 56.68h-1.63v-.31h1.34zm-5.92-.08l-5.78-.09v-.24h5.69zm.8 1.91l-6.58-1.28V57l6.53 1.21zm-6.5 9.84l-2.78-7.87v-.7l3 8.23zm-2.12.77l-.9-5.47h.27l.93 5.42zm8-8.82l-7.09-2.7h.67l6.51 2.4zm-.69 1.7l-7.43-4.44h.46l7.3 4.3zm-.9 1.73l-7.13-6.18h.34l6.91 5.87zM85 63.62l-4.4-5.43v-.36l4.66 5.64zm-.77 1.83L80.6 59v-.5l3.8 6.7zm2.83.7L86.12 65l.11-.33 1.06 1.29zm-23.26-9.8L64 56h1.3v.33zM62 59.46l.17-.38.62-.12.07.33zm-1.3 3.85l.08-.4 2.27-.82.06.28zm13.54 1.91L74 65l3.88-6.57v.45zm-1-1.71l-.24-.12 4.93-5.65v.34zm-2.38-.15l-.11-.28 6.83-5.49h.36zm-1-1.52l-.29-.14 7.28-4.11h.46zM69 60.23v-.31l6.5-2.33h.69zm-.56-1.9l.16-.33 6.57-1.09v.25zm6.74-1.9H69.5l.06-.28 5.62.08zM75 68.19l-.18-.29 3.11-8.26v.66zm4.42 1h-.28v-5.5h.25zM77 69h-.3l1.22-6.31v1zm-5.76-3.2l-.17-.21 1-1.12.12.26zm-11 1.55v-.41l4.2-2.37.09.27zm.47 4.32l-.08-.39 5.17-4.14.16.2zm1.67 4.55l-.17-.33 5.82-6.71.21.14zm3 4.23l-.24-.27 4.4-7.42.15.21zm3.86 3.12l-.31-.21 3-8 .22.14z"/><path class="cls-2" d="M79.22 47.06A20.35 20.35 0 1099.57 67.4a20.37 20.37 0 00-20.35-20.34m0 41.71a21.37 21.37 0 1121.37-21.37 21.39 21.39 0 01-21.37 21.37"/><path class="cls-2" d="M81.62 74.73h-.08a.06.06 0 01-.05 0s0-.09.09-.15v-.07a.33.33 0 01.25-.09h.06s0 .11-.1.18a.24.24 0 01-.22.09m8.24-14a3.72 3.72 0 00.07.77c0 .15 0 .43.11.7s.06.27.1.4h1c0-.13-.45-1.26-.5-1.38a10.89 10.89 0 01-.43-1.23c0-.08-.08-.19-.12-.13a.88.88 0 00-.15.41c0 .19 0 .38-.08.5M89 62.56h.09c0-.05 0 0-.09 0m-19.8-.16v.16h.39a1.31 1.31 0 00-.18-.17c-.12-.08-.21-.06-.24 0m-1.84-.19l-.09.35h.88v-.1c0-.48.06-.91.06-1.11a5.44 5.44 0 010-.65v-.47a1.3 1.3 0 000-.27.63.63 0 00-.11-.26s-.09.12-.11.16a6.76 6.76 0 00-.17.68s-.08.21-.13.36a2.8 2.8 0 00-.1.33s-.22.81-.28 1m.12-4.27a4.44 4.44 0 01-.29.35 1.44 1.44 0 00-.21.25 7.35 7.35 0 00-.66 1.32 8.43 8.43 0 01-.42 1.43c-.07.12-.38.14-.41-.08a3.8 3.8 0 01.26-1.08A3.12 3.12 0 0066 58.9a4 4 0 01-.11-1.14 3.54 3.54 0 01.07-.47 1.8 1.8 0 00.25.33c.37.37 1.31.32 1.31.32m2-3a2.69 2.69 0 01.2-.27.62.62 0 00-.38 0c-.15 0-.16.08-.32.24a3.24 3.24 0 00-.56.73l-.63 1.14a1.92 1.92 0 01-.59.65 1.24 1.24 0 01-.22.12h-.12a.68.68 0 01-.26-.08.88.88 0 01-.25-.28.82.82 0 010-.42c0-.08.1-.34.1-.34a1.77 1.77 0 01.07-.29s.08-.22.1-.3 0-.68.06-1c0-.1 0-.22-.16-.1a.85.85 0 00-.19.21 3.21 3.21 0 00-.16.37c-.07.16-.18.38-.27.55a5.86 5.86 0 00-.22.67c-.07.26-.13.48-.17.6a6.11 6.11 0 00-.09 1.14 2.43 2.43 0 000 .28 1 1 0 01.07.23 1.44 1.44 0 01.06.53 5.06 5.06 0 01-.19.78c-.07.27-.17.57-.17.57l-.1.33a1.6 1.6 0 01-.2.48c-.07.09-.24 0-.29 0l-.13-.16a4.53 4.53 0 01-.26-.4 1.44 1.44 0 01-.07-.31v-.32a4.68 4.68 0 000-.59 7.69 7.69 0 00-.37-1.06c0-.05-.07-.18-.13-.31a2.59 2.59 0 00-.19-.33c-.08-.13-.2-.23-.29-.17s0 .12 0 .24a3.19 3.19 0 000 .43v2.25c0 .18.05.8.09 1.06a3.44 3.44 0 00.3.76h.57a1.56 1.56 0 01-.38-.48 2.78 2.78 0 01-.21-.86 4.19 4.19 0 01.07-1.08c.07-.17.17 0 .19.16a6.32 6.32 0 00.1.79 1.29 1.29 0 00.56.8 1.38 1.38 0 00.58.19.25.25 0 01.24.23v.25H66a3.88 3.88 0 01.06-.82c0-.19.09-.28.12-.41a7.93 7.93 0 01.32-1 6 6 0 01.5-1.21 6.62 6.62 0 01.6-.76c.06-.08.65-.91.79-1.13a7.9 7.9 0 00.47-1.15 5.62 5.62 0 01.35-.68c.17-.26.17-.31.29-.5m23.34 6.28h-.06a.57.57 0 01-.24-.12l-.18-.49-.3-.82a2.36 2.36 0 00-.87-1.37c-.21-.2-.09-.32.11-.29s.29 0 .4 0a1 1 0 00.34-.31 1.27 1.27 0 00.27-.59c0-.14-.1-.48 0-.51.29-.08.28.67.23.84s0 .7 0 .74a5.77 5.77 0 000 .84c0 .27.16 1.1.18 1.27s.12.79.06.79M95 57.59c0-.22-.05-.29-.21-.26s-.14.15-.17.19l-.14.25a4.26 4.26 0 00-.27 1c-.1.51-.12 1.08-.29 2-.08.43-.28.58-.44.5a.48.48 0 01-.17-.1s-.14-.12-.16-.2a6.24 6.24 0 00-.27-.93 2.1 2.1 0 01-.08-.61v-.47c0-.19.09-1 .09-1.14s-.06-.83-.06-1a1.5 1.5 0 00-.14-.57c-.06-.11-.12-.27-.2-.43a3.14 3.14 0 01-.23-.53 9.75 9.75 0 00-.31-1 3.64 3.64 0 01-.15-.38s-.12-.32-.15-.31-.06 0-.1.08a.76.76 0 00-.11.16 2.43 2.43 0 00-.12.65c0 .15.11.86.13 1s0 .15.07.26l.12.39a3.87 3.87 0 01.16.69.7.7 0 01-.22.6.42.42 0 01-.33 0l-.24-.14a.67.67 0 01-.23-.38 3.24 3.24 0 01-.1-.4c0-.14-.36-.72-.44-.86s-.17-.28-.29-.49a4.45 4.45 0 00-.35-.56 1.4 1.4 0 00-.65-.25h-.2l-.05.18c0 .07.06.17.19.38a4.71 4.71 0 01.39.71 8.56 8.56 0 01.56 1.59 3.47 3.47 0 00.65 1.25l.89.71a4.64 4.64 0 01.61 1.3c0 .18.15.54.26.89a5.61 5.61 0 01.21.78v.37h.39a.19.19 0 01.07-.22h.18a1.75 1.75 0 00.31-.15 1.9 1.9 0 00.56-.43l.17-.23s.48-.3.32 0l-.09.26c-.16.32-.35.41-.55.69h.33l.36-.52a3.54 3.54 0 00.35-.92c0-.09.08-.62.08-.93s0-1.36.07-1.5 0-.85 0-1.1m-45.55 37.8H50v.3h4.97V96a1 1 0 00-.5.38c-.13.25-.17.23-.17 1.07v7.67a5.79 5.79 0 00.07 1.21l-1.33.48-1.52 1.19-2.15-2.76a1.65 1.65 0 01-.34-1.46 2.58 2.58 0 01.51-1.27c.13-.18.09-.11.09-.11h.28l-.08.32s0 .08.1.31 2.42 3 2.42 3 .08.14.09 0 0-2.79 0-2.79v-3H51l-.12.18-.42 1.39v-2.93h.62v.27h1.25v-1.37l-.07-.39a1.92 1.92 0 00.49-.3l.42-.32s-1 .22-1.11.24h-1.91L50 97l-.57 1.63v-3.37zm8.6 0l.84.32-1 1.17-.24-.08zm1.53 0l.85.32-1 1.18-.26-.08zm11.69 3.07a6.7 6.7 0 00.46-.62c.2-.31.47-.7.47-.7l1.44.51-.17.48v1.15L74.7 97h.4l.62 2.31a2.34 2.34 0 01-.64 2.16c-.13.12-.26.25-.38.38l-.35-.36s.35-.38.36-.61a3.56 3.56 0 00-.22-1c-.12-.44-.33-1.05-.33-1.05s-.1.13-.16.23l-.49.86v4.38l1 .3.14-.56.58.19-1.12 1.82-2.38-.64s.21-.16.2-1.41 0-5.47 0-5.47l-.68-.24zm4.79 0L77 97l1.61.61a2.76 2.76 0 00-.18.82v1L79.8 97l2.11.75a3 3 0 00-.19 1v.89l1.4-2.64 2.08.75a3.21 3.21 0 00-.3 1v5.78l.68.2-.7 1.35-1.81-.5a3 3 0 00.22-1.3v-5.52l-.54-.21-1.06 1.8v4.21l.57.18-.74 1.34-1.65-.44a2.47 2.47 0 00.2-1.29v-5.51l-.73-.29-1 1.66v4.39l.49.16-.7 1.32-1.66-.44a2.71 2.71 0 00.22-1.11v-5.88zm16.66 6.18l.78.25-.81 1.24-1.82-.47s.27-.29.26-1.85 0-5 0-5l-.73-.28.86-1.4 1.72.68-.27.63v6.18m-.44-9.27l.85.34-1 1.18-.23-.07zm3.72 0l.92.58s.38.26.65 0a3.36 3.36 0 00.28-.27l.31.2-.87 1.17a1.74 1.74 0 01-.93.21c-.32-.11-.66-.25-.66-.25V107a1.15 1.15 0 00-.47.09.82.82 0 00-.45.4 1.49 1.49 0 00-.09.44h-.62v-10.7l-.19-.69 1.23-.37z"/><path class="cls-2" d="M98.88 95.48v1.46h1.59l-.65 1.27h-.92v6.23l.78.22-.8 1.37-1.82-.5a3.13 3.13 0 00.26-1.41v-5.9h-.6l1.09-1.14zm5.63 2.75a7.21 7.21 0 00.47-.63l.46-.7 1.44.51-.16.49v1.15l1.2-2.15h.41l.62 2.31a3 3 0 010 1.15 3 3 0 01-.6 1l-.39.37-.35-.35s.35-.38.36-.61a3.87 3.87 0 00-.21-1c-.13-.44-.34-1.06-.34-1.06s-.1.14-.15.23-.5.87-.5.87v4.38l1.05.29.13-.55.58.19-1.15 1.88-2.37-.63s.21-.16.2-1.41 0-5.47 0-5.47l-.68-.24zm-49.08 7.43l.11-.51v-4.28a2.68 2.68 0 00-.15-.63l1.2-.46-.16-.09a3.18 3.18 0 01-.76-.62c-.08-.1-.25-.4-.25-.4L56.8 98l.8-.94 2.81 1-.15.25a2.43 2.43 0 00-.13.35v5.81l.11.06.57.15-.81 1.38-1.54-.41s.1-1 .1-1.09a1.73 1.73 0 000-.34l-.35.55-.73 1.3-2-.41zm1.73-7.17a2.19 2.19 0 00.08.23.91.91 0 00.51.43 1.18 1.18 0 00.59.09 2.68 2.68 0 00.7-.18zm0 5.84l.69.22.67-1.17v-3.8l-1.34.66zm4.11-5.84l1.27-.56.78-.93 3 1a1 1 0 00-.22.52v8.01l-1 .31-.93 1a5.44 5.44 0 00-1.6-.51c-.58 0-.66 0-.82.14a2.24 2.24 0 00-.36.49l-.39-.16a4.55 4.55 0 01.7-1 2.76 2.76 0 01.93-.7 1.89 1.89 0 01.37-.1v-.07l-1.74-.47a3.77 3.77 0 00.17-.85v-5.47l-.2-.62zm2 7.44l1.28.31v-2.53zm-.27-7.4v5.82l.57.16.9-1.64v-2.74a1.93 1.93 0 00-.15-.6l.38-.42zm4.17 6.79l.15-.82v-4.84a4.5 4.5 0 00-.16-1.22l1.1-.29 1-1.15 2 2.12-.25.3-2.01 3.75v1l1.64.42.19-.52.51.16-1 1.84-3.1-.77zM69 98.91v3.54l1.17-2.18zm17.16 6.37l.15-.82v-4.84a4.5 4.5 0 00-.16-1.22l1.1-.29 1-1.15 2 2.12-.25.3-2.08 3.75v1l1.64.41.19-.51.5.16-1 1.84-3.1-.77zm1.76-6.41v3.54l1.17-2.18z"/><path class="cls-2" d="M100.49 105.23l.16-.81v-4.84a4.26 4.26 0 00-.17-1.23l1.1-.29 1-1.15 2 2.12-.25.31-2.09 3.75v1l1.64.42.19-.51.51.15-1 1.84-3.1-.77zm1.76-6.41v3.55l1.18-2.19-1.19-1.36z"/></svg>