<svg data-name="Layer 1" xmlns="http://www.w3.org/2000/svg" viewBox="0 0 158 158"><path fill="#322f31" d="M0 0h158v158H0z"/><path d="M61.65 83l2.87-.07v-.34l-1.06-.09a3.68 3.68 0 000-.6v-6.26l.11-.13h.45c1.46 0 2 .85 2 1.76A1.58 1.58 0 0164.55 79v.46L66 81.61a8.16 8.16 0 01.74 1.3h1.76v-.38h-.12c-.31 0-.55-.06-1-.79l-1.71-2.49v-.15a2.74 2.74 0 001.55-2.1c0-1-.8-1.91-2.94-1.91h-1a.65.65 0 00-.71.6v6.23c0 .4-.33.67-.86.72V83zm-3.12 0l-2.91-.07v-.34l1.13-.09a2.66 2.66 0 01-.07-.6v-5.43a4.46 4.46 0 010-.82.64.64 0 01.71-.6h1.16v.3c-.88.18-.88.3-.88.86v5.67c0 .4.33.67.85.72v.4zM45.3 83h2.2v-.33l-1-.15.66-1.7.39-1 .15-.42 1.15-3a5.86 5.86 0 00.23.72L50 79.3l.71 1.87.36 1c.13.35-.17.45-.5.46V83h2.31l.05-.32c-.37-.05-.58-.11-.91-.92L49.38 75l-.47.12-2.81 7a.87.87 0 01-.8.54V83zm-7.98 0h5.47l.49-2.17h-.41c-.6 1.35-.79 1.71-1.81 1.71h-2a3.62 3.62 0 00.06-.66v-5.29a5.94 5.94 0 00-.06-.94.64.64 0 00-.71-.6h-1.12v.3c.87.18.87.3.87.86v5.67c0 .42-.25.67-.78.72v.4zM27 79.09a4 4 0 004.13 4 3.56 3.56 0 003-1.37l-.17-.25a3.73 3.73 0 01-2.38.84 3.37 3.37 0 01-3.42-3.57 3.1 3.1 0 013-3.38c1 0 2 .39 2 1.62h.39l.37-1.79a22.49 22.49 0 00-2.56-.28A4.1 4.1 0 0027 79.09m99.07 2.78c0 .87 1.24 1.22 2.27 1.22 1.43 0 2.65-.66 2.65-2.09 0-2.54-3.71-2.33-3.71-4.41 0-.86.67-1.23 1.47-1.23a1.3 1.3 0 011.33 1.64h.4l.37-1.85a14.84 14.84 0 00-2-.22c-1.75 0-2.64.89-2.64 2 0 2.41 3.7 2.38 3.7 4.44 0 .91-.72 1.24-1.49 1.24a1.6 1.6 0 01-1.73-1.82h-.4a3.77 3.77 0 00-.26 1.05M112.14 83l3-.07v-.34l-1.14-.11a3 3 0 00.07-.65v-6.19l.11-.13h1.18c.92 0 1.31.25 1.25 1.47h.39l.38-2a5.23 5.23 0 01-.85.07H111a3.78 3.78 0 01-.78-.07l-.38 2h.4c.45-1.22.81-1.47 1.63-1.47H113v6.32c0 .44-.32.71-.85.77v.4zm-20.71-2.83c0 2.17 1.58 2.92 3.13 2.92a3 3 0 003.27-3v-4.44a.66.66 0 00-.71-.6h-.82v.33a1.83 1.83 0 01.72.19 1.15 1.15 0 01.1.56v3.88a2.36 2.36 0 01-2.44 2.41 2.28 2.28 0 01-2.35-2.49v-3.44a2.24 2.24 0 01.4-1.44h-.07a11.33 11.33 0 01-1.32 0h-.93v.29c.88.18.88.31.88.87v4zm-11.37-1.08a3.94 3.94 0 004.12 4 3.57 3.57 0 003-1.37l-.18-.25a3.73 3.73 0 01-2.38.84 3.38 3.38 0 01-3.43-3.57 3.1 3.1 0 013-3.38c1 0 2 .39 2 1.62h.39l.42-1.79a22 22 0 00-2.55-.28 4.1 4.1 0 00-4.34 4.18M100.9 83l2.85-.07v-.34l-1.07-.09a3.08 3.08 0 00.06-.6v-6.26l.12-.13h.44c1.45 0 2 .85 2 1.76a1.59 1.59 0 01-1.53 1.73v.46l1.47 2.17a8.16 8.16 0 01.74 1.3h1.72v-.38h-.12c-.31 0-.55-.06-1.05-.79l-1.71-2.49v-.15a2.71 2.71 0 001.64-2.12c0-1-.81-1.91-2.94-1.91h-1a.66.66 0 00-.71.6v6.23c0 .4-.34.67-.86.72V83zm22.17 0l-2.91-.07v-.32l1.12-.11a3.68 3.68 0 010-.6v-5.43a7.5 7.5 0 010-.82.66.66 0 01.71-.6h1.16v.31c-.88.17-.88.29-.88.85v5.67c0 .4.34.67.85.74V83zM73.98 66.77h.82v24.46h-.82z" fill="#fff"/></svg>