<svg data-name="Layer 1" xmlns="http://www.w3.org/2000/svg" viewBox="0 0 158 158"><path fill="#322f31" d="M0 0h158v158H0z"/><path d="M68.49 77.53H70v6.24h-1.51zm9.3 6.24h-1.3l-2.12-3.42v3.42H72.9v-6.24h1.33l2.1 3.31v-3.31h1.42zm7.74 0h-1.31l-2.12-3.42v3.42h-1.46v-6.24H82l2.09 3.31v-3.31h1.43zm2.63-2.21v-1.81a2.37 2.37 0 014.73 0v1.81a2.37 2.37 0 01-4.73 0zm3.24-.1v-1.63c0-.69-.21-1.06-.86-1.06s-.89.37-.89 1.06v1.63c0 .71.23 1.07.89 1.07s.86-.36.86-1.07zm6.25-3.93c1.48 0 2.38.58 2.38 2.06a1.79 1.79 0 01-1 1.79l1.34 2.39h-1.66l-1.06-2.14h-.56v2.14h-1.47v-6.24zm-.56 2.83h.59c.54 0 .86-.19.86-.77s-.33-.8-1-.8h-.5zm5.62-2.83h1.48v6.24h-1.48zm7.29 0l2 6.24h-1.55l-.36-1.22h-1.55l-.36 1.22h-1.55l2-6.24zm-.22 3.74l-.47-1.81-.47 1.81zM46 83.85h5.23V73.39L46 78.61v5.24zm13.08-10.46v-5.24h-2.62l-2.61 2.62-2.62 2.62h2.62v10.46h2.61l2.62-2.62 2.61-2.62h-2.61v-5.22zm2.61-5.24v10.46l5.23-5.22v-5.24h-5.23z" fill="#fff"/></svg>