<svg data-name="Layer 1" xmlns="http://www.w3.org/2000/svg" viewBox="0 0 158 158"><path fill="#322f31" d="M0 0h158v158H0z"/><path d="M45.28 73.88l-3-2.74c-.28-.25-.08-.79-.08-.79l-.18-.17-4.16 3.7a1.28 1.28 0 00-.41.94v4.85a1.27 1.27 0 00.41.93l3.25 2.89-1 .91.52.48 4.58-4.28a1.26 1.26 0 00.39-.91V74.8a1.27 1.27 0 00-.32-.92zm-.45 5.46l-.29.39-2.71-2.06v4.39h-.49v-4.39l-2.71 2.06-.29-.39 2.84-2.15L38.34 75l.29-.39 2.71 2.06v-4.35h.49v4.38l2.7-2.06.3.39L42 77.19zm23.79 6.34a.73.73 0 01.4.18.56.56 0 01.18.42.63.63 0 01-.12.37.68.68 0 01-.33.25 1.74 1.74 0 01-.64.08H66.9v-.07h.1a.25.25 0 00.23-.1.53.53 0 000-.28v-1.65a.59.59 0 000-.3.27.27 0 00-.23-.08h-.1v-.07H68a2 2 0 01.49 0 .77.77 0 01.43.24.59.59 0 01.15.4.54.54 0 01-.12.34.63.63 0 01-.33.27zm-1-.1H68a1 1 0 00.41-.06.43.43 0 00.22-.18.6.6 0 00.07-.27.49.49 0 00-.18-.38.79.79 0 00-.54-.16 1.32 1.32 0 00-.34 0zm0 1.22a2.2 2.2 0 00.44 0 .75.75 0 00.52-.16.52.52 0 00.09-.66.51.51 0 00-.26-.22 1 1 0 00-.45-.08h-.34zm2.7-2.5v2.29a.82.82 0 000 .22.2.2 0 00.08.08.37.37 0 00.18 0V87h-.85v-.07a.33.33 0 00.17 0 .16.16 0 00.06-.08.83.83 0 000-.22V85a2.17 2.17 0 000-.36.12.12 0 000-.09h-.07a.24.24 0 00-.12 0v-.07l.52-.21zm.96 1.61a.88.88 0 00.19.6.56.56 0 00.44.22.48.48 0 00.29-.09.77.77 0 00.22-.32.78.78 0 01-.23.47.62.62 0 01-.47.22.71.71 0 01-.54-.25 1 1 0 01-.22-.65 1 1 0 01.23-.69.79.79 0 01.57-.25.71.71 0 01.48.19.72.72 0 01.19.52zm0-.11h.8a.67.67 0 000-.24.36.36 0 00-.14-.16.33.33 0 00-.19-.06.36.36 0 00-.28.12.53.53 0 00-.19.34zm2.72-.6v.59a.74.74 0 00-.18-.38.43.43 0 00-.29-.1.33.33 0 00-.21.07.21.21 0 00-.08.16.3.3 0 00.06.18.78.78 0 00.24.16l.27.14c.26.12.39.28.39.49a.49.49 0 01-.18.38.65.65 0 01-.4.14 1.42 1.42 0 01-.36 0h-.11A.06.06 0 0073 87v-.62a.7.7 0 00.2.4.51.51 0 00.33.13.26.26 0 00.21-.07.23.23 0 00.09-.18.28.28 0 00-.09-.22 2.06 2.06 0 00-.37-.23 1 1 0 01-.36-.24.39.39 0 01-.08-.27.47.47 0 01.14-.36.54.54 0 01.38-.15 1.11 1.11 0 01.25 0h.13a.21.21 0 000-.06zm1.71 0v.59h-.06a.74.74 0 00-.19-.38.42.42 0 00-.28-.1.31.31 0 00-.21.07.26.26 0 00-.09.16.3.3 0 00.06.18.78.78 0 00.24.16l.28.14a.55.55 0 01.38.49.46.46 0 01-.18.38.63.63 0 01-.4.14 1.49 1.49 0 01-.36 0h-.1a.08.08 0 00-.07.05h-.06v-.62h.06a.7.7 0 00.2.4.51.51 0 00.34.13.28.28 0 00.21-.07.25.25 0 00.08-.18.28.28 0 00-.09-.22 1.54 1.54 0 00-.37-.23 1 1 0 01-.35-.24.46.46 0 01-.09-.27.48.48 0 01.15-.36.51.51 0 01.37-.15 1 1 0 01.25 0h.13v-.06zm1.18 0v1.39a.53.53 0 000 .22.14.14 0 00.07.08.51.51 0 00.17 0V87h-.84v-.07a.51.51 0 00.17 0 .19.19 0 00.07-.08.53.53 0 000-.22v-.66a2.26 2.26 0 000-.37.14.14 0 000-.08h-.07a.31.31 0 00-.13 0v-.07l.52-.21zm-.16-.9a.2.2 0 01.19.19.2.2 0 01-.06.14.15.15 0 01-.13.05.18.18 0 01-.2-.18.19.19 0 01.18-.2zm1.33 1.27a.82.82 0 01.58-.37.43.43 0 01.24.08.46.46 0 01.16.23.82.82 0 010 .35v.73a.78.78 0 000 .22.18.18 0 00.07.08.32.32 0 00.17 0V87h-.86v-.07a.26.26 0 00.17 0 .24.24 0 00.06-.11 1.09 1.09 0 000-.18v-.71a.68.68 0 00-.06-.34.21.21 0 00-.21-.1.62.62 0 00-.44.24v.91a.53.53 0 000 .22.18.18 0 00.07.08.58.58 0 00.19 0V87h-.85v-.06a.2.2 0 00.18-.07.47.47 0 000-.26V86a2.48 2.48 0 000-.38.18.18 0 000-.09.11.11 0 00-.08 0 .27.27 0 00-.12 0v-.07l.52-.21h.08zm2.08.78a.58.58 0 01-.13-1 .79.79 0 01.92-.06h.36a.33.33 0 01.1 0 .13.13 0 010 .06.2.2 0 010 .07h-.34a.58.58 0 01-.08.76.69.69 0 01-.49.17 1.26 1.26 0 01-.27 0 .47.47 0 00-.11.13.12.12 0 000 .09.09.09 0 000 .06.28.28 0 00.12 0h.27a4.37 4.37 0 01.5 0 .46.46 0 01.28.13.36.36 0 01.11.26.56.56 0 01-.2.4 1.1 1.1 0 01-.77.28 1.14 1.14 0 01-.62-.17.26.26 0 01-.14-.19.24.24 0 010-.09 1.43 1.43 0 01.14-.2L80 87a.49.49 0 01-.14-.11.12.12 0 010-.1.3.3 0 010-.16 1.48 1.48 0 01.28-.28zm0 .63l-.13.18a.3.3 0 000 .15.21.21 0 00.11.16 1 1 0 00.55.12.86.86 0 00.5-.12.33.33 0 00.16-.26.16.16 0 00-.1-.14 1.23 1.23 0 00-.39 0h-.65zm.35-1.68a.28.28 0 00-.23.11.52.52 0 00-.1.34.75.75 0 00.13.46.31.31 0 00.25.13.28.28 0 00.23-.11.52.52 0 00.1-.34.8.8 0 00-.13-.47.31.31 0 00-.25-.13zm2.43-.1v.59h-.06a.74.74 0 00-.19-.38.42.42 0 00-.28-.1.34.34 0 00-.22.07.21.21 0 00-.08.16.3.3 0 00.06.18.63.63 0 00.24.16l.28.14a.55.55 0 01.38.49.46.46 0 01-.18.38.63.63 0 01-.4.14 1.42 1.42 0 01-.36 0L82 87a.06.06 0 00-.06.05h-.07v-.62h.07a.7.7 0 00.2.4.51.51 0 00.33.13.26.26 0 00.21-.07.23.23 0 00.09-.18.29.29 0 00-.1-.22 1.69 1.69 0 00-.36-.23A1 1 0 0182 86a.39.39 0 01-.08-.27.47.47 0 01.14-.36.54.54 0 01.38-.15 1.11 1.11 0 01.25 0h.13v-.06zm2.41.19v1.14a.59.59 0 000 .3.21.21 0 00.19.08h.16V87h-1v-.07h.07a.32.32 0 00.14 0 .24.24 0 00.09-.11 1 1 0 000-.24v-1.19h-.34v-.13H85v-.12a1.11 1.11 0 01.08-.44.73.73 0 01.26-.29.7.7 0 01.38-.11.58.58 0 01.37.13.27.27 0 01.11.19.16.16 0 010 .1.13.13 0 01-.11 0 .16.16 0 01-.09 0 .37.37 0 01-.12-.13.43.43 0 00-.13-.14.28.28 0 00-.13 0 .24.24 0 00-.23.2 4.07 4.07 0 000 .5v.12h.45v.14zm1.31-.19v.39c.15-.26.29-.39.45-.39a.23.23 0 01.17.07.18.18 0 01.06.14.15.15 0 010 .13.18.18 0 01-.12 0 .26.26 0 01-.15-.07.23.23 0 00-.12-.06.1.1 0 00-.07 0 1.14 1.14 0 00-.18.25v.83a.57.57 0 000 .22.2.2 0 00.08.08.39.39 0 00.18 0V87h-.88v-.07a.45.45 0 00.19 0 .16.16 0 00.07-.09 1.21 1.21 0 000-.19v-.67a2.17 2.17 0 000-.36.12.12 0 000-.08.11.11 0 00-.08 0h-.14v-.07l.52-.21zm1.82 0a.81.81 0 01.63.3 1 1 0 01.2.59 1.12 1.12 0 01-.11.47.81.81 0 01-.74.48.73.73 0 01-.62-.32.93.93 0 01-.2-.58.94.94 0 01.12-.47.81.81 0 01.31-.35.93.93 0 01.41-.12zm-.06.13a.36.36 0 00-.2.06.39.39 0 00-.16.2A1.07 1.07 0 0088 86a1.47 1.47 0 00.15.65.45.45 0 00.4.27.37.37 0 00.3-.15.84.84 0 00.12-.52 1.18 1.18 0 00-.2-.72.42.42 0 00-.37-.2zm1.85.24c.13-.12.2-.2.22-.22l.18-.11a.65.65 0 01.2 0 .42.42 0 01.28.1.46.46 0 01.15.27 1.18 1.18 0 01.33-.3.64.64 0 01.28-.07.42.42 0 01.24.07.48.48 0 01.17.23 1.34 1.34 0 010 .35v.74a.82.82 0 000 .22.18.18 0 00.08.07.23.23 0 00.16 0V87h-.85v-.07a.25.25 0 00.17 0 .18.18 0 00.06-.09 1.28 1.28 0 000-.19v-.74a.6.6 0 000-.3.25.25 0 00-.24-.12.46.46 0 00-.2 0 1.08 1.08 0 00-.24.18v.93a.55.55 0 000 .22.12.12 0 00.07.07.31.31 0 00.19 0V87h-.87v-.07a.32.32 0 00.19 0 .25.25 0 00.08-.1 1.28 1.28 0 000-.19v-.74a.67.67 0 00-.07-.31.29.29 0 00-.23-.12.36.36 0 00-.2.06.84.84 0 00-.24.18v.93a.55.55 0 000 .22.16.16 0 00.07.07.63.63 0 00.19 0V87h-.85v-.07a.45.45 0 00.16 0 .16.16 0 00.08-.08.75.75 0 000-.21v-.66a2.3 2.3 0 000-.37.12.12 0 000-.08.11.11 0 00-.08 0 .27.27 0 00-.12 0v-.07l.52-.21h.08zm3.67-1.14h.69l1.57 1.91v-1.47c0-.16 0-.26-.06-.29a.24.24 0 00-.22-.08h-.08v-.07h.89v.07h-.1a.27.27 0 00-.23.1.68.68 0 000 .27V87h-.07l-1.72-2v1.57a.52.52 0 000 .29.27.27 0 00.22.08H95V87h-.89v-.07h.09a.24.24 0 00.23-.09.55.55 0 000-.28v-1.8a.91.91 0 00-.17-.17.47.47 0 00-.33-.09zm4.13 2.3a2.52 2.52 0 01-.33.24.59.59 0 01-.22 0 .42.42 0 01-.3-.12.49.49 0 01-.11-.33.46.46 0 01.06-.22.75.75 0 01.26-.24 4 4 0 01.64-.27v-.07a.58.58 0 00-.08-.35.31.31 0 00-.24-.1.26.26 0 00-.19.07.19.19 0 00-.07.14v.11a.23.23 0 010 .14.17.17 0 01-.23 0 .19.19 0 010-.13.4.4 0 01.17-.3.75.75 0 01.46-.13.81.81 0 01.38.07.39.39 0 01.17.19 1.23 1.23 0 010 .33v.89a.11.11 0 000 .07l.16-.14v.1c-.14.19-.28.29-.41.29a.17.17 0 01-.14-.07.33.33 0 01.02-.17zm0-.12V86l-.37.16a.6.6 0 00-.21.18.31.31 0 00-.06.19.27.27 0 00.08.23.25.25 0 00.19.09.67.67 0 00.37-.19zm1.43-1.92v.57h.4v.13h-.4v1.12a.36.36 0 000 .22.14.14 0 00.12.06.16.16 0 00.12 0 .23.23 0 00.09-.11h.08a.67.67 0 01-.19.28.45.45 0 01-.25.09.34.34 0 01-.17-.05.28.28 0 01-.12-.14.84.84 0 010-.27v-1.2h-.26v-.07a.7.7 0 00.21-.14.87.87 0 00.19-.18 1.23 1.23 0 00.12-.26zm2.28.57v1a2.29 2.29 0 000 .37.16.16 0 000 .09.09.09 0 00.07 0 .5.5 0 00.13 0v.06l-.52.21h-.08v-.36a1.38 1.38 0 01-.34.3.54.54 0 01-.25.06.33.33 0 01-.25-.08.48.48 0 01-.15-.22 1.5 1.5 0 010-.37v-.77a.33.33 0 000-.17.18.18 0 00-.08-.07.63.63 0 00-.19 0v-.07h.6v1.16a.39.39 0 00.09.31.3.3 0 00.2.08.59.59 0 00.19 0 1.16 1.16 0 00.24-.2v-1a.29.29 0 000-.2.46.46 0 00-.22-.06v-.07zm1.11-.06v.39q.22-.39.45-.39a.23.23 0 01.17.07.18.18 0 010 .27.17.17 0 01-.12 0 .21.21 0 01-.14-.07.31.31 0 00-.13-.06.1.1 0 00-.07 0 .85.85 0 00-.17.25v.83a.42.42 0 000 .22.18.18 0 00.09.08.34.34 0 00.18 0V87h-.89v-.07a.45.45 0 00.2 0 .21.21 0 00.06-.1.55.55 0 000-.18v-.67a2.17 2.17 0 000-.36.14.14 0 000-.09h-.08a.31.31 0 00-.13 0v-.07l.52-.21zm1.27.71a.93.93 0 00.18.6.56.56 0 00.45.22.52.52 0 00.29-.09.75.75 0 00.21-.32h.06a.91.91 0 01-.23.47.64.64 0 01-.48.22.69.69 0 01-.53-.25 1 1 0 01-.22-.65 1 1 0 01.23-.69.76.76 0 01.57-.25.67.67 0 01.47.19.72.72 0 01.19.52zm0-.11h.8a1 1 0 000-.24.38.38 0 00-.34-.22.38.38 0 00-.28.12.48.48 0 00-.18.34zM57.79 72.32v.11h.61v4.07h-3.31v-4.07h.6v-.11h-3.72v.11h.63v9.23h-.61v.11h3.71v-.11h-.61v-4.48h3.31v4.48h-.61v.11h3.71v-.11h-.6v-9.23h.6v-.11h-3.71zm15.42 9.45l-3.31-7.88a2.57 2.57 0 00-2.37-1.57h-1.81v.11c.93 0 1.48 1.35 1.56 1.52l-2.34 7.41a.42.42 0 01-.4.3h-.78v.11h2.82v-.11h-.84a.14.14 0 01-.14-.15l.82-2.58h2.89l.5 1.26a2.57 2.57 0 002.39 1.62zM69 78.22h-2.4l1.06-3.34zm14.51-5.8v-.1h-2.88v.1h1a.15.15 0 01.14.15.07.07 0 010 .05l-1.88 4.45-2.34-3.75a2.14 2.14 0 00-1.81-1h-1.42l3.16 5.09v4.25h-1.24v.11h5.07v-.11h-1.24v-3.4l2.41-5.66a.28.28 0 01.26-.18zm13.82 8.12a1.6 1.6 0 01-1.4 1.46 1.27 1.27 0 01-.51-.08 1.23 1.23 0 01-.26-.12l-.06.1.21.1a2.12 2.12 0 00.4.14c.19.06.38.1.57.14a4.49 4.49 0 00.73.06 2.92 2.92 0 002.92-2.92v-7h1.21v-.11h-5v.11h1.22zm6.09-8.11h1.22v9.23h-1.22v.11h5.02v-.11h-1.21v-9.23h1.21v-.11h-5.02v.11zm10.87.75a2.66 2.66 0 00-2-.86H110v.1a3.74 3.74 0 011.83 1.34v7.61a.29.29 0 01-.28.29H111v.11h2.24v-.11h-.47a.29.29 0 01-.29-.29v-6.85l6.7 7.25h.4v-9.06a.29.29 0 01.29-.28h.64v-.11H118v.11h.65a.29.29 0 01.29.28v5.63zm-25.38 4.19v3.72h2.46a1.43 1.43 0 001.43-1.43v-.54h.13v2.65h-7.68v-.11h1.06v-9.23h-1.06v-.11h7.67V75h-.12v-.54A1.43 1.43 0 0091.37 73h-2.46v3.68h1.54a1 1 0 001-1v-.46h.11v3.62h-.11v-.46a1 1 0 00-1-1z" fill="#fff"/></svg>