<svg data-name="Layer 1" xmlns="http://www.w3.org/2000/svg" viewBox="0 0 158 158"><path fill="#322f31" d="M0 0h158v158H0z"/><path d="M75.73 77.1v-8.23h5.35v15.91h-5.8a.21.21 0 01-.21-.12l-4.68-8.11-.11-.17v8.39h-5.23v-15.9h5.77A.2.2 0 0171 69l4.61 8 .08.14zm25.15 4.75l3.32 2.6-3 3.12-.17-.15-3.41-3a.17.17 0 00-.2 0 11.1 11.1 0 01-4.31.64 12.12 12.12 0 01-3.38-.54 7.48 7.48 0 01-3.09-1.83 6.89 6.89 0 01-1.8-3.37 9.57 9.57 0 01.16-4.93 7.93 7.93 0 014.31-5 9.55 9.55 0 014.24-1 10.58 10.58 0 014.58.89 7 7 0 014.07 5 10.1 10.1 0 01-.21 5.45 7.2 7.2 0 01-1.11 2.12zM97 77a5.92 5.92 0 00-.34-2.19 3.26 3.26 0 00-4.11-2 3.38 3.38 0 00-2.09 2 5.38 5.38 0 000 4.13A3.11 3.11 0 0093.2 81a3.26 3.26 0 003.31-1.77A4.89 4.89 0 0097 77zm-37.26 7.77H54.2v-15.9h5.54z" fill="#fff"/></svg>