<svg data-name="Layer 1" xmlns="http://www.w3.org/2000/svg" viewBox="0 0 158 158"><path fill="#322f31" d="M0 0h158v158H0z"/><path d="M81.65 72.23a2.36 2.36 0 10-2.36-2.36 2.35 2.35 0 002.36 2.36zm-6.81 0a2.36 2.36 0 10-2.36-2.36 2.35 2.35 0 002.36 2.36zM98.1 65.8a7.9 7.9 0 00-6-2.65H69.38a10.33 10.33 0 00-9.95 8.7l-1.35 10a7.76 7.76 0 007.87 9h22.67a10.33 10.33 0 009.95-8.7l1.35-10a7.88 7.88 0 00-1.82-6.35zm-.32 6l-1.35 10a8.12 8.12 0 01-7.82 6.84H66a5.62 5.62 0 01-5.73-6.56l1.35-10a8.11 8.11 0 017.82-6.84h22.62a5.6 5.6 0 015.72 6.55zM71.7 80.51a4.91 4.91 0 01.2-1.15s.42-1.37.74-2.14a2.37 2.37 0 012.19-1.64h1.73c2.63 0 2.78 1 2.78 1.43a2.39 2.39 0 01-.12.65l-1 2.91h6.1a22 22 0 001.22-4.2 2.31 2.31 0 00-1.08-1.88 5.47 5.47 0 00-3.21-.93h-8.51c-3.86 0-5.75 1-6.74 2.42a11.44 11.44 0 00-1.36 4.84c0 2.77 1 3.76 2.36 4.52 1.5.83 4.87.75 4.87.75h17.65a1.37 1.37 0 001.33-1l.71-2.09H75.27c-3.75 0-3.57-2-3.57-2.49z" fill="#fff"/></svg>