<svg data-name="Layer 1" xmlns="http://www.w3.org/2000/svg" viewBox="0 0 158 158"><path fill="#322f31" d="M0 0h158v158H0z"/><path d="M71 72a7 7 0 11-7 6.89A7 7 0 0171 72zm4.29 7a4.29 4.29 0 00-4.38-4.3 4.3 4.3 0 10.17 8.6 4.29 4.29 0 004.19-4.3zm15-6.71h2.63v13.42h-2.63zM49 72.28h2.22c.36 0 .42.14.42.45v12.99H49zm5.39 0h2.06c.44 0 .58.09.57.55v12.89h-2.63zm5.41.01h2.56v13.42H59.8zm19.9 13.43V72.3h2.59v13.42zm5.2-13.42h2.58v13.4H84.9zm10.73 2.59v-2.58H109v2.58zM109 80.34H95.64v-2.58H109zm-13.37 5.38v-2.59H109v2.59z" fill="#f2f2f2"/></svg>