<svg data-name="Layer 1" xmlns="http://www.w3.org/2000/svg" viewBox="0 0 158 158"><path fill="#322f31" d="M0 0h158v158H0z"/><path d="M48.1 82.06a3.24 3.24 0 010-5.74 4.07 4.07 0 013.6 0A3.19 3.19 0 0153 77.5a3.33 3.33 0 010 3.38 3.19 3.19 0 01-1.26 1.18 4.07 4.07 0 01-3.6 0zm2.67-1.29a1.61 1.61 0 00.61-.63 2 2 0 00.23-1 1.92 1.92 0 00-.23-.94 1.57 1.57 0 00-.61-.64 1.76 1.76 0 00-1.74 0 1.57 1.57 0 00-.61.64 1.92 1.92 0 00-.23.94 2 2 0 00.23 1 1.61 1.61 0 00.61.63 1.76 1.76 0 001.74 0zm10.55 1.58V79l-2 3.31-2-3.22v3.26h-1.71V76h1.47l2.19 3.65 2.2-3.65H63v6.32zm24.09-1.22h-2.67l-.5 1.22h-1.83l2.8-6.35H85l2.8 6.32h-1.89zm-.52-1.32l-.82-2-.81 2zm5.77-2.36h-1.94V76h5.67v1.42h-1.94v4.9h-1.79zm9.68 3.68h-2.68l-.5 1.22h-1.82L98.13 76h1.76l2.81 6.32h-1.87zm-.53-1.32l-.81-2-.81 2zm6.95.25l-.67.71v1.58h-1.78V76h1.78v2.63l2.45-2.63h2l-2.59 2.8 2.72 3.52h-2.08zm7.5 2.29h-1.79v-5.51l1.79 1zM39 76.03v1.42h1.94v3.89l1.79 1.02v-4.91h1.94v-1.42H39zm40.17 1.1a2.2 2.2 0 00-1-.82A3.6 3.6 0 0076.7 76h-2.9v5.3l1.79 1v-1.6h1.11a3.6 3.6 0 001.49-.28 2.25 2.25 0 001-.81 2.3 2.3 0 00.34-1.24 2.28 2.28 0 00-.36-1.24zm-1.75 1.92a1.25 1.25 0 01-.83.24h-1v-1.85h1a1.25 1.25 0 01.83.24 1 1 0 010 1.37zm39.42-.86a1.34 1.34 0 01-.51-.52 1.46 1.46 0 010-1.44 1.34 1.34 0 01.51-.52 1.5 1.5 0 011.46 0 1.25 1.25 0 01.51.51 1.48 1.48 0 010 1.45 1.44 1.44 0 01-.52.52 1.48 1.48 0 01-1.45 0zm1.36-.19a1.21 1.21 0 00.45-.45 1.35 1.35 0 00.16-.64 1.23 1.23 0 00-.16-.63 1.27 1.27 0 00-.44-.45 1.35 1.35 0 00-.64-.16 1.24 1.24 0 00-.63.17 1.21 1.21 0 00-.45.45 1.32 1.32 0 000 1.26 1.21 1.21 0 00.45.45 1.18 1.18 0 00.62.17 1.25 1.25 0 00.64-.17zm-1-.35a.81.81 0 01-.31-.3.9.9 0 010-.86.81.81 0 01.31-.3.89.89 0 01.44-.1.79.79 0 01.38.08.73.73 0 01.28.24l-.24.17a.47.47 0 00-.43-.22.52.52 0 00-.38.15.61.61 0 000 .82.52.52 0 00.38.15.47.47 0 00.43-.22l.24.16a.68.68 0 01-.28.25.79.79 0 01-.38.09.9.9 0 01-.47-.08zm-4.73-1.64h1.79V77l-1.79-.99z" fill="#fff"/></svg>