<svg data-name="Layer 1" xmlns="http://www.w3.org/2000/svg" viewBox="0 0 158 158"><path fill="#322f31" d="M0 0h158v158H0z"/><path d="M94 86.06a.22.22 0 01-.22.22h-5.69a.62.62 0 01-.38-.16l-3.63-3.55c-.09-.09-.16-.06-.16.07v3.42a.22.22 0 01-.23.22h-7.77a.22.22 0 01-.22-.22v-3.42c0-.13-.08-.16-.16-.07L72 86.12a.62.62 0 01-.39.16h-7.39a.22.22 0 01-.22-.22V63.5a.23.23 0 01.22-.23h7.38a.68.68 0 01.39.16L75.54 67c.08.09.16.06.16-.06V63.5a.23.23 0 01.22-.23h7.77a.23.23 0 01.23.23v3.42c0 .12.07.15.16.06l3.63-3.55a.68.68 0 01.38-.16h5.69a.23.23 0 01.22.23v5.39a.62.62 0 01-.16.38l-5.43 5.35a.22.22 0 000 .32l5.43 5.35a.59.59 0 01.16.38zm-5-3.66a.58.58 0 00.36.15h.83a.21.21 0 00.21-.21v-.85a.58.58 0 00-.15-.36L84 74.93a.2.2 0 010-.3l6.2-6.21a.58.58 0 00.15-.35v-.85a.21.21 0 00-.21-.21h-.83a.58.58 0 00-.36.15l-7.47 7.47a.22.22 0 000 .3zm-10.09.49a.22.22 0 00.22.23h1.45a.22.22 0 00.22-.23V66.66a.22.22 0 00-.22-.22h-1.5a.22.22 0 00-.22.22zm-11.51-.55a.22.22 0 00.21.21h2.71a.58.58 0 00.35-.15l7.48-7.47a.22.22 0 000-.3l-7.48-7.47a.53.53 0 00-.35-.15h-2.71a.21.21 0 00-.21.21zm-.66 9.54a.62.62 0 01-.1.35l-.19.3a.32.32 0 01-.29.16h-1.85c-.14 0-.19-.06-.19-.19v-3.61c0-.13 0-.19.19-.19h1.86a.28.28 0 01.28.16l.2.32a.73.73 0 01.09.35zm-.85.3c.24 0 .32-.17.33-.41v-2.14c0-.13-.07-.42-.33-.42h-1.07c-.13 0-.18.05-.18.18V92c0 .13 0 .19.18.19zM70 88.7a.17.17 0 01.19.19v3a.64.64 0 01-.1.35l-.17.28a.32.32 0 01-.29.16H68.1a.33.33 0 01-.29-.16l-.17-.28a.6.6 0 01-.1-.35v-3a.17.17 0 01.19-.19h.14a.17.17 0 01.19.19v2.87c0 .22.09.41.34.42h.91c.24 0 .33-.2.33-.42v-2.87a.17.17 0 01.19-.19zm-1.3 1.89c-.13 0-.19-.06-.19-.18v-.32c0-.13.06-.18.19-.18h.3c.12 0 .18 0 .18.18v.32a.16.16 0 01-.18.18zm0-1.21c-.13 0-.19 0-.19-.18v-.32c0-.12.06-.18.19-.18h.3a.16.16 0 01.18.18v.32c0 .13-.06.18-.18.18zm4.3 2.81a.32.32 0 00-.29-.16h-1a.17.17 0 00-.19.19v.28c0 .13 0 .19-.18.19h-.15a.17.17 0 01-.19-.19v-3.61a.17.17 0 01.19-.19h1.8a.3.3 0 01.29.16l.17.25a.58.58 0 01.11.35v1.8a.53.53 0 01-.11.34.27.27 0 000 .32l.28.42c.08.12.06.19-.05.26l-.12.08a.18.18 0 01-.27-.07zm-.3-.68c.24 0 .32-.09.32-.39v-1.5c0-.23-.11-.41-.34-.41h-1c-.13 0-.19.05-.19.18v1.93c0 .14.06.19.19.19zM77 89a.17.17 0 01-.19.19h-1.68c-.13 0-.19.05-.19.18v1c0 .14.06.19.19.19h1.72a.17.17 0 01.19.19v.14a.17.17 0 01-.19.19h-1.72c-.13 0-.19 0-.19.18V92a.17.17 0 00.19.19h1.72a.17.17 0 01.19.19v.13a.17.17 0 01-.19.19h-2.24a.17.17 0 01-.19-.19v-3.62a.17.17 0 01.19-.19h2.24a.17.17 0 01.19.19zm2.81 3.19a.32.32 0 00-.29-.16h-1a.17.17 0 00-.19.19v.28c0 .13 0 .19-.18.19H78a.17.17 0 01-.19-.19v-3.61a.17.17 0 01.19-.19h1.8a.3.3 0 01.29.16l.18.25a.64.64 0 01.1.35v1.8a.59.59 0 01-.1.34.26.26 0 000 .32l.27.42c.08.12.06.19 0 .26l-.12.08c-.12.06-.19 0-.26-.07zm-.3-.68c.24 0 .32-.09.32-.39v-1.5c0-.23-.1-.41-.34-.41h-1c-.13 0-.19.05-.19.18v1.93c0 .14.06.19.19.19zm3.41.2a.2.2 0 000 .2l.39.58v.15h-.22l-.38-.57a.17.17 0 00-.16-.1h-.84a.1.1 0 00-.11.11v.49a.1.1 0 01-.11.11h-.09a.1.1 0 01-.11-.11v-3.76c0-.08 0-.11.11-.11h.09a.1.1 0 01.11.11v2.77a.1.1 0 00.11.11h.83a.13.13 0 00.14-.1l.92-2.83c0-.08.06-.1.13-.08h.08a.09.09 0 01.07.13zm4.28-2.83c0 .07 0 .1-.11.1h-2a.1.1 0 00-.11.11v1.45a.1.1 0 00.11.11h2c.07 0 .11 0 .11.1v.08a.1.1 0 01-.11.11h-2a.1.1 0 00-.11.11v1.24a.1.1 0 00.11.11h2a.1.1 0 01.11.11v.07a.1.1 0 01-.11.11h-2.32a.1.1 0 01-.11-.11v-3.77a.1.1 0 01.11-.11h2.32a.1.1 0 01.11.11zm2.8 3.2a.19.19 0 00-.17-.09h-1.4a.1.1 0 00-.11.11v.48a.1.1 0 01-.11.11h-.08a.1.1 0 01-.11-.11v-3.77c0-.08 0-.11.11-.11H90a.2.2 0 01.17.09l.22.34a.36.36 0 01.06.2v2a.33.33 0 01-.06.19l-.12.22a.15.15 0 000 .18c.09.15.28.42.37.57s0 .11 0 .15h-.21zm-.17-.39a.19.19 0 00.17-.09l.08-.12a.36.36 0 00.06-.2V89.4a.33.33 0 00-.06-.19 1.21 1.21 0 00-.1-.14.19.19 0 00-.17-.09h-1.38a.1.1 0 00-.11.11v2.49a.1.1 0 00.11.11zM92.71 89a.1.1 0 00-.11.11v3.49c0 .07 0 .11-.1.11h-.08a.1.1 0 01-.11-.11v-3.51a.1.1 0 00-.11-.09h-.91c-.07 0-.1 0-.1-.1v-.07c0-.08 0-.11.1-.11h2.32c.08 0 .11 0 .11.11v.07c0 .07 0 .1-.11.1z" fill="#fff"/></svg>