<svg id="Layer_1" data-name="Layer 1" xmlns="http://www.w3.org/2000/svg" viewBox="0 0 158 158"><defs><style>.cls-2{fill:#fff;fill-rule:evenodd}</style></defs><path fill="#322f31" d="M0 0h158v158H0z"/><path class="cls-2" d="M58 81.38h4.19v-4.19H58v4.19z"/><path class="cls-2" d="M68.08 68.64c3.41.06 5.44 2.33 5.74 6.49l1.1-.18-.21-7.3h-16.5L58 75l1.11.18c.3-4.16 2.3-6.43 5.74-6.49v15.23c0 2.78-.48 3.23-3.47 3.26v1.17h10.16v-1.17c-3 0-3.46-.48-3.46-3.26V68.64z"/><path class="cls-2" d="M70.7 81.38h4.19v-4.19H70.7v4.19zm12.56 0h4.18v-4.19h-4.18v4.19zm12.55 0H100v-4.19h-4.19v4.19z"/></svg>