<svg data-name="Layer 1" xmlns="http://www.w3.org/2000/svg" viewBox="0 0 158 158"><path fill="#322f31" d="M0 0h158v158H0z"/><path d="M42.79 77.39l3.93-1.46L39 82.62l3.79-5.23zM39 82.86l9.62-7.59 11.97-.45L39 82.86zm0 .23l16.43-2.66 5.35-4.9L39 83.09zm0 .19l20.23-.14-3.8-1.96L39 83.28zm23.41-.45l1-7.88a.21.21 0 01.06-.1.13.13 0 01.1 0h1.32a.1.1 0 01.09 0 .12.12 0 010 .1l-.38 3.1 2.42-3.17a.2.2 0 01.17-.09h1.46c.07 0 .1 0 .1.07a.23.23 0 010 .09l-2.51 3.35v.08l1.68 4.41a.11.11 0 010 .06c0 .07 0 .1-.13.1h-1.43a.14.14 0 01-.14-.1L65 79.67h-.08l-.61.76a.25.25 0 000 .07L64 82.83a.31.31 0 01-.05.1.13.13 0 01-.1 0h-1.31c-.09.07-.13 0-.13-.1zm10.64.03l-.12-1.15h-2.22l-.4 1.15a.18.18 0 01-.18.11h-1.36c-.1 0-.14 0-.11-.15l3-7.9a.19.19 0 01.18-.11h1.64c.09 0 .14 0 .14.11l1.08 7.9c0 .07 0 .11-.13.11h-1.38c-.09.07-.13 0-.14-.07zm-1.85-2.48h1.5a.07.07 0 00.07-.07L72.44 77l-1.24 3.33v.05zm5.03 2.54a.12.12 0 010-.1l.37-3v-.07L75.21 75c0-.07 0-.11.13-.11h1.43c.09 0 .13 0 .14.11l.69 3 1.41-3a.18.18 0 01.17-.11h1.43a.11.11 0 01.1 0 .18.18 0 010 .12l-2.56 4.8v.07l-.36 3a.31.31 0 010 .1.13.13 0 01-.1 0h-1.36a.13.13 0 01-.1-.06zm7.51-.06l-.12-1.15h-2.17a.05.05 0 00-.06 0L81 82.86a.18.18 0 01-.17.11h-1.38c-.1 0-.13 0-.1-.15l3-7.9a.18.18 0 01.17-.11h1.65a.13.13 0 01.14.11l1.07 7.9c0 .07 0 .11-.13.11h-1.37c-.09.07-.14 0-.14-.07zm-1.86-2.48a.06.06 0 00.05 0h1.49a.06.06 0 00.07-.07L83.13 77l-1.19 3.32-.06.06zm4.42 2.45l1-7.88a.21.21 0 01.06-.1.13.13 0 01.1 0h1.32a.1.1 0 01.09 0 .1.1 0 010 .1l-.38 3.1L91 74.9a.2.2 0 01.17-.09h1.43c.07 0 .11 0 .11.07a.31.31 0 010 .09l-2.51 3.35v.08l1.68 4.41a.11.11 0 010 .06c0 .07 0 .1-.13.1h-1.49a.13.13 0 01-.14-.1l-1.22-3.2h-.08l-.61.76a.25.25 0 000 .07l-.29 2.33a.31.31 0 01-.05.1.13.13 0 01-.1 0h-1.34c-.09.07-.13 0-.13-.1zm11.99-6.65a.13.13 0 01-.1 0h-3a.07.07 0 00-.07.06l-.22 1.82v.06h1.9c.09 0 .13 0 .13.14l-.14 1.13a.31.31 0 01-.05.1.18.18 0 01-.1 0h-1.93l-.4 3.2a.14.14 0 01-.05.1.13.13 0 01-.1 0h-1.34c-.08 0-.12 0-.12-.14l1-7.88a.21.21 0 01.06-.1.15.15 0 01.11 0h4.54a.11.11 0 01.09 0 .12.12 0 010 .1l-.14 1.13a.19.19 0 01-.07.28zm.07 6.65l1-7.88a.21.21 0 01.06-.1.13.13 0 01.1 0h1.32a.13.13 0 01.1 0 .12.12 0 010 .1l-1 7.88a.19.19 0 010 .1.13.13 0 01-.1 0h-1.35c-.08.07-.13 0-.13-.1zm6.42.03l-.78-3.22a.06.06 0 00-.06 0h-.71a.05.05 0 00-.06.06l-.39 3.18a.21.21 0 01-.06.1.12.12 0 01-.1 0h-1.31c-.09 0-.13 0-.13-.14l1-7.89a.1.1 0 010-.1.13.13 0 01.1 0h2.75a1.9 1.9 0 011.46.56 2.05 2.05 0 01.54 1.49 2.15 2.15 0 010 .41 2.68 2.68 0 01-.47 1.3 2.38 2.38 0 01-1 .82.05.05 0 000 .08l.87 3.35c0 .07 0 .11-.14.11h-1.37c-.09.03-.13-.04-.14-.11zm-1.17-6.58l-.24 2v.06h1a1 1 0 00.77-.35 1.24 1.24 0 00.31-.89.93.93 0 00-.22-.63.81.81 0 00-.6-.23h-1l-.02.04zm4.32 6.25a1.8 1.8 0 01-.62-1.42v-.64a.16.16 0 010-.1.13.13 0 01.1 0h1.31a.11.11 0 01.11.14v.23a.82.82 0 00.21.68 1 1 0 00.73.27 1 1 0 00.75-.26.9.9 0 00.27-.66.71.71 0 00-.27-.56 6.56 6.56 0 00-1-.63 9.29 9.29 0 01-1-.6 2.25 2.25 0 01-.63-.67 1.87 1.87 0 01-.26-1 2.52 2.52 0 01.36-1.35 2.39 2.39 0 011-.9 3.11 3.11 0 011.41-.32 2.46 2.46 0 011.69.56 1.88 1.88 0 01.63 1.49 2.28 2.28 0 010 .32v.24a.27.27 0 01-.06.1.15.15 0 01-.1 0h-1.3a.13.13 0 01-.09 0 .1.1 0 010-.1V77a.79.79 0 00-.25-.6 1 1 0 00-.69-.24 1 1 0 00-.71.25.89.89 0 00-.27.69.71.71 0 00.27.56 5.21 5.21 0 001 .63l.25.15a9.05 9.05 0 01.87.59 2.22 2.22 0 01.53.61 1.64 1.64 0 01.21.84 2.85 2.85 0 01-.93 2 3 3 0 01-1.93.63 2.5 2.5 0 01-1.59-.58zM119 74.85a.12.12 0 010 .1l-.14 1.14a.21.21 0 01-.06.1.11.11 0 01-.09 0H117a.07.07 0 00-.06.06l-.8 6.54a.21.21 0 01-.06.1.12.12 0 01-.1 0h-1.31c-.09 0-.13 0-.13-.14l.8-6.54v-.06h-1.67a.13.13 0 01-.1 0 .12.12 0 010-.1l.14-1.14a.31.31 0 01.05-.1.13.13 0 01.1 0h5.1a.1.1 0 01.04.04z" fill="#fff"/></svg>