<?xml version="1.0" encoding="utf-8"?>
<!-- Generator: Adobe Illustrator 21.0.2, SVG Export Plug-In . SVG Version: 6.00 Build 0)  -->
<svg version="1.1" id="Layer_1" xmlns="http://www.w3.org/2000/svg" xmlns:xlink="http://www.w3.org/1999/xlink" x="0px" y="0px"
	 viewBox="0 0 617.3 407.2" style="enable-background:new 0 0 617.3 407.2;" xml:space="preserve">
<path d="M341.3,144.9c16.1,0,29.1-13,29.1-29.1c0-16.1-13-29.1-29.1-29.1c-16.1,0-29.1,13-29.1,29.1
	C312.1,131.9,325.2,144.9,341.3,144.9z M257.4,144.9c16.1,0,29.1-13,29.1-29.1c0-16.1-13-29.1-29.1-29.1s-29.1,13-29.1,29.1
	C228.3,131.9,241.3,144.9,257.4,144.9z M544,65.6c-18.4-21.1-44.9-32.7-74.5-32.7H190.1C130.4,32.9,75.4,81,67.4,140.2L50.8,263.5
	c-3.9,29.3,4,57.1,22.5,78.2c18.4,21.1,44.9,32.7,74.5,32.7h279.4c59.7,0,114.7-48.1,122.7-107.3l16.6-123.3
	C570.4,114.4,562.4,86.6,544,65.6z M540.1,140.2l-16.6,123.3c-6.3,46.5-49.5,84.3-96.4,84.3H147.8c-21.8,0-41.2-8.4-54.5-23.6
	c-13.3-15.2-19-35.5-16.1-57.2l16.6-123.3c6.3-46.5,49.5-84.3,96.4-84.3h279.4c21.8,0,41.2,8.4,54.5,23.6
	C537.3,98.2,543.1,118.5,540.1,140.2z M218.7,246.9c0-6,2.5-14.2,2.5-14.2s5.1-16.9,9-26.4c8.4-21,27.1-20.1,27.1-20.1h21.3
	c32.4,0,34.2,12.6,34.2,17.6c0,3.7-1.4,8-1.4,8l-13,35.9h75.2c2.5-5.7,15-41.8,15-51.8c0-7.2-2.7-14.9-13.3-23.2
	c-16.1-12.6-39.5-11.5-39.5-11.5h-61l-43.3-0.1c-47.6,0-70.9,12.9-83.1,29.8c-5.7,7.8-16.7,38.8-16.7,59.7c0,34.1,12.4,46.4,29,55.7
	c18.5,10.2,60.1,9.2,60.1,9.2s204.4,0,217.5,0c13.1,0,16.4-11.7,16.4-11.7l8.8-26.4H262.7C216.5,277.1,218.7,252.9,218.7,246.9z"/>
</svg>
