<?xml version="1.0" encoding="UTF-8"?>
<svg width="228px" height="35px" viewBox="0 0 228 35" version="1.1" xmlns="http://www.w3.org/2000/svg" xmlns:xlink="http://www.w3.org/1999/xlink">
    <!-- Generator: Sketch 56.3 (81716) - https://sketch.com -->
    <title>Group 3</title>
    <desc>Created with Sketch.</desc>
    <defs>
        <polygon id="path-1" points="0 2.84217094e-14 228 2.84217094e-14 228 35 0 35"></polygon>
    </defs>
    <g id="Welcome" stroke="none" stroke-width="1" fill="none" fill-rule="evenodd">
        <g id="Desktop-HD" transform="translate(-74.000000, -27.000000)">
            <g id="Group-3" transform="translate(188.000000, 44.500000) rotate(-360.000000) translate(-188.000000, -44.500000) translate(74.000000, 27.000000)">
                <mask id="mask-2" fill="white">
                    <use xlink:href="#path-1"></use>
                </mask>
                <g id="Clip-2"></g>
                <path d="M213.980799,9.69945323 L217.238576,9.69945323 L217.238576,9.06530311 L217.238576,9.03987039 L217.238576,8.5883355 L213.980799,8.5883355 L213.980799,9.69945323 Z M219.419499,11.7790987 L220.423083,11.7790987 L220.423083,10.7680441 L219.419499,10.7680441 L219.419499,11.7790987 Z M217.283794,8.53455156 L220.426433,8.53455156 L220.426433,7.54809582 L217.283794,7.54809582 L217.283794,8.53455156 Z M217.232715,10.7321882 L216.146649,10.7321882 L216.146649,10.7421945 L216.140788,10.7421945 L216.140788,11.7970267 L217.235227,11.7970267 C217.235227,11.5564582 217.238157,11.3421564 217.232715,11.1328576 L217.232715,10.7321882 Z M216.173864,6.39987135 L217.247787,6.39987135 L217.247787,5.35087615 L216.173864,5.35087615 L216.173864,6.39987135 Z M187.28386,34.4042074 L190.760608,34.4042074 L190.760608,14.41201 L187.28386,14.41201 L187.28386,34.4042074 Z M216.140369,11.7957759 L215.053885,11.7957759 L215.053885,12.8551943 C215.048024,12.8556113 215.042162,12.8560282 215.036301,12.8564451 L213.980799,12.8564451 L213.980799,13.9166974 L214.038159,13.9166974 L214.038159,13.9183652 L215.056397,13.9183652 L215.056397,13.9166974 L215.066865,13.9166974 L215.066865,12.8564451 L216.140369,12.8564451 L216.140369,11.8103684 L216.140788,11.8103684 L216.140369,11.8099515 L216.140369,11.8099515 L216.140788,11.8099515 L216.140788,11.7970267 L216.140369,11.7970267 L216.140369,11.7957759 Z M187.208916,10.7263512 L190.835553,10.7263512 L190.835553,6.70506391 L187.208916,6.70506391 L187.208916,10.7263512 Z M179.597248,27.5352901 C179.360274,28.4662942 178.986389,29.2726363 178.476014,29.9551503 C177.964801,30.6384981 177.322541,31.1717512 176.550488,31.5561604 C175.777598,31.9414035 174.855238,32.1331912 173.783827,32.1331912 C172.861467,32.1331912 172.051314,31.9414035 171.353788,31.5561604 C170.655842,31.1717512 170.076384,30.6384981 169.615413,29.9551503 C169.154024,29.2726363 168.805261,28.4662942 168.568705,27.5352901 C168.331311,26.604703 168.213242,25.5936484 168.213242,24.5012925 C168.213242,23.4093535 168.331311,22.3916281 168.568705,21.448533 C168.805261,20.505438 169.154024,19.6928419 169.615413,19.009911 C170.076384,18.327397 170.655842,17.7941439 171.353788,17.4089009 C172.051314,17.0240747 172.861467,16.8314532 173.783827,16.8314532 C174.780713,16.8314532 175.665391,17.0182377 176.438281,17.390139 C177.210752,17.7624573 177.859293,18.2898734 178.382647,18.9723873 C178.906002,19.6553182 179.298308,20.4679143 179.559986,21.4110093 C179.822082,22.3549382 179.952711,23.3839208 179.952711,24.5012925 C179.952711,25.5936484 179.834223,26.604703 179.597248,27.5352901 L179.597248,27.5352901 Z M179.765559,13.7791106 C179.765559,14.4491167 179.771421,15.1191228 179.7844,15.7891289 C179.796961,16.4595519 179.827524,17.0182377 179.877766,17.4647694 L179.803241,17.4647694 C179.1547,16.3978463 178.288862,15.5418895 177.204891,14.8960654 C176.1205,14.2506582 174.868218,13.9279545 173.447205,13.9279545 C172.200784,13.9279545 171.041868,14.1701907 169.970457,14.6538292 C168.898627,15.1378846 167.970406,15.8329065 167.185374,16.7388948 C166.399924,17.6453 165.783203,18.748913 165.334793,20.0522353 C164.885964,21.3551407 164.661968,22.8256519 164.661968,24.4637688 C164.661968,26.0772869 164.867123,27.5352901 165.278689,28.8381955 C165.689836,30.1411009 166.281436,31.2463816 167.054326,32.151953 C167.826797,33.0579413 168.761299,33.7592171 169.85825,34.2549466 C170.954782,34.7515099 172.176501,35 173.52215,35 C174.942743,35 176.170323,34.6956413 177.204891,34.0877578 C178.23862,33.4798742 179.080174,32.6297545 179.728296,31.5373986 L179.803241,31.5373986 L179.803241,34.4042074 L183.242726,34.4042074 L183.242726,6.70506391 L179.765559,6.70506391 L179.765559,13.7791106 Z M210.856164,25.7754297 L211.953115,25.7754297 L211.953115,22.587585 L210.856164,22.587585 L210.856164,25.7754297 Z M209.696829,28.0447783 L210.909755,28.0447783 L210.909755,26.8369328 L209.696829,26.8369328 L209.696829,28.0447783 Z M209.790195,21.4802197 L210.836486,21.4802197 L210.836486,20.4258044 L209.790195,20.4258044 L209.790195,21.4802197 Z M208.710829,29.6841459 L208.710829,30.158612 L207.497903,30.158612 L207.497903,28.9507666 L208.710829,28.9507666 L208.710829,29.0441588 L208.736788,29.0441588 C208.714179,29.2522067 208.730926,29.4873551 208.710829,29.6841459 L208.710829,29.6841459 Z M214.126083,18.2323371 L212.968841,18.2323371 L212.968841,16.1376821 L210.822669,16.1376821 L210.822669,15.0453262 L208.668961,15.0453262 L208.668961,11.8116192 L205.391506,11.8116192 C205.391506,11.61733 205.392762,11.456812 205.391087,11.296711 C205.381457,10.3815503 205.431281,9.45888477 205.421232,8.54414095 L204.379548,8.54414095 L204.379548,11.8291303 L201.128051,11.8291303 L201.128051,15.0715928 L198.983135,15.0715928 L198.983135,16.162281 L196.798026,16.162281 L196.798026,18.2677761 L195.742943,18.2677761 L195.742943,18.3073844 L195.73122,18.3073844 L195.73122,20.4378953 L194.685348,20.4378953 L194.685348,27.9493013 L195.73122,27.9493013 L195.73122,30.0935709 L196.741085,30.0935709 L196.741085,32.3203926 L198.929544,32.3203926 L198.929544,33.2784971 L199.009512,33.2784971 L199.009512,33.2918389 L201.153591,33.2918389 L201.153591,34.4037905 L208.782005,34.4037905 L208.782005,33.2784971 L211.018613,33.2784971 L211.018613,32.2566024 L212.967166,32.2566024 L212.967166,32.25285 L213.0329,32.25285 L213.0329,30.259509 C213.039599,30.2428318 213.046716,30.2274054 213.054671,30.2132298 L214.096356,30.2132298 L214.096356,27.9997498 L215.128411,27.9997498 L215.128411,27.9488844 L215.130086,27.9488844 L215.130086,20.4166319 L214.126083,20.4166319 L214.126083,18.2323371 Z M223.825306,4.20181781 L224.911371,4.20181781 L224.911371,3.14114858 L223.825306,3.14114858 L223.825306,4.20181781 Z M227.001021,7.48555636 L228,7.48555636 L228,6.45865844 L227.001021,6.45865844 L227.001021,7.48555636 Z M224.911371,3.14156551 L225.997436,3.14156551 L225.997436,2.08131321 L224.911371,2.08131321 L224.911371,3.14156551 Z M222.739241,5.26207012 L223.825306,5.26207012 L223.825306,4.20181781 L222.739241,4.20181781 L222.739241,5.26207012 Z M222.739241,11.7961928 L223.825306,11.7961928 L223.825306,10.7355236 L222.739241,10.7355236 L222.739241,11.7961928 Z M222.670158,7.47721777 L223.686303,7.47721777 L223.686303,6.45990923 L222.670158,6.45990923 L222.670158,7.47721777 Z M224.845219,7.48680715 L225.802749,7.48680715 L225.802749,6.45782458 L224.845219,6.45782458 L224.845219,7.48680715 Z M219.434572,16.0876505 L220.427689,16.0876505 L220.427689,15.0774298 L219.434572,15.0774298 L219.434572,16.0876505 Z M219.426617,13.9246191 L220.422246,13.9246191 L220.422246,12.9110629 L219.426617,12.9110629 L219.426617,13.9246191 Z M224.911371,11.7957759 L223.825306,11.7957759 L223.825306,12.8564451 L224.910953,12.8564451 L224.910953,13.9166974 L225.997436,13.9166974 L225.997436,12.8564451 L224.911371,12.8564451 L224.911371,11.7957759 Z M211.897849,7.49848118 L211.909572,7.49848118 L211.909572,7.48555636 L211.909572,7.48513943 L211.909572,6.3740217 L206.449938,6.3740217 L206.449938,7.48513943 L211.897011,7.48513943 C211.897011,7.48972566 211.89743,7.49389496 211.897849,7.49848118 L211.897849,7.49848118 Z M213.933069,8.54414095 L213.933069,7.49848118 L211.909572,7.49848118 C211.909153,7.84119742 211.909153,8.18349673 211.909153,8.54414095 L213.933069,8.54414095 Z M9.90730933,13.9279545 C8.43647395,13.9279545 7.18419139,14.2256424 6.15004297,14.821435 C5.11547587,15.4172275 4.22451723,16.2490023 3.47674837,17.3159255 L3.36495986,17.3159255 C3.3892435,16.8193622 3.41436452,16.2610933 3.43948553,15.6402849 C3.46418786,15.0203104 3.47674837,14.4620415 3.47674837,13.9650613 L3.47674837,6.70506391 L0,6.70506391 L0,34.4042074 L3.47674837,34.4042074 L3.47674837,22.2302762 C3.47674837,21.4360251 3.60779633,20.7038965 3.86947356,20.0334735 C4.13115079,19.3634674 4.49875497,18.7931076 4.97228609,18.3211431 C5.44539852,17.8500125 6.01271476,17.4835313 6.67339743,17.2229502 C7.33366142,16.9619522 8.05002901,16.8314532 8.82333757,16.8314532 C10.1936889,16.8314532 11.2717991,17.1795895 12.0568308,17.8741944 C12.8422812,18.5692163 13.2345877,19.5623429 13.2345877,20.8527404 L13.2345877,34.4042074 L16.6740732,34.4042074 L16.6740732,20.4433154 C16.6740732,18.333651 16.0757744,16.7201329 14.8795954,15.6031782 C13.6834165,14.4862235 12.0254295,13.9279545 9.90730933,13.9279545 L9.90730933,13.9279545 Z M211.847607,4.25393403 L212.92153,4.25393403 L212.92153,3.20535576 L211.847607,3.20535576 L211.847607,4.25393403 Z M205.41872,8.54330709 L206.449938,8.54330709 L206.449938,7.48513943 L205.41872,7.48513943 L205.41872,8.54330709 Z M218.362742,5.31126782 L219.357952,5.31126782 L219.357952,4.30980261 L218.362742,4.30980261 L218.362742,5.31126782 Z M33.2476624,27.0324729 C33.2476624,27.6036666 33.1291749,28.1994592 32.8922,28.8194337 C32.6552251,29.440659 32.2943199,30.0051818 31.8082282,30.5138361 C31.3221366,31.0229073 30.7112773,31.4444233 29.9764876,31.7796348 C29.2408606,32.1148463 28.3746043,32.2820351 27.3781374,32.2820351 C26.8790666,32.2820351 26.3871134,32.2390913 25.9014404,32.151953 C25.4153488,32.0652316 24.9853608,31.8976259 24.6114763,31.6491358 C24.2375919,31.4014795 23.9386518,31.072105 23.7142374,30.66268 C23.4898231,30.253255 23.3776159,29.7258389 23.3776159,29.0800148 C23.3776159,28.3858268 23.5086638,27.820887 23.770341,27.3864462 C24.0320183,26.9524224 24.3992038,26.592612 24.8731536,26.3065982 C25.346266,26.0214183 25.9198625,25.7983609 26.5931057,25.6365921 C27.2659302,25.4756573 28.013699,25.3201425 28.8359936,25.1708816 C29.6587068,25.0224546 30.4747211,24.83025 31.2848738,24.5942678 C32.0946078,24.3587025 32.7485915,24.0793596 33.2476624,23.756656 L33.2476624,27.0324729 Z M36.8366179,31.5749223 C36.5623802,31.1780052 36.4254707,30.5822126 36.4254707,29.7879615 L36.4254707,20.4433154 C36.4254707,19.1028863 36.1884958,17.9859316 35.7149646,17.0924512 C35.2414335,16.1989708 34.5807508,15.5043658 33.733754,15.0073856 C33.0852131,14.6354843 32.3504235,14.3628123 31.5277102,14.1885356 C30.7054157,14.0155098 29.8203186,13.9279545 28.8732564,13.9279545 C27.5276074,13.9279545 26.3498505,14.1018142 25.3404044,14.4491167 C24.3309583,14.797253 23.4898231,15.2679667 22.8169986,15.8637593 C22.1441741,16.4595519 21.6325427,17.1424828 21.284198,17.9113012 C20.9345972,18.6809535 20.7478643,19.4881294 20.723162,20.3315783 L24.0881219,20.3315783 C24.1375265,19.14041 24.5553727,18.197315 25.3404044,17.5018762 C26.1254361,16.8072713 27.3153348,16.4595519 28.9109379,16.4595519 C30.3064103,16.4595519 31.37196,16.7701645 32.1071683,17.390139 C32.8423767,18.0109474 33.2103995,18.867321 33.2103995,19.9588431 C33.2103995,20.4800052 33.0981923,20.902772 32.8737779,21.2250587 C32.6493635,21.5477623 32.3253024,21.8150142 31.9015947,22.0251468 C31.4778869,22.2365302 30.9670929,22.4041359 30.3687941,22.5279641 C29.7704953,22.6522091 29.0976708,22.7514384 28.3499019,22.8256519 C27.0536576,22.9749127 25.8763194,23.1733713 24.81705,23.4214445 C23.7573619,23.6699346 22.8479811,24.0172371 22.0876518,24.4637688 C21.3273224,24.9103005 20.7420028,25.5060931 20.3308555,26.2507296 C19.9197082,26.9953661 19.7137159,27.9509691 19.7137159,29.1175384 C19.7137159,30.0856493 19.8878883,30.9232611 20.2370704,31.6307909 C20.5858338,32.3379037 21.0656452,32.9278592 21.6765045,33.3989898 C22.2869452,33.8709543 23.009593,34.2245107 23.8448667,34.460076 C24.6797218,34.6956413 25.5706804,34.8136324 26.5181613,34.8136324 C27.3651582,34.8136324 28.1313491,34.7206571 28.8175715,34.5342895 C29.5025378,34.3483388 30.1192587,34.1002656 30.6677342,33.789653 C31.215791,33.4798742 31.7018826,33.1259009 32.1260091,32.7285668 C32.5497168,32.3320667 32.9236013,31.9097168 33.2476624,31.4627682 L33.2849252,31.4627682 C33.4842186,32.5305252 33.858103,33.3185224 34.4065785,33.8271767 C34.9546353,34.3362479 35.764788,34.5901581 36.8366179,34.5901581 C37.2603257,34.5901581 37.6153694,34.5588883 37.9021676,34.4975997 C38.1885472,34.4350602 38.4565047,34.3671007 38.7060401,34.2924702 L38.7060401,31.8726101 L38.55657,31.8726101 C37.6836148,32.0714856 37.1108557,31.9722563 36.8366179,31.5749223 L36.8366179,31.5749223 Z M214.029367,5.30459695 L215.056397,5.30459695 L215.056397,4.30938568 L214.029367,4.30938568 L214.029367,5.30459695 Z M216.170514,0.984788021 L217.170331,0.984788021 L217.170331,2.84217094e-14 L216.170514,2.84217094e-14 L216.170514,0.984788021 Z M217.292168,3.15490726 L218.291984,3.15490726 L218.291984,2.17011924 L217.292168,2.17011924 L217.292168,3.15490726 Z M51.1924402,14.1514289 C49.8467912,14.1514289 48.6748959,14.5049853 47.678429,15.212515 C46.6811247,15.9196279 45.870972,16.8568859 45.2483895,18.0230383 L45.1361823,18.0230383 L45.1361823,14.41201 L41.6966968,14.41201 L41.6966968,34.4042074 L45.1734452,34.4042074 L45.1734452,23.5331817 C45.1734452,22.5900866 45.3287768,21.7462208 45.640696,21.0011674 C45.9521966,20.2569478 46.3696241,19.6240485 46.8933973,19.1028863 C47.4167518,18.5817242 48.0271924,18.1785531 48.7251379,17.8925393 C49.4226647,17.6077763 50.1582918,17.4647694 50.930763,17.4647694 C51.2301217,17.4647694 51.4788198,17.4772773 51.6789505,17.5018762 C51.8778252,17.526892 52.1022396,17.5765066 52.3513563,17.6507201 L52.4639822,17.6507201 L52.4639822,14.3749032 C52.2642701,14.3002728 52.071257,14.2444042 51.8845241,14.2072975 C51.6973726,14.1701907 51.4666779,14.1514289 51.1924402,14.1514289 L51.1924402,14.1514289 Z M129.070515,24.2407114 C128.38513,23.7937627 127.593818,23.4464603 126.696579,23.1979701 C125.79934,22.9503139 124.851859,22.7268396 123.855393,22.5279641 C123.007558,22.3549382 122.253509,22.1927526 121.593245,22.0439087 C120.932563,21.8950647 120.371945,21.7091141 119.910975,21.4856397 C119.449585,21.2621654 119.100822,20.9828225 118.864266,20.6480279 C118.626872,20.3128164 118.509222,19.8846296 118.509222,19.3634674 C118.509222,18.5942321 118.814024,17.9367339 119.424883,17.390139 C120.035324,16.8447949 121.026348,16.5708721 122.397118,16.5708721 C123.842413,16.5708721 124.933084,16.8447949 125.668711,17.390139 C126.403501,17.9367339 126.846049,18.7305681 126.995938,19.7728924 L130.472686,19.7728924 C130.248272,18.0359632 129.487524,16.6334116 128.192117,15.5660714 C126.895873,14.4991483 124.989188,13.9650613 122.472062,13.9650613 C120.129109,13.9650613 118.31579,14.4678785 117.032106,15.4730961 C115.748423,16.4783137 115.106999,17.8370877 115.106999,19.5494181 C115.106999,20.6421909 115.312573,21.5356713 115.72372,22.2302762 C116.134868,22.9252981 116.682924,23.4839839 117.368728,23.9054999 C118.054113,24.3278497 118.851287,24.6630612 119.761505,24.9103005 C120.670885,25.1587907 121.612086,25.382265 122.584269,25.5807236 C124.353626,25.9288599 125.668711,26.319523 126.528268,26.7535469 C127.388245,27.1879877 127.818233,27.9509691 127.818233,29.043325 C127.818233,29.9363884 127.463189,30.6876958 126.752683,31.2955794 C126.042177,31.9038798 124.889122,32.2074047 123.294357,32.2074047 C122.57129,32.2074047 121.898466,32.1394451 121.275883,32.0026922 C120.652463,31.8667731 120.098126,31.6491358 119.612035,31.3514479 C119.125943,31.0537601 118.720657,30.656843 118.397015,30.1598628 C118.072954,29.6637164 117.860681,29.0558328 117.761453,28.3357952 L114.247023,28.3357952 C114.396493,30.3712461 115.231348,31.9906012 116.752007,33.1942773 C118.271828,34.3983704 120.428049,35 123.219831,35 C124.390889,35 125.475279,34.869501 126.472165,34.6089199 C127.46905,34.3483388 128.323165,33.9635127 129.033252,33.4548584 C129.743758,32.9466211 130.298095,32.3070509 130.697101,31.5373986 C131.095269,30.7685802 131.294981,29.8750998 131.294981,28.8569574 C131.294981,27.690388 131.095269,26.7414559 130.697101,26.0089104 C130.298095,25.2767818 129.7559,24.6872431 129.070515,24.2407114 L129.070515,24.2407114 Z M107.241191,34.4042074 L111.278975,34.4042074 L111.278975,30.3091236 L107.241191,30.3091236 L107.241191,34.4042074 Z M158.306352,26.5859411 C158.306352,27.3555934 158.187864,28.0752141 157.951308,28.7452202 C157.713914,29.4152263 157.377711,29.9926739 156.941862,30.4763124 C156.505593,30.9603679 155.97554,31.33894 155.352958,31.612029 C154.729538,31.8855349 154.031592,32.021454 153.259121,32.021454 C151.86323,32.021454 150.785539,31.6674807 150.025209,30.9603679 C149.26488,30.253255 148.885134,29.2667993 148.885134,28.0010006 L148.885134,14.41201 L145.407967,14.41201 L145.407967,28.1869513 C145.407967,30.2966157 146.018407,31.9347326 147.240126,33.101302 C148.461007,34.2682883 150.118994,34.8507392 152.212412,34.8507392 C153.657708,34.8507392 154.848025,34.5588883 155.782946,33.9760206 C156.717447,33.3931528 157.545603,32.6047387 158.269089,31.612029 L158.343614,31.612029 L158.343614,34.4042074 L161.783519,34.4042074 L161.783519,14.41201 L158.306352,14.41201 L158.306352,26.5859411 Z M69.0819518,27.4610766 C68.8202746,28.3916638 68.4275494,29.2046768 67.9041949,29.8992817 C67.3808405,30.5943035 66.726438,31.1408984 65.9414063,31.5373986 C65.1563746,31.9347326 64.2528555,32.1331912 63.2308489,32.1331912 C62.2084236,32.1331912 61.3057418,31.9347326 60.5202915,31.5373986 C59.7352598,31.1408984 59.081276,30.5943035 58.5579216,29.8992817 C58.0341484,29.2046768 57.6418419,28.3916638 57.3801647,27.4610766 C57.1184875,26.5300725 56.9874395,25.519018 56.9874395,24.4266621 C56.9874395,23.3597389 57.1184875,22.3549382 57.3801647,21.4110093 C57.6418419,20.4679143 58.0341484,19.6428103 58.5579216,18.9352806 C59.081276,18.2277508 59.7352598,17.6761528 60.5202915,17.2788188 C61.3057418,16.8819017 62.2084236,16.6830262 63.2308489,16.6830262 C64.2528555,16.6830262 65.1563746,16.8819017 65.9414063,17.2788188 C66.726438,17.6761528 67.3808405,18.2277508 67.9041949,18.9352806 C68.4275494,19.6428103 68.8202746,20.4679143 69.0819518,21.4110093 C69.343629,22.3549382 69.4742583,23.3597389 69.4742583,24.4266621 C69.4742583,25.519018 69.343629,26.5300725 69.0819518,27.4610766 L69.0819518,27.4610766 Z M70.4091787,16.9994759 C69.5613445,16.0442898 68.5397566,15.2929825 67.3435776,14.7468045 C66.14698,14.2014604 64.7883518,13.9279545 63.2685304,13.9279545 C61.7478717,13.9279545 60.3833819,14.2014604 59.1746425,14.7468045 C57.9654843,15.2929825 56.9371975,16.0442898 56.0902006,16.9994759 C55.2427851,17.9550788 54.5883826,19.0716166 54.127412,20.3499232 C53.6660227,21.6286466 53.4357468,22.9874206 53.4357468,24.4266621 C53.4357468,25.8913362 53.6660227,27.2626181 54.127412,28.5405077 C54.5883826,29.8192312 55.2427851,30.9361859 56.0902006,31.8913719 C56.9371975,32.8469749 57.9654843,33.5978653 59.1746425,34.1436263 C60.3833819,34.6893874 61.7478717,34.9628933 63.2685304,34.9628933 C64.7883518,34.9628933 66.14698,34.6893874 67.3435776,34.1436263 C68.5397566,33.5978653 69.5613445,32.8469749 70.4091787,31.8913719 C71.2561756,30.9361859 71.9047164,29.8192312 72.3531265,28.5405077 C72.8019553,27.2626181 73.025951,25.8913362 73.025951,24.4266621 C73.025951,22.9874206 72.8019553,21.6286466 72.3531265,20.3499232 C71.9047164,19.0716166 71.2561756,17.9550788 70.4091787,16.9994759 L70.4091787,16.9994759 Z M139.015087,8.12012341 L135.575602,8.12012341 L135.575602,14.41201 L132.435056,14.41201 L132.435056,17.0924512 L135.575602,17.0924512 L135.575602,30.4950743 C135.575602,31.9601653 135.998891,32.9958188 136.846725,33.6037023 C137.693722,34.2124197 138.790673,34.5280355 140.136322,34.5530513 C141.058263,34.5530513 141.993184,34.4413142 142.940664,34.2182568 L142.940664,31.3143412 L142.828457,31.3143412 C142.628745,31.3643728 142.361206,31.4202413 142.024585,31.48153 C141.687963,31.5440695 141.370182,31.5749223 141.071242,31.5749223 C140.42312,31.5749223 139.918188,31.4444233 139.557283,31.1838422 C139.19554,30.9232611 139.015087,30.4333687 139.015087,29.713331 L139.015087,17.0924512 L143.16466,17.0924512 L143.16466,14.41201 L139.015087,14.41201 L139.015087,8.12012341 Z M97.0202878,13.9279545 C95.7985691,13.9279545 94.639653,14.2323132 93.5435394,14.8401968 C92.4461698,15.4484973 91.5367891,16.3849214 90.8141412,17.6507201 L90.7396155,17.6507201 C90.3150704,16.4103542 89.6489448,15.4793501 88.7391454,14.8585417 C87.8289274,14.2385672 86.7633777,13.9279545 85.5424964,13.9279545 C84.2466707,13.9279545 83.0877546,14.2323132 82.065748,14.8401968 C81.0433227,15.4484973 80.2210282,16.2982001 79.5984457,17.390139 L79.4862385,17.390139 L79.4862385,14.41201 L76.046753,14.41201 L76.046753,34.4042074 L79.5235014,34.4042074 L79.5235014,22.0810154 C79.5235014,21.312197 79.6729714,20.6105042 79.9723302,19.9776049 C80.2712702,19.3447056 80.6510162,18.7931076 81.1124055,18.3211431 C81.5733761,17.8500125 82.1034295,17.4835313 82.7013097,17.2229502 C83.2996085,16.9619522 83.8979073,16.8314532 84.4957875,16.8314532 C85.5424964,16.8314532 86.3777701,17.1733356 87.0007713,17.8554326 C87.6233537,18.5383635 87.935273,19.5002204 87.935273,20.7405863 L87.935273,34.4042074 L91.3751772,34.4042074 L91.3751772,22.0810154 C91.3751772,21.312197 91.5058065,20.6105042 91.7674837,19.9776049 C92.0291609,19.3447056 92.3716441,18.7931076 92.7957706,18.3211431 C93.2190597,17.8500125 93.7172931,17.4835313 94.2908896,17.2229502 C94.8640674,16.9619522 95.474508,16.8314532 96.1230489,16.8314532 C97.1446368,16.8314532 98.0046129,17.1733356 98.7025584,17.8554326 C99.4000852,18.5383635 99.749686,19.5002204 99.749686,20.7405863 L99.749686,34.4042074 L103.226434,34.4042074 L103.226434,20.4433154 C103.226434,18.333651 102.652838,16.7201329 101.506482,15.6031782 C100.360127,14.4862235 98.8645889,13.9279545 97.0202878,13.9279545 L97.0202878,13.9279545 Z" id="Fill-1" fill="#322F31" mask="url(#mask-2)"></path>
            </g>
        </g>
    </g>
</svg>