<svg id="Layer_1" data-name="Layer 1" xmlns="http://www.w3.org/2000/svg" viewBox="0 0 158 158"><defs><style>.cls-1{fill:#322f31;}.cls-2{fill:#fff;}</style></defs><title>logo collection</title><rect class="cls-1" width="158" height="158"/><path class="cls-2" d="M94,86.06a.22.22,0,0,1-.22.22H88.09a.62.62,0,0,1-.38-.16l-3.63-3.55c-.09-.09-.16-.06-.16.07v3.42a.22.22,0,0,1-.23.22H75.92a.22.22,0,0,1-.22-.22V82.64c0-.13-.08-.16-.16-.07L72,86.12a.62.62,0,0,1-.39.16H64.22a.22.22,0,0,1-.22-.22V63.5a.23.23,0,0,1,.22-.23H71.6a.68.68,0,0,1,.39.16L75.54,67c.08.09.16.06.16-.06V63.5a.23.23,0,0,1,.22-.23h7.77a.23.23,0,0,1,.23.23v3.42c0,.12.07.15.16.06l3.63-3.55a.68.68,0,0,1,.38-.16h5.69a.23.23,0,0,1,.22.23v5.39a.62.62,0,0,1-.16.38l-5.43,5.35a.22.22,0,0,0,0,.32l5.43,5.35a.59.59,0,0,1,.16.38ZM89,82.4a.58.58,0,0,0,.36.15h.83a.21.21,0,0,0,.21-.21v-.85a.58.58,0,0,0-.15-.36L84,74.93a.2.2,0,0,1,0-.3l6.2-6.21a.58.58,0,0,0,.15-.35v-.85a.21.21,0,0,0-.21-.21h-.83a.58.58,0,0,0-.36.15l-7.47,7.47a.22.22,0,0,0,0,.3Zm-10.09.49a.22.22,0,0,0,.22.23h1.45a.22.22,0,0,0,.22-.23V66.66a.22.22,0,0,0-.22-.22H79.08a.22.22,0,0,0-.22.22ZM67.4,82.34a.22.22,0,0,0,.21.21h2.71a.58.58,0,0,0,.35-.15l7.48-7.47a.22.22,0,0,0,0-.3l-7.48-7.47a.53.53,0,0,0-.35-.15H67.61a.21.21,0,0,0-.21.21Z"/><path class="cls-2" d="M66.74,91.88a.62.62,0,0,1-.1.35l-.19.3a.32.32,0,0,1-.29.16H64.31c-.14,0-.19-.06-.19-.19V88.89c0-.13,0-.19.19-.19h1.86a.28.28,0,0,1,.28.16l.2.32a.73.73,0,0,1,.09.35Zm-.85.3c.24,0,.32-.17.33-.41V89.63c0-.13-.07-.42-.33-.42H64.82c-.13,0-.18.05-.18.18V92c0,.13,0,.19.18.19Z"/><path class="cls-2" d="M70,88.7a.17.17,0,0,1,.19.19v3a.64.64,0,0,1-.1.35l-.17.28a.32.32,0,0,1-.29.16H68.1a.33.33,0,0,1-.29-.16l-.17-.28a.6.6,0,0,1-.1-.35v-3a.17.17,0,0,1,.19-.19h.14a.17.17,0,0,1,.19.19v2.87c0,.22.09.41.34.42h.91c.24,0,.33-.2.33-.42V88.89a.17.17,0,0,1,.19-.19ZM68.7,90.59c-.13,0-.19-.06-.19-.18v-.32c0-.13.06-.18.19-.18H69c.12,0,.18,0,.18.18v.32a.16.16,0,0,1-.18.18Zm0-1.21c-.13,0-.19,0-.19-.18v-.32c0-.12.06-.18.19-.18H69a.16.16,0,0,1,.18.18v.32c0,.13-.06.18-.18.18Z"/><path class="cls-2" d="M73,92.19a.32.32,0,0,0-.29-.16h-1a.17.17,0,0,0-.19.19v.28c0,.13,0,.19-.18.19h-.15A.17.17,0,0,1,71,92.5V88.89a.17.17,0,0,1,.19-.19h1.8a.3.3,0,0,1,.29.16l.17.25a.58.58,0,0,1,.11.35v1.8a.53.53,0,0,1-.11.34h0a.27.27,0,0,0,0,.32l.28.42c.08.12.06.19-.05.26l-.12.08a.18.18,0,0,1-.27-.07Zm-.3-.68c.24,0,.32-.09.32-.39v-1.5c0-.23-.11-.41-.34-.41h-1c-.13,0-.19.05-.19.18v1.93c0,.14.06.19.19.19Z"/><path class="cls-2" d="M77,89a.17.17,0,0,1-.19.19H75.13c-.13,0-.19.05-.19.18v1c0,.14.06.19.19.19h1.72a.17.17,0,0,1,.19.19v.14a.17.17,0,0,1-.19.19H75.13c-.13,0-.19,0-.19.18V92a.17.17,0,0,0,.19.19h1.72a.17.17,0,0,1,.19.19v.13a.17.17,0,0,1-.19.19H74.61a.17.17,0,0,1-.19-.19V88.89a.17.17,0,0,1,.19-.19h2.24a.17.17,0,0,1,.19.19Z"/><path class="cls-2" d="M79.81,92.19a.32.32,0,0,0-.29-.16h-1a.17.17,0,0,0-.19.19v.28c0,.13,0,.19-.18.19H78a.17.17,0,0,1-.19-.19V88.89A.17.17,0,0,1,78,88.7h1.8a.3.3,0,0,1,.29.16l.18.25a.64.64,0,0,1,.1.35v1.8a.59.59,0,0,1-.1.34h0a.26.26,0,0,0,0,.32l.27.42c.08.12.06.19,0,.26l-.12.08c-.12.06-.19,0-.26-.07Zm-.3-.68c.24,0,.32-.09.32-.39v-1.5c0-.23-.1-.41-.34-.41h-1c-.13,0-.19.05-.19.18v1.93c0,.14.06.19.19.19Z"/><path class="cls-2" d="M82.92,91.71a.2.2,0,0,0,0,.2l.39.58c0,.06,0,.11,0,.15l-.07,0c-.06,0-.11,0-.15,0l-.38-.57a.17.17,0,0,0-.16-.1h-.84a.1.1,0,0,0-.11.11v.49a.1.1,0,0,1-.11.11h-.09a.1.1,0,0,1-.11-.11V88.81c0-.08,0-.11.11-.11h.09a.1.1,0,0,1,.11.11v2.77a.1.1,0,0,0,.11.11h.83a.13.13,0,0,0,.14-.1l.92-2.83c0-.08.06-.1.13-.08l.08,0a.09.09,0,0,1,.07.13Z"/><path class="cls-2" d="M87.2,88.88c0,.07,0,.1-.11.1h-2a.1.1,0,0,0-.11.11v1.45a.1.1,0,0,0,.11.11h2c.07,0,.11,0,.11.1v.08a.1.1,0,0,1-.11.11h-2a.1.1,0,0,0-.11.11v1.24a.1.1,0,0,0,.11.11h2a.1.1,0,0,1,.11.11v.07a.1.1,0,0,1-.11.11H84.77a.1.1,0,0,1-.11-.11V88.81a.1.1,0,0,1,.11-.11h2.32a.1.1,0,0,1,.11.11Z"/><path class="cls-2" d="M90,92.08a.19.19,0,0,0-.17-.09H88.43a.1.1,0,0,0-.11.11v.48a.1.1,0,0,1-.11.11h-.08a.1.1,0,0,1-.11-.11V88.81c0-.08,0-.11.11-.11H90a.2.2,0,0,1,.17.09l.22.34a.36.36,0,0,1,.06.2v2a.33.33,0,0,1-.06.19l-.12.22a.15.15,0,0,0,0,.18c.09.15.28.42.37.57s0,.11,0,.15l-.06,0c-.07,0-.11,0-.15,0Zm-.17-.39A.19.19,0,0,0,90,91.6l.08-.12a.36.36,0,0,0,.06-.2V89.4a.33.33,0,0,0-.06-.19,1.21,1.21,0,0,0-.1-.14.19.19,0,0,0-.17-.09H88.43a.1.1,0,0,0-.11.11v2.49a.1.1,0,0,0,.11.11Z"/><path class="cls-2" d="M92.71,89a.1.1,0,0,0-.11.11v3.49c0,.07,0,.11-.1.11h-.08a.1.1,0,0,1-.11-.11V89.09A.1.1,0,0,0,92.2,89h-.91c-.07,0-.1,0-.1-.1v-.07c0-.08,0-.11.1-.11h2.32c.08,0,.11,0,.11.11v.07c0,.07,0,.1-.11.1Z"/></svg>