<svg id="Layer_1" data-name="Layer 1" xmlns="http://www.w3.org/2000/svg" viewBox="0 0 158 158"><defs><style>.cls-1{fill:#322f31;}.cls-2{fill:#fff;}</style></defs><title>logo collection</title><rect class="cls-1" width="158" height="158"/><path class="cls-2" d="M48.1,82.06a3.24,3.24,0,0,1,0-5.74,4.07,4.07,0,0,1,3.6,0A3.19,3.19,0,0,1,53,77.5a3.33,3.33,0,0,1,0,3.38,3.19,3.19,0,0,1-1.26,1.18,4.07,4.07,0,0,1-3.6,0Zm2.67-1.29a1.61,1.61,0,0,0,.61-.63,2,2,0,0,0,.23-1,1.92,1.92,0,0,0-.23-.94,1.57,1.57,0,0,0-.61-.64,1.76,1.76,0,0,0-1.74,0,1.57,1.57,0,0,0-.61.64,1.92,1.92,0,0,0-.23.94,2,2,0,0,0,.23,1,1.61,1.61,0,0,0,.61.63,1.76,1.76,0,0,0,1.74,0Z"/><path class="cls-2" d="M61.32,82.35l0-3.35-2,3.31-2-3.22v3.26H55.61V76h1.47l2.19,3.65L61.47,76H63l0,6.32Z"/><path class="cls-2" d="M85.41,81.13H82.74l-.5,1.22H80.41L83.21,76H85l2.8,6.32H85.91Zm-.52-1.32-.82-2-.81,2Z"/><path class="cls-2" d="M90.66,77.45H88.72V76h5.67v1.42H92.45v4.9H90.66Z"/><path class="cls-2" d="M100.34,81.13H97.66l-.5,1.22H95.34L98.13,76h1.76l2.81,6.32h-1.87Zm-.53-1.32-.81-2-.81,2Z"/><path class="cls-2" d="M106.76,80.06l-.67.71v1.58h-1.78V76h1.78v2.63L108.54,76h2l-2.59,2.8,2.72,3.52h-2.08Z"/><path class="cls-2" d="M114.26,82.35h-1.79V76.84l1.79,1Z"/><polygon class="cls-2" points="39 76.03 39 77.45 40.94 77.45 40.94 81.34 42.73 82.36 42.73 77.45 44.67 77.45 44.67 76.03 39 76.03"/><path class="cls-2" d="M79.17,77.13a2.2,2.2,0,0,0-1-.82A3.6,3.6,0,0,0,76.7,76H73.8V81.3l1.79,1V80.7H76.7a3.6,3.6,0,0,0,1.49-.28,2.25,2.25,0,0,0,1-.81,2.3,2.3,0,0,0,.34-1.24A2.28,2.28,0,0,0,79.17,77.13Zm-1.75,1.92a1.25,1.25,0,0,1-.83.24h-1V77.44h1a1.25,1.25,0,0,1,.83.24,1,1,0,0,1,0,1.37Z"/><path class="cls-2" d="M116.84,78.19a1.34,1.34,0,0,1-.51-.52,1.46,1.46,0,0,1,0-1.44,1.34,1.34,0,0,1,.51-.52,1.5,1.5,0,0,1,1.46,0,1.25,1.25,0,0,1,.51.51,1.48,1.48,0,0,1,0,1.45,1.44,1.44,0,0,1-.52.52,1.48,1.48,0,0,1-1.45,0ZM118.2,78a1.21,1.21,0,0,0,.45-.45,1.35,1.35,0,0,0,.16-.64,1.23,1.23,0,0,0-.16-.63,1.27,1.27,0,0,0-.44-.45,1.35,1.35,0,0,0-.64-.16,1.24,1.24,0,0,0-.63.17,1.21,1.21,0,0,0-.45.45,1.32,1.32,0,0,0,0,1.26,1.21,1.21,0,0,0,.45.45,1.18,1.18,0,0,0,.62.17A1.25,1.25,0,0,0,118.2,78Zm-1-.35a.81.81,0,0,1-.31-.3.9.9,0,0,1,0-.86.81.81,0,0,1,.31-.3.89.89,0,0,1,.44-.1.79.79,0,0,1,.38.08.73.73,0,0,1,.28.24l-.24.17a.47.47,0,0,0-.43-.22.52.52,0,0,0-.38.15.61.61,0,0,0,0,.82.52.52,0,0,0,.38.15.47.47,0,0,0,.43-.22l.24.16a.68.68,0,0,1-.28.25.79.79,0,0,1-.38.09A.9.9,0,0,1,117.17,77.68Z"/><polygon class="cls-2" points="112.47 76.01 114.26 76.01 114.26 77 112.47 76.01"/></svg>