<svg id="Layer_1" data-name="Layer 1" xmlns="http://www.w3.org/2000/svg" viewBox="0 0 158 158"><defs><style>.cls-1{fill:#322f31;}.cls-2{fill:#fff;}</style></defs><title>logo collection</title><rect class="cls-1" width="158" height="158"/><path class="cls-2" d="M109.79,81.69v-3a1.4,1.4,0,0,0-.36-1,1.33,1.33,0,0,0-.9-.29,1.21,1.21,0,0,0-1.13.54,4.12,4.12,0,0,0-.05-.48h-.76s0,.35,0,.59v3.65h.77V78.85a.82.82,0,0,1,.85-.94.71.71,0,0,1,.78.79v3Zm-4.92,9.13h.77V84.69h-.77Zm.75-11.25c0-1.63-.61-2.18-1.71-2.18s-1.7.55-1.7,2.18.61,2.18,1.7,2.18,1.71-.55,1.71-2.18m-.79,0c0,1.17-.23,1.63-.92,1.63s-.91-.46-.91-1.63.23-1.63.91-1.63.92.46.92,1.63m-4.35,2.12h.73V75.56h-.78V78h0a1.06,1.06,0,0,0-.94-.58c-.94,0-1.42.6-1.42,2.22,0,1.4.39,2.12,1.36,2.12a1,1,0,0,0,1-.56h0a4.42,4.42,0,0,0,.06.52m-.06-2.14c0,1.32-.29,1.63-.79,1.63s-.8-.37-.8-1.6.31-1.67.75-1.67.84.19.84,1.64m-2.18,7h-.67v.55h.67v2.67c0,.74.24,1.06.92,1.06a5.88,5.88,0,0,0,.82-.06v-.53a4.81,4.81,0,0,1-.5,0c-.34,0-.47-.16-.47-.44V87.14h.91v-.55H99V85.46l-.77.33ZM96.8,83c.23-.21.23-.71.23-1.27V77.45h-.76V82.3c0,.37,0,.48-.47.48v.54a1.26,1.26,0,0,0,1-.28m-.53-6.71H97v-.77h-.76Zm-.91,10.2a1.74,1.74,0,0,0-1.23.36,1,1,0,0,0-.27.85h.76v-.09c0-.47.3-.64.74-.64s.71.17.71.59v.62a3,3,0,0,0-1.94.45,1.28,1.28,0,0,0-.35,1c0,.8.4,1.23,1.07,1.23A1.36,1.36,0,0,0,96,90.19h0a5.76,5.76,0,0,0,0,.63h.8a3.09,3.09,0,0,1-.07-.65v-2.3c0-.86-.46-1.34-1.47-1.34m.71,2.74a1.09,1.09,0,0,1-.35.75.92.92,0,0,1-.64.29c-.34,0-.56-.24-.56-.72A.73.73,0,0,1,94.8,89c.26-.26,1-.26,1.27-.26Zm-1.69-7.58h.81a2.58,2.58,0,0,1-.07-.65v-2.3c0-.87-.47-1.35-1.48-1.35a1.75,1.75,0,0,0-1.22.36,1.06,1.06,0,0,0-.28.85h.76v-.09c0-.46.3-.64.74-.64s.71.18.71.6v.62a2.89,2.89,0,0,0-1.93.45,1.24,1.24,0,0,0-.36,1c0,.8.4,1.24,1.07,1.24a1.37,1.37,0,0,0,1.18-.69h0c0,.2,0,.47,0,.63m0-1.56a1.09,1.09,0,0,1-.35.75.92.92,0,0,1-.64.29c-.33,0-.55-.24-.55-.72a.76.76,0,0,1,.27-.62c.26-.26,1-.26,1.27-.26Zm-1.83,6.46-1.06,3.65h0l-1-3.65h-.8L91,90.82h.92l1.34-4.23Zm-2.23-4.9h.77V75.56h-.77Zm-1.89,0h.75s0-.36,0-.6V77.45h-.77v2.84a.82.82,0,0,1-.85.93.69.69,0,0,1-.77-.77v-3H86v3a1.39,1.39,0,0,0,.35,1,1.33,1.33,0,0,0,.9.28,1.21,1.21,0,0,0,1.13-.53,3.91,3.91,0,0,0,.05.48m-4.25-5.47h1.62v-.66H81.69v.66h1.64v5.47h.82Zm-5.73,14.6h.76V86.59h-.76Zm0-5.36h.76v-.77h-.76Zm-.23-3.77H79V77.45h-.77Zm0-5.36H79v-.77h-.77ZM76.82,90.87a6,6,0,0,0,.82-.06v-.53c-.07,0-.36,0-.51,0-.33,0-.46-.16-.46-.44V87.14h.9v-.55h-.9V85.46l-.77.33v.8h-.67v.55h.67v2.67c0,.74.24,1.06.92,1.06m-.55-9.18H77V78.56a1,1,0,0,0-1.11-1.17,1.27,1.27,0,0,0-1.2.62,1,1,0,0,0-1-.62,1.22,1.22,0,0,0-1.14.58h0a3.56,3.56,0,0,0,0-.52h-.74a5.73,5.73,0,0,1,0,.59v3.65h.76v-3a.76.76,0,0,1,.28-.61.87.87,0,0,1,.55-.2.63.63,0,0,1,.65.71v3.07h.76V78.62a.83.83,0,0,1,.83-.71.61.61,0,0,1,.65.6Zm-4.92,7c0,1.41.44,2.17,1.72,2.17a1.36,1.36,0,0,0,1.56-1.31h-.78a.75.75,0,0,1-.82.76c-.79,0-.89-.8-.89-1.47h2.49A3.08,3.08,0,0,0,74.25,87a1.47,1.47,0,0,0-1.19-.47c-.83,0-1.71.27-1.71,2.19m.79-.35c0-.74.22-1.29.9-1.29a.72.72,0,0,1,.69.43,2.86,2.86,0,0,1,.1.86Zm-3.86-8.63h2.5a3.05,3.05,0,0,0-.39-1.87,1.44,1.44,0,0,0-1.19-.48c-.82,0-1.7.28-1.7,2.19,0,1.42.44,2.18,1.71,2.18a1.38,1.38,0,0,0,1.57-1.31H70a.74.74,0,0,1-.82.76c-.78,0-.89-.81-.89-1.47m0-.5c0-.74.22-1.3.9-1.3a.71.71,0,0,1,.69.43,2.6,2.6,0,0,1,.1.87ZM66.21,90.82H67V87.69a1,1,0,0,0-1.11-1.16,1.26,1.26,0,0,0-1.2.62,1,1,0,0,0-1-.62,1.23,1.23,0,0,0-1.14.57h0c0-.11,0-.34,0-.51h-.74s0,.25,0,.58v3.65h.77v-3a.77.77,0,0,1,.27-.62.87.87,0,0,1,.56-.2.62.62,0,0,1,.64.71v3.07h.77V87.75a.83.83,0,0,1,.83-.71.62.62,0,0,1,.64.61Zm-.49-9.13h.76V75.56h-.76Zm-1.92,0h.77V75.56H63.8Zm-3.52-2h2.5a3.05,3.05,0,0,0-.39-1.87,1.44,1.44,0,0,0-1.19-.48c-.82,0-1.71.28-1.71,2.19,0,1.42.44,2.18,1.72,2.18a1.38,1.38,0,0,0,1.57-1.31H62a.74.74,0,0,1-.82.76c-.78,0-.89-.81-.89-1.47m0-.5c0-.74.22-1.3.9-1.3a.71.71,0,0,1,.69.43,2.6,2.6,0,0,1,.1.87Zm0,7.76a1.45,1.45,0,0,0-1.19-.47c-.82,0-1.7.27-1.7,2.19,0,1.41.44,2.17,1.72,2.17a1.36,1.36,0,0,0,1.56-1.31h-.78a.75.75,0,0,1-.82.76c-.79,0-.89-.8-.89-1.47h2.49A3,3,0,0,0,60.32,87m-.41,1.37H58.22c0-.74.22-1.29.89-1.29a.7.7,0,0,1,.69.43,2.56,2.56,0,0,1,.11.86M56,81.69h2.84v-.55H56.78L58.85,78v-.54H56.13V78H58l-2,3.1Zm-.49,3V90l-2.46-5.35H51.82v6.13h.77V85.31l2.53,5.51h1.14V84.69ZM52.41,77a.84.84,0,0,1,.92-.88c.65,0,1,.46,1,1.07v.11h.82v-.12a1.62,1.62,0,0,0-.44-1.27,1.8,1.8,0,0,0-1.29-.4A1.57,1.57,0,0,0,51.62,77a1.81,1.81,0,0,0,1.21,1.72c.86.45,1.59.8,1.59,1.48s-.45.92-1.06.92a1,1,0,0,1-.78-.28,1.6,1.6,0,0,1-.3-1.1h-.8V80a1.69,1.69,0,0,0,1.88,1.79c1.18,0,1.84-.59,1.84-1.66,0-.89-.6-1.38-1.48-1.84s-1.31-.67-1.31-1.34M45,75.36l9.71-7L53.69,66.9,45,73.15,36.9,67.3l3.29-10.1-1.71-.54L34.79,68Zm0-3.66,6.9-5-2.45-7.44-1.71.56,2,6.2L45,69.49,39.7,65.66l-1.06,1.45Zm3.4-6.12-1.38-4.19H43.28v1.78h2.48l.56,1.72-2,1.44,1.06,1.45ZM69.87,87.14l-2,3.1v.58h2.83v-.55H68.63l2.06-3.15v-.53H68v.55Zm13.8-2.45h-.82v6.13h.82V88H86v2.87h.82V84.69H86v2.59H83.67Zm5.21,0h-.77v.77h.77Zm0,1.9h-.77v4.23h.77ZM101,88.67a1.28,1.28,0,0,0-.35,1c0,.8.4,1.23,1.07,1.23a1.38,1.38,0,0,0,1.18-.69h0a5.76,5.76,0,0,0,0,.63h.8a2.52,2.52,0,0,1-.07-.65v-2.3c0-.86-.47-1.34-1.47-1.34a1.73,1.73,0,0,0-1.23.36,1,1,0,0,0-.27.85h.76v-.09c0-.47.3-.64.74-.64s.7.17.7.59v.62a3,3,0,0,0-1.93.45m.39.92a.76.76,0,0,1,.27-.62,2.23,2.23,0,0,1,1.27-.26v.56a1.08,1.08,0,0,1-.34.75.92.92,0,0,1-.64.29c-.34,0-.56-.24-.56-.72m5.6-.92a1.28,1.28,0,0,0-.35,1c0,.8.4,1.23,1.07,1.23a1.38,1.38,0,0,0,1.18-.69h0a5.76,5.76,0,0,0,0,.63h.8a2.52,2.52,0,0,1-.07-.65v-2.3c0-.86-.47-1.34-1.47-1.34a1.74,1.74,0,0,0-1.23.36,1,1,0,0,0-.27.85h.76v-.09c0-.47.3-.64.74-.64s.7.17.7.59v.62a3,3,0,0,0-1.93.45m.39.92a.76.76,0,0,1,.27-.62,2.23,2.23,0,0,1,1.27-.26v.56a1.08,1.08,0,0,1-.34.75.92.92,0,0,1-.64.29c-.34,0-.56-.24-.56-.72"/></svg>