<svg id="Layer_1" data-name="Layer 1" xmlns="http://www.w3.org/2000/svg" viewBox="0 0 158 158"><defs><style>.cls-1{fill:#322f31;}.cls-2{fill:#fff;}</style></defs><title>logo collection</title><rect class="cls-1" width="158" height="158"/><path class="cls-2" d="M101.5,83.33V72.67A1.49,1.49,0,0,0,100,71.18H92.51v4.14h3.88a1.16,1.16,0,0,1,0,2.31H92.51S92.25,80,95.35,80H98a1.16,1.16,0,0,1,0,2.32H95c-4.78,0-4.73-4.7-4.73-4.7V71.18h-.77A1.48,1.48,0,0,0,88,72.67V83.33a1.48,1.48,0,0,0,1.47,1.49H100a1.49,1.49,0,0,0,1.48-1.49m-15.75,0V72.67a1.48,1.48,0,0,0-1.47-1.49H73.73a1.49,1.49,0,0,0-1.48,1.49V83.29a1.49,1.49,0,0,0,1.48,1.49l.76,0V78.2s0-4.69,4.73-4.69h3a1.16,1.16,0,0,1,0,2.31H79.6c-3.1,0-2.84,2.4-2.84,2.4h3.87a1.16,1.16,0,0,1,0,2.32H76.76v4.26h7.52a1.48,1.48,0,0,0,1.47-1.49M70,83.33V72.67a1.49,1.49,0,0,0-1.48-1.49H58a1.49,1.49,0,0,0-1.48,1.49v.78h4.59a4.55,4.55,0,0,1,4.64,4.78v3.09a1.15,1.15,0,1,1-2.29,0v-2.7c0-3.13-2.37-2.88-2.37-2.88v3.93a1.15,1.15,0,1,1-2.29,0V75.74H56.5v7.59A1.49,1.49,0,0,0,58,84.82H68.52A1.49,1.49,0,0,0,70,83.33"/></svg>