<svg id="Layer_1" data-name="Layer 1" xmlns="http://www.w3.org/2000/svg" viewBox="0 0 158 158"><defs><style>.cls-1{fill:#322f31;}.cls-2{fill:#fff;fill-rule:evenodd;}</style></defs><title>logo collection</title><rect class="cls-1" width="158" height="158"/><polygon class="cls-2" points="58 81.38 62.19 81.38 62.19 77.19 58 77.19 58 81.38 58 81.38 58 81.38"/><path class="cls-2" d="M68.08,68.64c3.41.06,5.44,2.33,5.74,6.49l1.1-.18-.21-7.3H58.21L58,75l1.11.18c.3-4.16,2.3-6.43,5.74-6.49V83.92c0,2.78-.48,3.23-3.47,3.26v1.17H71.54V87.18c-3,0-3.46-.48-3.46-3.26V68.64Z"/><polygon class="cls-2" points="70.7 81.38 74.89 81.38 74.89 77.19 70.7 77.19 70.7 81.38 70.7 81.38 70.7 81.38"/><polygon class="cls-2" points="83.26 81.38 87.44 81.38 87.44 77.19 83.26 77.19 83.26 81.38 83.26 81.38 83.26 81.38"/><polygon class="cls-2" points="95.81 81.38 100 81.38 100 77.19 95.81 77.19 95.81 81.38 95.81 81.38 95.81 81.38"/></svg>