<svg id="Layer_1" data-name="Layer 1" xmlns="http://www.w3.org/2000/svg" viewBox="0 0 158 158"><defs><style>.cls-1{fill:#322f31;}.cls-2{fill:#fff;}</style></defs><title>logo collection</title><rect class="cls-1" width="158" height="158"/><path class="cls-2" d="M62.92,65.8V72H61.55v-.78a2.35,2.35,0,0,1-.87.64,2.76,2.76,0,0,1-1.12.22,2.7,2.7,0,0,1-1.94-.68,2.73,2.73,0,0,1-.71-2V65.8h1.44v3.32a1.77,1.77,0,0,0,.38,1.24,1.34,1.34,0,0,0,1.06.41A1.6,1.6,0,0,0,61,70.29a1.9,1.9,0,0,0,.46-1.38V65.8Z"/><path class="cls-2" d="M70.18,66.41a2.68,2.68,0,0,1,.71,2V72H69.44V68.61a1.69,1.69,0,0,0-.38-1.21A1.37,1.37,0,0,0,68,67a1.67,1.67,0,0,0-1.26.48,1.88,1.88,0,0,0-.46,1.37V72H64.82V65.8h1.37v.79a2.25,2.25,0,0,1,.9-.64,3.16,3.16,0,0,1,1.22-.22A2.59,2.59,0,0,1,70.18,66.41Z"/><path class="cls-2" d="M78.9,65.8V71q0,3.25-3.33,3.25a6.14,6.14,0,0,1-1.68-.22,3.56,3.56,0,0,1-1.32-.66l.65-1.08a3.28,3.28,0,0,0,1,.54,4.13,4.13,0,0,0,1.25.2A2.09,2.09,0,0,0,77,72.6a1.88,1.88,0,0,0,.47-1.41v-.33a2.31,2.31,0,0,1-.9.62,3.11,3.11,0,0,1-1.16.2,3.33,3.33,0,0,1-1.59-.37,2.79,2.79,0,0,1-1.12-1.06,3.15,3.15,0,0,1,0-3.11,2.74,2.74,0,0,1,1.12-1,3.33,3.33,0,0,1,1.59-.37,3.23,3.23,0,0,1,1.22.22,2.17,2.17,0,0,1,.91.67V65.8ZM77,70a1.67,1.67,0,0,0,.53-1.28A1.62,1.62,0,0,0,77,67.44a2.1,2.1,0,0,0-2.7,0,1.62,1.62,0,0,0-.52,1.25A1.67,1.67,0,0,0,74.25,70,2.1,2.1,0,0,0,77,70Z"/><path class="cls-2" d="M85.23,66.38a2.53,2.53,0,0,1,.72,2V72H84.59v-.75a1.68,1.68,0,0,1-.76.62,3.36,3.36,0,0,1-2.39,0,1.91,1.91,0,0,1-.81-.66,1.73,1.73,0,0,1-.28-1A1.65,1.65,0,0,1,81,68.86a3.09,3.09,0,0,1,1.94-.5h1.6v-.09a1.25,1.25,0,0,0-.39-1A1.63,1.63,0,0,0,83,66.93a3.24,3.24,0,0,0-1,.16,2.64,2.64,0,0,0-.85.45l-.56-1.05a3.59,3.59,0,0,1,1.16-.57,5.27,5.27,0,0,1,1.44-.19A3,3,0,0,1,85.23,66.38Zm-1.32,4.36a1.36,1.36,0,0,0,.6-.71v-.71H83c-.83,0-1.25.27-1.25.82a.74.74,0,0,0,.31.62A1.47,1.47,0,0,0,83,71,1.81,1.81,0,0,0,83.91,70.74Z"/><path class="cls-2" d="M91.36,65.73V67.1l-.33,0a1.75,1.75,0,0,0-1.32.49A2,2,0,0,0,89.24,69v3H87.8V65.8h1.37v.9A2.4,2.4,0,0,1,91.36,65.73Z"/><path class="cls-2" d="M92.66,64.53a.84.84,0,0,1,0-1.23.88.88,0,0,1,.65-.25.94.94,0,0,1,.66.24.74.74,0,0,1,.27.59.87.87,0,0,1-.26.64.9.9,0,0,1-.67.26A.88.88,0,0,1,92.66,64.53Zm-.07,1.27H94V72H92.59Z"/><path class="cls-2" d="M100.36,66.38a2.53,2.53,0,0,1,.72,2V72H99.72v-.75a1.68,1.68,0,0,1-.76.62,3,3,0,0,1-1.18.21,3,3,0,0,1-1.21-.23,1.82,1.82,0,0,1-.8-.66,1.74,1.74,0,0,1,.33-2.29,3.1,3.1,0,0,1,2-.5h1.59v-.09a1.25,1.25,0,0,0-.39-1,1.63,1.63,0,0,0-1.15-.35,3.29,3.29,0,0,0-1,.16,2.64,2.64,0,0,0-.85.45l-.56-1.05a3.59,3.59,0,0,1,1.16-.57,5.29,5.29,0,0,1,1.45-.19A3,3,0,0,1,100.36,66.38ZM99,70.74a1.31,1.31,0,0,0,.6-.71v-.71H98.15c-.83,0-1.25.27-1.25.82a.73.73,0,0,0,.32.62,1.42,1.42,0,0,0,.86.23A1.81,1.81,0,0,0,99,70.74Z"/><path class="cls-2" d="M108.3,66.41a2.68,2.68,0,0,1,.7,2V72h-1.44V68.61a1.74,1.74,0,0,0-.38-1.21,1.4,1.4,0,0,0-1.09-.41,1.67,1.67,0,0,0-1.26.48,1.92,1.92,0,0,0-.46,1.37V72h-1.44V65.8h1.37v.79a2.25,2.25,0,0,1,.9-.64,3.17,3.17,0,0,1,1.23-.22A2.6,2.6,0,0,1,108.3,66.41Z"/><path class="cls-2" d="M56.94,76a.8.8,0,0,1-.26-.62.78.78,0,0,1,.26-.61.92.92,0,0,1,.66-.25,1,1,0,0,1,.66.23.79.79,0,0,1,.26.6.84.84,0,0,1-.26.64.9.9,0,0,1-.66.26A.92.92,0,0,1,56.94,76Zm-.07,1.26h1.45V83.4H56.87Z"/><path class="cls-2" d="M60.21,74.83h1.44V83.4H60.21Z"/><path class="cls-2" d="M73.17,77.84a2.76,2.76,0,0,1,.68,2V83.4H72.41V80.05a1.81,1.81,0,0,0-.36-1.22,1.3,1.3,0,0,0-1-.41,1.49,1.49,0,0,0-1.16.48,1.93,1.93,0,0,0-.44,1.37V83.4H68V80.05a1.81,1.81,0,0,0-.36-1.22,1.3,1.3,0,0,0-1-.41,1.5,1.5,0,0,0-1.17.48A1.94,1.94,0,0,0,65,80.27V83.4H63.54V77.23h1.38V78a2.29,2.29,0,0,1,.86-.64,3.07,3.07,0,0,1,1.16-.22,2.85,2.85,0,0,1,1.23.26,2,2,0,0,1,.84.77,2.66,2.66,0,0,1,1-.75,3.18,3.18,0,0,1,1.32-.28A2.51,2.51,0,0,1,73.17,77.84Z"/><path class="cls-2" d="M60.24,88.6V90l-.33,0a1.75,1.75,0,0,0-1.32.49,2,2,0,0,0-.47,1.41v3H56.68V88.67h1.37v.9A2.4,2.4,0,0,1,60.24,88.6Z"/><path class="cls-2" d="M62.52,94.51a2.92,2.92,0,0,1-1.19-1.12,3.14,3.14,0,0,1-.43-1.64,3.08,3.08,0,0,1,.43-1.63A2.94,2.94,0,0,1,62.51,89a3.6,3.6,0,0,1,1.73-.41,3.31,3.31,0,0,1,1.6.37,2.45,2.45,0,0,1,1,1.06l-1.11.65A1.75,1.75,0,0,0,65.1,90a1.87,1.87,0,0,0-.87-.22,1.82,1.82,0,0,0-1.34.53,2.13,2.13,0,0,0,0,2.8,1.83,1.83,0,0,0,1.35.53,1.86,1.86,0,0,0,.87-.21,1.92,1.92,0,0,0,.66-.64l1.11.64a2.52,2.52,0,0,1-1.05,1.07,3.21,3.21,0,0,1-1.58.37A3.58,3.58,0,0,1,62.52,94.51Z"/><path class="cls-2" d="M73.42,89.28a2.7,2.7,0,0,1,.71,2v3.53H72.69V91.49a1.7,1.7,0,0,0-.39-1.22,1.4,1.4,0,0,0-1.08-.41,1.67,1.67,0,0,0-1.26.48,1.9,1.9,0,0,0-.46,1.38v3.11H68.06V86.27H69.5v3.12a2.35,2.35,0,0,1,.88-.59,3.34,3.34,0,0,1,1.17-.2A2.59,2.59,0,0,1,73.42,89.28Z"/><path class="cls-2" d="M81.79,92.21H77a1.62,1.62,0,0,0,.66,1.08,2.14,2.14,0,0,0,1.33.4A2.25,2.25,0,0,0,80.63,93l.77.89a2.66,2.66,0,0,1-1.05.75,4.21,4.21,0,0,1-3.22-.15,3,3,0,0,1-1.2-1.12,3.41,3.41,0,0,1,0-3.26A2.92,2.92,0,0,1,77.06,89a3.3,3.3,0,0,1,1.64-.41,3.18,3.18,0,0,1,1.61.4,2.85,2.85,0,0,1,1.11,1.12,3.46,3.46,0,0,1,.4,1.67A4.06,4.06,0,0,1,81.79,92.21Zm-4.26-2a1.71,1.71,0,0,0-.59,1.09h3.5a1.79,1.79,0,0,0-2.91-1.09Z"/><path class="cls-2" d="M83.64,94.72a3.57,3.57,0,0,1-1.14-.5l.55-1.09a3.68,3.68,0,0,0,1,.44,4.22,4.22,0,0,0,1.15.17c.86,0,1.29-.23,1.29-.68a.45.45,0,0,0-.33-.45,5.4,5.4,0,0,0-1-.25,7.91,7.91,0,0,1-1.25-.26,1.94,1.94,0,0,1-.83-.53,1.49,1.49,0,0,1-.35-1,1.65,1.65,0,0,1,.73-1.4,3.34,3.34,0,0,1,2-.53,5.44,5.44,0,0,1,1.27.15,3.39,3.39,0,0,1,1,.38l-.55,1.1a3.41,3.41,0,0,0-1.77-.46,1.92,1.92,0,0,0-1,.19.56.56,0,0,0-.33.5.51.51,0,0,0,.35.49,5.17,5.17,0,0,0,1.09.27,8.64,8.64,0,0,1,1.21.27,2,2,0,0,1,.82.5,1.46,1.46,0,0,1,.34,1,1.62,1.62,0,0,1-.75,1.39,3.58,3.58,0,0,1-2,.51A5.54,5.54,0,0,1,83.64,94.72Z"/><path class="cls-2" d="M92.85,94.5a1.64,1.64,0,0,1-.62.31,2.76,2.76,0,0,1-.77.1,2.12,2.12,0,0,1-1.56-.53,2,2,0,0,1-.56-1.54v-3h-1V88.72h1V87.31h1.44v1.41h1.65v1.15H90.78V92.8a1,1,0,0,0,.22.69.83.83,0,0,0,.64.24,1.29,1.29,0,0,0,.81-.26Z"/><path class="cls-2" d="M97.61,88.6V90l-.34,0a1.71,1.71,0,0,0-1.31.49,1.94,1.94,0,0,0-.48,1.41v3H94V88.67h1.37v.9A2.41,2.41,0,0,1,97.61,88.6Z"/><path class="cls-2" d="M103.23,89.25a2.53,2.53,0,0,1,.72,2v3.61h-1.36v-.75a1.7,1.7,0,0,1-.75.62,3.05,3.05,0,0,1-1.19.21,2.87,2.87,0,0,1-1.21-.23,1.88,1.88,0,0,1-.8-.66A1.77,1.77,0,0,1,99,91.73a3.12,3.12,0,0,1,2-.5h1.59v-.09a1.25,1.25,0,0,0-.39-1A1.65,1.65,0,0,0,101,89.8a3.63,3.63,0,0,0-1,.16,2.59,2.59,0,0,0-.84.45l-.57-1a3.54,3.54,0,0,1,1.17-.56,5.17,5.17,0,0,1,1.44-.2A3,3,0,0,1,103.23,89.25Zm-1.31,4.37a1.37,1.37,0,0,0,.59-.71v-.72H101c-.83,0-1.24.27-1.24.82a.72.72,0,0,0,.31.62,1.35,1.35,0,0,0,.86.23A1.94,1.94,0,0,0,101.92,93.62Z"/><polygon class="cls-2" points="55.11 67.22 51.08 67.22 51.08 63.52 49.59 63.52 49.59 71.96 51.08 71.96 51.08 68.5 55.11 68.5 55.11 67.22"/><polygon class="cls-2" points="49.58 83.4 51.08 83.4 51.08 76.58 55.11 76.58 55.11 75.32 49.58 75.32 49.58 83.4"/><path class="cls-2" d="M53.35,93.63a2.91,2.91,0,0,1-1.45-.36,2.63,2.63,0,0,1-1-1,2.86,2.86,0,0,1-.37-1.46,2.91,2.91,0,0,1,.37-1.46,2.67,2.67,0,0,1,1-1A2.92,2.92,0,0,1,53.35,88V86.64a4.63,4.63,0,0,0-2.23.54,3.88,3.88,0,0,0-1.55,1.48A4.09,4.09,0,0,0,49,90.79a4,4,0,0,0,.57,2.13,3.9,3.9,0,0,0,1.55,1.49,4.63,4.63,0,0,0,2.23.54Z"/></svg>