<svg id="Layer_1" data-name="Layer 1" xmlns="http://www.w3.org/2000/svg" viewBox="0 0 158 158"><defs><style>.cls-1{fill:#322f31;}.cls-2{fill:#f2f2f2;}</style></defs><title>logo collection</title><rect class="cls-1" width="158" height="158"/><path class="cls-2" d="M71,72a7,7,0,1,1-7,6.89A7,7,0,0,1,71,72Zm4.29,7a4.29,4.29,0,0,0-4.38-4.3,4.3,4.3,0,1,0,.17,8.6A4.29,4.29,0,0,0,75.27,79Z"/><path class="cls-2" d="M90.29,72.29h2.63V85.71H90.29Z"/><path class="cls-2" d="M49,72.28c.77,0,1.5,0,2.22,0,.36,0,.42.14.42.45,0,1.49,0,3,0,4.46v8.53H49Z"/><path class="cls-2" d="M54.39,72.28c.72,0,1.39,0,2.06,0,.44,0,.58.09.57.55,0,2.43,0,4.86,0,7.29v5.6H54.39Z"/><path class="cls-2" d="M59.8,72.29h2.56V85.71H59.8Z"/><path class="cls-2" d="M79.7,85.72V72.3h2.59V85.72Z"/><path class="cls-2" d="M84.9,72.3h2.58V85.7H84.9Z"/><path class="cls-2" d="M95.63,74.89V72.31H109v2.58Z"/><path class="cls-2" d="M109,80.34H95.64V77.76H109Z"/><path class="cls-2" d="M95.63,85.72V83.13H109v2.59Z"/></svg>