<svg id="Layer_1" data-name="Layer 1" xmlns="http://www.w3.org/2000/svg" viewBox="0 0 158 158"><defs><style>.cls-1{fill:#322f31;}.cls-2{fill:#fff;}</style></defs><title>logo collection</title><rect class="cls-1" width="158" height="158"/><path class="cls-2" d="M45.28,73.88l-3-2.74c-.28-.25-.08-.79-.08-.79l-.18-.17-4.16,3.7a1.28,1.28,0,0,0-.41.94v4.85a1.27,1.27,0,0,0,.41.93l3.25,2.89-1,.91.52.48,4.58-4.28a1.26,1.26,0,0,0,.39-.91V74.8A1.27,1.27,0,0,0,45.28,73.88Zm-.45,5.46-.29.39-2.71-2.06v4.39h-.49V77.67l-2.71,2.06-.29-.39,2.84-2.15L38.34,75l.29-.39,2.71,2.06V72.32h.49V76.7l2.7-2.06.3.39L42,77.19Z"/><path class="cls-2" d="M68.62,85.68a.73.73,0,0,1,.4.18.56.56,0,0,1,.18.42.63.63,0,0,1-.12.37.68.68,0,0,1-.33.25,1.74,1.74,0,0,1-.64.08H66.9v-.07H67a.25.25,0,0,0,.23-.1.53.53,0,0,0,0-.28V84.88a.59.59,0,0,0,0-.3A.27.27,0,0,0,67,84.5h-.1v-.07H68a2,2,0,0,1,.49,0,.77.77,0,0,1,.43.24.59.59,0,0,1,.15.4.54.54,0,0,1-.12.34A.63.63,0,0,1,68.62,85.68Zm-1-.1.16,0H68a1,1,0,0,0,.41-.06.43.43,0,0,0,.22-.18.6.6,0,0,0,.07-.27.49.49,0,0,0-.18-.38.79.79,0,0,0-.54-.16,1.32,1.32,0,0,0-.34,0Zm0,1.22a2.2,2.2,0,0,0,.44,0,.75.75,0,0,0,.52-.16.52.52,0,0,0,.09-.66.51.51,0,0,0-.26-.22,1,1,0,0,0-.45-.08h-.34Z"/><path class="cls-2" d="M70.32,84.3v2.29a.82.82,0,0,0,0,.22.2.2,0,0,0,.08.08.37.37,0,0,0,.18,0V87h-.85v-.07a.33.33,0,0,0,.17,0,.16.16,0,0,0,.06-.08.83.83,0,0,0,0-.22V85a2.17,2.17,0,0,0,0-.36.12.12,0,0,0,0-.09l-.07,0a.24.24,0,0,0-.12,0l0-.07.52-.21Z"/><path class="cls-2" d="M71.28,85.91a.88.88,0,0,0,.19.6.56.56,0,0,0,.44.22.48.48,0,0,0,.29-.09.77.77,0,0,0,.22-.32l0,0a.78.78,0,0,1-.23.47.62.62,0,0,1-.47.22.71.71,0,0,1-.54-.25,1,1,0,0,1-.22-.65,1,1,0,0,1,.23-.69.79.79,0,0,1,.57-.25.71.71,0,0,1,.48.19.72.72,0,0,1,.19.52Zm0-.11h.8a.67.67,0,0,0,0-.24.36.36,0,0,0-.14-.16.33.33,0,0,0-.19-.06.36.36,0,0,0-.28.12A.53.53,0,0,0,71.28,85.8Z"/><path class="cls-2" d="M74,85.2v.59H74a.74.74,0,0,0-.18-.38.43.43,0,0,0-.29-.1.33.33,0,0,0-.21.07.21.21,0,0,0-.08.16.3.3,0,0,0,.06.18.78.78,0,0,0,.24.16l.27.14c.26.12.39.28.39.49a.49.49,0,0,1-.18.38.65.65,0,0,1-.4.14,1.42,1.42,0,0,1-.36,0l-.11,0A.06.06,0,0,0,73,87H73v-.62H73a.7.7,0,0,0,.2.4.51.51,0,0,0,.33.13.26.26,0,0,0,.21-.07.23.23,0,0,0,.09-.18.28.28,0,0,0-.09-.22,2.06,2.06,0,0,0-.37-.23,1,1,0,0,1-.36-.24.39.39,0,0,1-.08-.27.47.47,0,0,1,.14-.36.54.54,0,0,1,.38-.15,1.11,1.11,0,0,1,.25,0l.13,0s0,0,0,0a.21.21,0,0,0,0-.06Z"/><path class="cls-2" d="M75.71,85.2v.59h-.06a.74.74,0,0,0-.19-.38.42.42,0,0,0-.28-.1.31.31,0,0,0-.21.07.26.26,0,0,0-.09.16.3.3,0,0,0,.06.18.78.78,0,0,0,.24.16l.28.14a.55.55,0,0,1,.38.49.46.46,0,0,1-.18.38.63.63,0,0,1-.4.14,1.49,1.49,0,0,1-.36,0l-.1,0a.08.08,0,0,0-.07.05h-.06v-.62h.06a.7.7,0,0,0,.2.4.51.51,0,0,0,.34.13.28.28,0,0,0,.21-.07.25.25,0,0,0,.08-.18.28.28,0,0,0-.09-.22,1.54,1.54,0,0,0-.37-.23,1,1,0,0,1-.35-.24.46.46,0,0,1-.09-.27.48.48,0,0,1,.15-.36.51.51,0,0,1,.37-.15,1,1,0,0,1,.25,0l.13,0s0,0,0,0l0-.06Z"/><path class="cls-2" d="M76.89,85.2v1.39a.53.53,0,0,0,0,.22.14.14,0,0,0,.07.08.51.51,0,0,0,.17,0V87h-.84v-.07a.51.51,0,0,0,.17,0,.19.19,0,0,0,.07-.08.53.53,0,0,0,0-.22v-.66a2.26,2.26,0,0,0,0-.37.14.14,0,0,0,0-.08l-.07,0a.31.31,0,0,0-.13,0l0-.07.52-.21Zm-.16-.9a.2.2,0,0,1,.19.19h0a.2.2,0,0,1-.06.14.15.15,0,0,1-.13.05.18.18,0,0,1-.2-.18.19.19,0,0,1,.18-.2Z"/><path class="cls-2" d="M78.06,85.57a.82.82,0,0,1,.58-.37.43.43,0,0,1,.24.08.46.46,0,0,1,.16.23.82.82,0,0,1,0,.35v.73a.78.78,0,0,0,0,.22.18.18,0,0,0,.07.08.32.32,0,0,0,.17,0V87h-.86v-.07h0a.26.26,0,0,0,.17,0,.24.24,0,0,0,.06-.11,1.09,1.09,0,0,0,0-.18v-.71a.68.68,0,0,0-.06-.34.21.21,0,0,0-.21-.1.62.62,0,0,0-.44.24v.91a.53.53,0,0,0,0,.22.18.18,0,0,0,.07.08.58.58,0,0,0,.19,0V87h-.85v-.06h0a.2.2,0,0,0,.18-.07.47.47,0,0,0,0-.26V86a2.48,2.48,0,0,0,0-.38.18.18,0,0,0,0-.09.11.11,0,0,0-.08,0,.27.27,0,0,0-.12,0l0-.07.52-.21h.08Z"/><path class="cls-2" d="M80.14,86.35a.58.58,0,0,1-.13-1,.79.79,0,0,1,.92-.06h.36a.33.33,0,0,1,.1,0s0,0,0,0a.13.13,0,0,1,0,.06.2.2,0,0,1,0,.07h-.34a.58.58,0,0,1-.08.76.69.69,0,0,1-.49.17,1.26,1.26,0,0,1-.27,0,.47.47,0,0,0-.11.13.12.12,0,0,0,0,.09.09.09,0,0,0,0,.06.28.28,0,0,0,.12,0l.27,0a4.37,4.37,0,0,1,.5,0,.46.46,0,0,1,.28.13.36.36,0,0,1,.11.26.56.56,0,0,1-.2.4,1.1,1.1,0,0,1-.77.28,1.14,1.14,0,0,1-.62-.17.26.26,0,0,1-.14-.19.24.24,0,0,1,0-.09,1.43,1.43,0,0,1,.14-.2L80,87a.49.49,0,0,1-.14-.11.12.12,0,0,1,0-.1.3.3,0,0,1,0-.16A1.48,1.48,0,0,1,80.14,86.35Zm0,.63-.13.18a.3.3,0,0,0,0,.15.21.21,0,0,0,.11.16,1,1,0,0,0,.55.12.86.86,0,0,0,.5-.12.33.33,0,0,0,.16-.26.16.16,0,0,0-.1-.14,1.23,1.23,0,0,0-.39,0c-.21,0-.43,0-.65,0Zm.35-1.68a.28.28,0,0,0-.23.11.52.52,0,0,0-.1.34.75.75,0,0,0,.13.46.31.31,0,0,0,.25.13.28.28,0,0,0,.23-.11.52.52,0,0,0,.1-.34.8.8,0,0,0-.13-.47.31.31,0,0,0-.25-.13Z"/><path class="cls-2" d="M82.92,85.2v.59h-.06a.74.74,0,0,0-.19-.38.42.42,0,0,0-.28-.1.34.34,0,0,0-.22.07.21.21,0,0,0-.08.16.3.3,0,0,0,.06.18.63.63,0,0,0,.24.16l.28.14a.55.55,0,0,1,.38.49.46.46,0,0,1-.18.38.63.63,0,0,1-.4.14,1.42,1.42,0,0,1-.36,0L82,87a.06.06,0,0,0-.06.05h-.07v-.62h.07a.7.7,0,0,0,.2.4.51.51,0,0,0,.33.13.26.26,0,0,0,.21-.07.23.23,0,0,0,.09-.18.29.29,0,0,0-.1-.22,1.69,1.69,0,0,0-.36-.23A1,1,0,0,1,82,86a.39.39,0,0,1-.08-.27.47.47,0,0,1,.14-.36.54.54,0,0,1,.38-.15,1.11,1.11,0,0,1,.25,0l.13,0s0,0,0,0l0-.06Z"/><path class="cls-2" d="M85.33,85.39v1.14a.59.59,0,0,0,0,.3.21.21,0,0,0,.19.08h.16V87h-1v-.07h.07a.32.32,0,0,0,.14,0,.24.24,0,0,0,.09-.11,1,1,0,0,0,0-.24V85.39h-.34v-.13H85v-.12a1.11,1.11,0,0,1,.08-.44.73.73,0,0,1,.26-.29.7.7,0,0,1,.38-.11.58.58,0,0,1,.37.13.27.27,0,0,1,.11.19.16.16,0,0,1,0,.1.13.13,0,0,1-.11,0,.16.16,0,0,1-.09,0,.37.37,0,0,1-.12-.13.43.43,0,0,0-.13-.14.28.28,0,0,0-.13,0,.24.24,0,0,0-.23.2,4.07,4.07,0,0,0,0,.5v.12h.45v.14Z"/><path class="cls-2" d="M86.64,85.2v.39c.15-.26.29-.39.45-.39a.23.23,0,0,1,.17.07.18.18,0,0,1,.06.14.15.15,0,0,1,0,.13.18.18,0,0,1-.12,0,.26.26,0,0,1-.15-.07.23.23,0,0,0-.12-.06.1.1,0,0,0-.07,0,1.14,1.14,0,0,0-.18.25v.83a.57.57,0,0,0,0,.22.2.2,0,0,0,.08.08.39.39,0,0,0,.18,0V87h-.88v-.07a.45.45,0,0,0,.19,0,.16.16,0,0,0,.07-.09,1.21,1.21,0,0,0,0-.19v-.67a2.17,2.17,0,0,0,0-.36.12.12,0,0,0,0-.08.11.11,0,0,0-.08,0l-.14,0v-.07l.52-.21Z"/><path class="cls-2" d="M88.46,85.2a.81.81,0,0,1,.63.3,1,1,0,0,1,.2.59,1.12,1.12,0,0,1-.11.47.81.81,0,0,1-.74.48.73.73,0,0,1-.62-.32.93.93,0,0,1-.2-.58.94.94,0,0,1,.12-.47.81.81,0,0,1,.31-.35A.93.93,0,0,1,88.46,85.2Zm-.06.13a.36.36,0,0,0-.2.06.39.39,0,0,0-.16.2A1.07,1.07,0,0,0,88,86a1.47,1.47,0,0,0,.15.65.45.45,0,0,0,.4.27.37.37,0,0,0,.3-.15.84.84,0,0,0,.12-.52,1.18,1.18,0,0,0-.2-.72A.42.42,0,0,0,88.4,85.33Z"/><path class="cls-2" d="M90.25,85.57c.13-.12.2-.2.22-.22l.18-.11a.65.65,0,0,1,.2,0,.42.42,0,0,1,.28.1.46.46,0,0,1,.15.27,1.18,1.18,0,0,1,.33-.3.64.64,0,0,1,.28-.07.42.42,0,0,1,.24.07.48.48,0,0,1,.17.23,1.34,1.34,0,0,1,0,.35v.74a.82.82,0,0,0,0,.22.18.18,0,0,0,.08.07.23.23,0,0,0,.16,0V87h-.85v-.07h0a.25.25,0,0,0,.17,0,.18.18,0,0,0,.06-.09,1.28,1.28,0,0,0,0-.19v-.74a.6.6,0,0,0,0-.3.25.25,0,0,0-.24-.12.46.46,0,0,0-.2,0,1.08,1.08,0,0,0-.24.18v.93a.55.55,0,0,0,0,.22.12.12,0,0,0,.07.07.31.31,0,0,0,.19,0V87h-.87v-.07a.32.32,0,0,0,.19,0,.25.25,0,0,0,.08-.1,1.28,1.28,0,0,0,0-.19v-.74a.67.67,0,0,0-.07-.31.29.29,0,0,0-.23-.12.36.36,0,0,0-.2.06.84.84,0,0,0-.24.18v.93a.55.55,0,0,0,0,.22.16.16,0,0,0,.07.07.63.63,0,0,0,.19,0V87h-.85v-.07a.45.45,0,0,0,.16,0,.16.16,0,0,0,.08-.08.75.75,0,0,0,0-.21v-.66a2.3,2.3,0,0,0,0-.37.12.12,0,0,0,0-.08.11.11,0,0,0-.08,0,.27.27,0,0,0-.12,0l0-.07.52-.21h.08Z"/><path class="cls-2" d="M93.92,84.43h.69l1.57,1.91V84.87c0-.16,0-.26-.06-.29a.24.24,0,0,0-.22-.08h-.08v-.07h.89v.07h-.1a.27.27,0,0,0-.23.1.68.68,0,0,0,0,.27V87h-.07L94.59,85v1.57a.52.52,0,0,0,0,.29.27.27,0,0,0,.22.08H95V87h-.89v-.07h.09a.24.24,0,0,0,.23-.09.55.55,0,0,0,0-.28V84.76a.91.91,0,0,0-.17-.17.47.47,0,0,0-.33-.09Z"/><path class="cls-2" d="M98.05,86.73a2.52,2.52,0,0,1-.33.24.59.59,0,0,1-.22,0,.42.42,0,0,1-.3-.12.49.49,0,0,1-.11-.33.46.46,0,0,1,.06-.22.75.75,0,0,1,.26-.24,4,4,0,0,1,.64-.27v-.07a.58.58,0,0,0-.08-.35.31.31,0,0,0-.24-.1.26.26,0,0,0-.19.07.19.19,0,0,0-.07.14v.11a.23.23,0,0,1,0,.14.17.17,0,0,1-.23,0,.19.19,0,0,1,0-.13.4.4,0,0,1,.17-.3.75.75,0,0,1,.46-.13.81.81,0,0,1,.38.07.39.39,0,0,1,.17.19,1.23,1.23,0,0,1,0,.33v.58c0,.11,0,.21,0,.31a.11.11,0,0,0,0,.07l0,0h0l.16-.14v.1c-.14.19-.28.29-.41.29a.17.17,0,0,1-.14-.07A.33.33,0,0,1,98.05,86.73Zm0-.12V86l-.37.16a.6.6,0,0,0-.21.18.31.31,0,0,0-.06.19.27.27,0,0,0,.08.23.25.25,0,0,0,.19.09.67.67,0,0,0,.37-.19Z"/><path class="cls-2" d="M99.48,84.69v.57h.4v.13h-.4v1.12a.36.36,0,0,0,0,.22.14.14,0,0,0,.12.06.16.16,0,0,0,.12,0,.23.23,0,0,0,.09-.11h.08a.67.67,0,0,1-.19.28.45.45,0,0,1-.25.09.34.34,0,0,1-.17-.05.28.28,0,0,1-.12-.14.84.84,0,0,1,0-.27V85.39H98.9v-.07a.7.7,0,0,0,.21-.14A.87.87,0,0,0,99.3,85a1.23,1.23,0,0,0,.12-.26Z"/><path class="cls-2" d="M101.76,85.26v1a2.29,2.29,0,0,0,0,.37.16.16,0,0,0,0,.09.09.09,0,0,0,.07,0,.5.5,0,0,0,.13,0l0,.06-.52.21h-.08v-.36a1.38,1.38,0,0,1-.34.3.54.54,0,0,1-.25.06.33.33,0,0,1-.25-.08.48.48,0,0,1-.15-.22,1.5,1.5,0,0,1,0-.37v-.77a.33.33,0,0,0,0-.17.18.18,0,0,0-.08-.07.63.63,0,0,0-.19,0v-.07h.6v1.16a.39.39,0,0,0,.09.31.3.3,0,0,0,.2.08.59.59,0,0,0,.19,0,1.16,1.16,0,0,0,.24-.2v-1a.29.29,0,0,0,0-.2.46.46,0,0,0-.22-.06v-.07Z"/><path class="cls-2" d="M102.87,85.2v.39q.22-.39.45-.39a.23.23,0,0,1,.17.07.18.18,0,0,1,0,.27.17.17,0,0,1-.12,0,.21.21,0,0,1-.14-.07.31.31,0,0,0-.13-.06.1.1,0,0,0-.07,0,.85.85,0,0,0-.17.25v.83a.42.42,0,0,0,0,.22.18.18,0,0,0,.09.08.34.34,0,0,0,.18,0V87h-.89v-.07a.45.45,0,0,0,.2,0,.21.21,0,0,0,.06-.1.55.55,0,0,0,0-.18v-.67a2.17,2.17,0,0,0,0-.36.14.14,0,0,0,0-.09l-.08,0a.31.31,0,0,0-.13,0l0-.07.52-.21Z"/><path class="cls-2" d="M104.14,85.91a.93.93,0,0,0,.18.6.56.56,0,0,0,.45.22.52.52,0,0,0,.29-.09.75.75,0,0,0,.21-.32l.06,0a.91.91,0,0,1-.23.47.64.64,0,0,1-.48.22.69.69,0,0,1-.53-.25,1,1,0,0,1-.22-.65,1,1,0,0,1,.23-.69.76.76,0,0,1,.57-.25.67.67,0,0,1,.47.19.72.72,0,0,1,.19.52Zm0-.11h.8a1,1,0,0,0,0-.24.38.38,0,0,0-.34-.22.38.38,0,0,0-.28.12A.48.48,0,0,0,104.14,85.8Z"/><polygon class="cls-2" points="57.79 72.32 57.79 72.43 58.4 72.43 58.4 76.5 55.09 76.5 55.09 72.43 55.69 72.43 55.69 72.32 51.97 72.32 51.97 72.43 52.6 72.43 52.6 81.66 51.99 81.66 51.99 81.77 55.7 81.77 55.7 81.66 55.09 81.66 55.09 77.18 58.4 77.18 58.4 81.66 57.79 81.66 57.79 81.77 60.9 81.77 61.5 81.77 61.5 81.66 60.9 81.66 60.9 72.43 61.5 72.43 61.5 72.32 60.9 72.32 57.79 72.32"/><path class="cls-2" d="M73.21,81.77,69.9,73.89a2.57,2.57,0,0,0-2.37-1.57H65.72v.11c.93,0,1.48,1.35,1.56,1.52l-2.34,7.41a.42.42,0,0,1-.4.3h-.78v.11h2.82v-.11h-.84a.14.14,0,0,1-.14-.15v0l.82-2.58h2.89l.5,1.26a2.57,2.57,0,0,0,2.39,1.62ZM69,78.22h-2.4l1.06-3.34Z"/><path class="cls-2" d="M83.51,72.42v-.1H80.63v.1h1a.15.15,0,0,1,.14.15.07.07,0,0,1,0,.05l-1.88,4.45-2.34-3.75a2.14,2.14,0,0,0-1.81-1H74.32l3.16,5.09v4.25H76.24v.11h5.07v-.11H80.07v-3.4l2.41-5.66a.28.28,0,0,1,.26-.18Z"/><path class="cls-2" d="M97.33,80.54A1.6,1.6,0,0,1,95.93,82h0a1.27,1.27,0,0,1-.51-.08,1.23,1.23,0,0,1-.26-.12l-.06.1.21.1a2.12,2.12,0,0,0,.4.14c.19.06.38.1.57.14a4.49,4.49,0,0,0,.73.06h0a2.92,2.92,0,0,0,2.92-2.92v-7h1.21v-.11h-5v.11h1.22Z"/><polygon class="cls-2" points="103.42 72.43 104.64 72.43 104.64 81.66 103.42 81.66 103.42 81.77 108.44 81.77 108.44 81.66 107.23 81.66 107.23 72.43 108.44 72.43 108.44 72.32 103.42 72.32 103.42 72.43"/><path class="cls-2" d="M114.29,73.18a2.66,2.66,0,0,0-2-.86H110v.1a3.74,3.74,0,0,1,1.83,1.34v7.61a.29.29,0,0,1-.28.29H111v.11h2.24v-.11h-.47a.29.29,0,0,1-.29-.29V74.52l6.7,7.25h.4V72.71a.29.29,0,0,1,.29-.28h.64v-.11H118v.11h.65a.29.29,0,0,1,.29.28v5.63Z"/><path class="cls-2" d="M88.91,77.37v3.72h2.46a1.43,1.43,0,0,0,1.43-1.43v-.54h.13v2.65H85.25v-.11h1.06V72.43H85.25v-.11h7.67V75H92.8v-.54A1.43,1.43,0,0,0,91.37,73H88.91v3.68h1.54a1,1,0,0,0,1-1v-.46h.11v3.62h-.11v-.46a1,1,0,0,0-1-1Z"/></svg>