<svg id="Layer_1" data-name="Layer 1" xmlns="http://www.w3.org/2000/svg" viewBox="0 0 158 158"><defs><style>.cls-1{fill:#322f31;}.cls-2{fill:#fff;}</style></defs><title>logo collection</title><rect class="cls-1" width="158" height="158"/><path class="cls-2" d="M81.65,72.23a2.36,2.36,0,1,0-2.36-2.36A2.35,2.35,0,0,0,81.65,72.23Zm-6.81,0a2.36,2.36,0,1,0-2.36-2.36A2.35,2.35,0,0,0,74.84,72.23ZM98.1,65.8a7.9,7.9,0,0,0-6-2.65H69.38a10.33,10.33,0,0,0-9.95,8.7l-1.35,10a7.76,7.76,0,0,0,7.87,9H88.62a10.33,10.33,0,0,0,9.95-8.7l1.35-10A7.88,7.88,0,0,0,98.1,65.8Zm-.32,6-1.35,10a8.12,8.12,0,0,1-7.82,6.84H66a5.62,5.62,0,0,1-5.73-6.56l1.35-10a8.11,8.11,0,0,1,7.82-6.84H92.06a5.6,5.6,0,0,1,5.72,6.55ZM71.7,80.51a4.91,4.91,0,0,1,.2-1.15s.42-1.37.74-2.14a2.37,2.37,0,0,1,2.19-1.64h1.73c2.63,0,2.78,1,2.78,1.43a2.39,2.39,0,0,1-.12.65l-1,2.91h6.1a22,22,0,0,0,1.22-4.2,2.31,2.31,0,0,0-1.08-1.88,5.47,5.47,0,0,0-3.21-.93H72.74c-3.86,0-5.75,1-6.74,2.42a11.44,11.44,0,0,0-1.36,4.84c0,2.77,1,3.76,2.36,4.52,1.5.83,4.87.75,4.87.75H89.52a1.37,1.37,0,0,0,1.33-1L91.56,83H75.27C71.52,83,71.7,81,71.7,80.51Z"/></svg>