<svg id="Layer_1" data-name="Layer 1" xmlns="http://www.w3.org/2000/svg" viewBox="0 0 158 158"><defs><style>.cls-1{fill:#322f31;}.cls-2{fill:#fff;}</style></defs><title>logo collection</title><rect class="cls-1" width="158" height="158"/><path class="cls-2" d="M75.73,77.1V68.87h5.35V84.78h-5.8a.21.21,0,0,1-.21-.12l-4.68-8.11-.11-.17v8.39H65.05V68.87h5.77A.2.2,0,0,1,71,69l4.61,8,.08.14Z"/><path class="cls-2" d="M100.88,81.85l3.32,2.6-3,3.12-.17-.15-3.41-3a.17.17,0,0,0-.2,0,11.1,11.1,0,0,1-4.31.64,12.12,12.12,0,0,1-3.38-.54,7.48,7.48,0,0,1-3.09-1.83,6.89,6.89,0,0,1-1.8-3.37A9.57,9.57,0,0,1,85,74.39a7.93,7.93,0,0,1,4.31-5,9.55,9.55,0,0,1,4.24-1,10.58,10.58,0,0,1,4.58.89,7,7,0,0,1,4.07,5,10.1,10.1,0,0,1-.21,5.45A7.2,7.2,0,0,1,100.88,81.85ZM97,77a5.92,5.92,0,0,0-.34-2.19,3.26,3.26,0,0,0-4.11-2,3.38,3.38,0,0,0-2.09,2,5.38,5.38,0,0,0,0,4.13A3.11,3.11,0,0,0,93.2,81a3.26,3.26,0,0,0,3.31-1.77A4.89,4.89,0,0,0,97,77Z"/><path class="cls-2" d="M59.74,84.77H54.2V68.87h5.54Z"/></svg>