<svg id="Layer_1" data-name="Layer 1" xmlns="http://www.w3.org/2000/svg" viewBox="0 0 158 158"><defs><style>.cls-1{fill:#322f31;}.cls-2{fill:#fff;}</style></defs><title>logo collection</title><rect class="cls-1" width="158" height="158"/><path class="cls-2" d="M68.49,77.53H70v6.24H68.49Z"/><path class="cls-2" d="M77.79,83.77h-1.3l-2.12-3.42h0v3.42H72.9V77.53h1.33l2.1,3.31h0V77.53h1.42Z"/><path class="cls-2" d="M85.53,83.77H84.22L82.1,80.35h0v3.42H80.64V77.53H82l2.09,3.31h0V77.53h1.43Z"/><path class="cls-2" d="M88.16,81.56V79.75a2.37,2.37,0,0,1,4.73,0v1.81a2.37,2.37,0,0,1-4.73,0Zm3.24-.1V79.83c0-.69-.21-1.06-.86-1.06s-.89.37-.89,1.06v1.63c0,.71.23,1.07.89,1.07S91.4,82.17,91.4,81.46Z"/><path class="cls-2" d="M97.65,77.53c1.48,0,2.38.58,2.38,2.06a1.79,1.79,0,0,1-1,1.79l1.34,2.39H98.71l-1.06-2.14h-.56v2.14H95.62V77.53Zm-.56,2.83h.59c.54,0,.86-.19.86-.77s-.33-.8-1-.8h-.5Z"/><path class="cls-2" d="M102.71,77.53h1.48v6.24h-1.48Z"/><path class="cls-2" d="M110,77.53l2,6.24h-1.55l-.36-1.22h-1.55l-.36,1.22h-1.55l2-6.24Zm-.22,3.74-.47-1.81h0l-.47,1.81Z"/><polygon class="cls-2" points="46 83.85 51.23 83.85 51.23 78.61 51.23 73.39 46 78.61 46 83.85"/><polygon class="cls-2" points="59.08 73.39 59.08 68.15 56.46 68.15 53.85 70.77 51.23 73.39 53.85 73.39 53.85 78.61 53.85 83.85 56.46 83.85 59.08 81.23 61.69 78.61 59.08 78.61 59.08 73.39"/><polygon class="cls-2" points="61.69 68.15 61.69 73.39 61.69 78.61 66.92 73.39 66.92 68.15 61.69 68.15"/></svg>