<svg id="Layer_1" data-name="Layer 1" xmlns="http://www.w3.org/2000/svg" viewBox="0 0 158 158"><defs><style>.cls-1{fill:#322f31;}.cls-2{fill:#fff;}</style></defs><title>logo collection</title><rect class="cls-1" width="158" height="158"/><polygon class="cls-2" points="42.79 77.39 46.72 75.93 39 82.62 42.79 77.39"/><polygon class="cls-2" points="39 82.86 48.62 75.27 60.59 74.82 39 82.86"/><polygon class="cls-2" points="39 83.09 55.43 80.43 60.78 75.53 39 83.09"/><polygon class="cls-2" points="39 83.28 59.23 83.14 55.43 81.18 39 83.28"/><path class="cls-2" d="M62.41,82.83l1-7.88a.21.21,0,0,1,.06-.1.13.13,0,0,1,.1,0h1.32a.1.1,0,0,1,.09,0,.12.12,0,0,1,0,.1l-.38,3.1s0,0,0,0,0,0,0,0l2.42-3.17a.2.2,0,0,1,.17-.09h1.46c.07,0,.1,0,.1.07a.23.23,0,0,1,0,.09l-2.51,3.35s0,0,0,.08l1.68,4.41a.11.11,0,0,1,0,.06c0,.07,0,.1-.13.1H66.36a.14.14,0,0,1-.14-.1L65,79.67s-.05,0-.08,0l-.61.76a.25.25,0,0,0,0,.07L64,82.83a.31.31,0,0,1-.05.1.13.13,0,0,1-.1,0H62.54C62.45,83,62.41,82.93,62.41,82.83Z"/><path class="cls-2" d="M73.05,82.86l-.12-1.15s0,0,0,0H70.76s-.05,0-.05,0l-.4,1.15a.18.18,0,0,1-.18.11H68.77c-.1,0-.14,0-.11-.15l3-7.9a.19.19,0,0,1,.18-.11h1.64c.09,0,.14,0,.14.11l1.08,7.9v0c0,.07,0,.11-.13.11H73.19C73.1,83,73.06,82.93,73.05,82.86ZM71.2,80.38s0,0,0,0h1.5a.07.07,0,0,0,.07-.07L72.44,77s0,0,0,0,0,0,0,0L71.2,80.33A0,0,0,0,0,71.2,80.38Z"/><path class="cls-2" d="M76.23,82.92a.12.12,0,0,1,0-.1l.37-3v-.07L75.21,75v0c0-.07,0-.11.13-.11h1.43c.09,0,.13,0,.14.11l.69,3s0,0,0,0,0,0,0,0l1.41-3a.18.18,0,0,1,.17-.11h1.43a.11.11,0,0,1,.1,0,.18.18,0,0,1,0,.12l-2.56,4.8,0,.07-.36,3a.31.31,0,0,1,0,.1.13.13,0,0,1-.1,0H76.33A.13.13,0,0,1,76.23,82.92Z"/><path class="cls-2" d="M83.74,82.86l-.12-1.15s0,0-.05,0H81.45a.05.05,0,0,0-.06,0L81,82.86a.18.18,0,0,1-.17.11H79.45c-.1,0-.13,0-.1-.15l3-7.9a.18.18,0,0,1,.17-.11h1.65a.13.13,0,0,1,.14.11l1.07,7.9v0c0,.07,0,.11-.13.11H83.88C83.79,83,83.74,82.93,83.74,82.86Zm-1.86-2.48a.06.06,0,0,0,.05,0h1.49a.06.06,0,0,0,.07-.07L83.13,77s0,0,0,0a.08.08,0,0,0,0,0l-1.19,3.32A0,0,0,0,0,81.88,80.38Z"/><path class="cls-2" d="M86.3,82.83l1-7.88a.21.21,0,0,1,.06-.1.13.13,0,0,1,.1,0h1.32a.1.1,0,0,1,.09,0,.1.1,0,0,1,0,.1l-.38,3.1s0,0,0,0,0,0,0,0L91,74.9a.2.2,0,0,1,.17-.09H92.6c.07,0,.11,0,.11.07a.31.31,0,0,1,0,.09l-2.51,3.35s0,0,0,.08l1.68,4.41a.11.11,0,0,1,0,.06c0,.07,0,.1-.13.1H90.26a.13.13,0,0,1-.14-.1l-1.22-3.2s-.05,0-.08,0l-.61.76a.25.25,0,0,0,0,.07l-.29,2.33a.31.31,0,0,1-.05.1.13.13,0,0,1-.1,0H86.43C86.34,83,86.3,82.93,86.3,82.83Z"/><path class="cls-2" d="M98.29,76.18a.13.13,0,0,1-.1,0h-3a.07.07,0,0,0-.07.06l-.22,1.82s0,.06,0,.06H96.8c.09,0,.13,0,.13.14l-.14,1.13a.31.31,0,0,1-.05.1.18.18,0,0,1-.1,0H94.71s0,0,0,0l-.4,3.2a.14.14,0,0,1-.05.1.13.13,0,0,1-.1,0H92.82c-.08,0-.12,0-.12-.14l1-7.88a.21.21,0,0,1,.06-.1.15.15,0,0,1,.11,0h4.54a.11.11,0,0,1,.09,0,.12.12,0,0,1,0,.1l-.14,1.13A.19.19,0,0,1,98.29,76.18Z"/><path class="cls-2" d="M98.36,82.83l1-7.88a.21.21,0,0,1,.06-.1.13.13,0,0,1,.1,0h1.32a.13.13,0,0,1,.1,0,.12.12,0,0,1,0,.1l-1,7.88a.19.19,0,0,1,0,.1.13.13,0,0,1-.1,0H98.49C98.41,83,98.36,82.93,98.36,82.83Z"/><path class="cls-2" d="M104.78,82.86,104,79.64a.06.06,0,0,0-.06,0h-.71a.05.05,0,0,0-.06.06l-.39,3.18a.21.21,0,0,1-.06.1.12.12,0,0,1-.1,0h-1.31c-.09,0-.13,0-.13-.14l1-7.89a.1.1,0,0,1,0-.1.13.13,0,0,1,.1,0h2.75a1.9,1.9,0,0,1,1.46.56,2.05,2.05,0,0,1,.54,1.49,2.15,2.15,0,0,1,0,.41,2.68,2.68,0,0,1-.47,1.3,2.38,2.38,0,0,1-1,.82.05.05,0,0,0,0,.08l.87,3.35v0c0,.07,0,.11-.14.11h-1.37C104.83,83,104.79,82.93,104.78,82.86Zm-1.17-6.58-.24,2s0,.06,0,.06h1a1,1,0,0,0,.77-.35,1.24,1.24,0,0,0,.31-.89.93.93,0,0,0-.22-.63.81.81,0,0,0-.6-.23h-1S103.63,76.24,103.61,76.28Z"/><path class="cls-2" d="M107.93,82.53a1.8,1.8,0,0,1-.62-1.42c0-.07,0-.17,0-.33l0-.31a.16.16,0,0,1,0-.1.13.13,0,0,1,.1,0h1.31a.11.11,0,0,1,.11.14l0,.23a.82.82,0,0,0,.21.68,1,1,0,0,0,.73.27,1,1,0,0,0,.75-.26.9.9,0,0,0,.27-.66.71.71,0,0,0-.27-.56,6.56,6.56,0,0,0-1-.63,9.29,9.29,0,0,1-1-.6,2.25,2.25,0,0,1-.63-.67,1.87,1.87,0,0,1-.26-1,2.52,2.52,0,0,1,.36-1.35,2.39,2.39,0,0,1,1-.9,3.11,3.11,0,0,1,1.41-.32,2.46,2.46,0,0,1,1.69.56,1.88,1.88,0,0,1,.63,1.49,2.28,2.28,0,0,1,0,.32l0,.24a.27.27,0,0,1-.06.1.15.15,0,0,1-.1,0h-1.3a.13.13,0,0,1-.09,0,.1.1,0,0,1,0-.1l0-.21s0-.08,0-.14a.79.79,0,0,0-.25-.6,1,1,0,0,0-.69-.24,1,1,0,0,0-.71.25.89.89,0,0,0-.27.69.71.71,0,0,0,.27.56,5.21,5.21,0,0,0,1,.63l.25.15a9.05,9.05,0,0,1,.87.59,2.22,2.22,0,0,1,.53.61,1.64,1.64,0,0,1,.21.84,2.85,2.85,0,0,1-.93,2,3,3,0,0,1-1.93.63A2.5,2.5,0,0,1,107.93,82.53Z"/><path class="cls-2" d="M119,74.85a.12.12,0,0,1,0,.1l-.14,1.14a.21.21,0,0,1-.06.1.11.11,0,0,1-.09,0H117a.07.07,0,0,0-.06.06l-.8,6.54a.21.21,0,0,1-.06.1.12.12,0,0,1-.1,0h-1.31c-.09,0-.13,0-.13-.14l.8-6.54s0-.06,0-.06h-1.67a.13.13,0,0,1-.1,0,.12.12,0,0,1,0-.1l.14-1.14a.31.31,0,0,1,.05-.1.13.13,0,0,1,.1,0h5.1A.1.1,0,0,1,119,74.85Z"/></svg>