<svg id="Layer_1" data-name="Layer 1" xmlns="http://www.w3.org/2000/svg" viewBox="0 0 158 158"><defs><style>.cls-1{fill:#322f31;}.cls-2{fill:#fff;}</style></defs><title>logo collection</title><rect class="cls-1" width="158" height="158"/><path class="cls-2" d="M76.51,74.66s0,.12.11.07a1.19,1.19,0,0,0,.16-.16s0,0,0-.09a.12.12,0,0,0-.09-.08s-.12,0-.13,0,0-.06-.06-.07-.08,0-.12,0-.09,0-.09.09,0,.14,0,.15.07.06.12.07.07,0,.11,0m-3.42-.57a.81.81,0,0,0,.36.22c.19,0,.37,0,.43,0s.08.13.17.11.18-.15.18-.15a.55.55,0,0,0-.25-.1.7.7,0,0,1-.37-.1,5.43,5.43,0,0,1-.63-.54,2.32,2.32,0,0,0-.23-.3s-.1-.14-.2-.15-.26,0-.21.12.2.28.2.28l.29.4.26.23Zm5.78,7a5.46,5.46,0,0,0,1.13,0,4.54,4.54,0,0,0,.49-.14c.1,0,.17,0,.15-.15s-.21-.24-.33-.29a3.92,3.92,0,0,0-.52-.1c-.11,0-1.13,0-1.2,0l-.4.17c-.1,0-.25.07-.26.15s0,.27.13.31a4.33,4.33,0,0,0,.5,0h.31M76,81s.15.13.13.59-.11.63-.11.81,0,.74,0,.74,0,.51-.12.31a2,2,0,0,1-.09-.63,11.69,11.69,0,0,1,0-1.41,3.71,3.71,0,0,1,.15-.4Zm.7,5.95,0-1.73s-.09-.13-.15-.13,0,0,0,.05-.1.69-.1.7,0,.84-.14.87h-.13a.18.18,0,0,1-.21-.2c0-.14,0-.4,0-.63s0-.28,0-.37.08-.55.15-1,.12-.72.14-.88,0-.33,0-.55c0-.39.06-.79.08-.87s.1-.48.15-.74,0-.25,0-.26v-.07a.24.24,0,0,1,0-.15.06.06,0,0,1,.08,0c.15.07.2.21.24.48a2.08,2.08,0,0,1,0,.61c0,.1,0,.18,0,.25s0,.3,0,.5,0,.37,0,.45v.43c0,.13,0,.24,0,.29v0c0,.39,0,.59.07.61l0,0s0,0,.08,0,.08-.07.12-.23a8.19,8.19,0,0,0,.11-.93c0-.15,0-.27,0-.36v-.08a8.45,8.45,0,0,1,.21-1.2c.08-.17.2-.38.28-.38s0,0,0,0a2.77,2.77,0,0,1,.09.85,3.26,3.26,0,0,0,0,.33,6,6,0,0,1,0,.94c0,.17-.08.47-.08.47v0h0l-.09-.05h0l-.11,0q-.09,0-.09.12c0,.2-.16.87-.16.9s-.06.83-.09,1S77,87,77,87h-.37Zm.78-.29s0,.38.12.46.2.23.26.12a6.3,6.3,0,0,0,.08-1s.08-.86.07-.93,0-.25-.11-.19a.82.82,0,0,0-.28.36c0,.15,0,.24-.08.38a4.59,4.59,0,0,0,0,.52s0,.26,0,.26m1.19-1.89s-.06.88-.08,1a4.74,4.74,0,0,0-.08.6c0,.15.07.43,0,.51s-.2.19-.25.12a2.81,2.81,0,0,1-.11-.4s0-1,.07-1.27,0-1.38,0-1.46-.08-.68-.08-.73.07-.38.07-.38.1-.32.15-.14.15.45.15.45a3.58,3.58,0,0,1,.13.6c0,.15,0,1.06,0,1.06m.56-2.39s.11.53.14.88,0,1,0,1.07,0,.73,0,.73-.07.34-.08.44a5.34,5.34,0,0,0-.05.69,2,2,0,0,1,.09.44c0,.07,0,.21-.2.15s-.28-.13-.29-.27a2.69,2.69,0,0,1,0-.57c0-.11.08-1,.1-1s0-.35,0-.62a6.66,6.66,0,0,0,0-1,2.72,2.72,0,0,1-.1-.58c0-.09-.06-.44,0-.54S79,81.89,79,82s.15.4.15.4m.72-.36a1,1,0,0,1,.09.29c0,.07.06.14.13,0a.54.54,0,0,0,.1-.25c0-.07,0-.35.07-.23a1,1,0,0,1,.07.32l.06.9s0,.29.06.51.1.68.1.68.07,1,.08,1.09.06.61.06.61a3.26,3.26,0,0,1,0,.67s-.08.07-.16,0-.13-.4-.13-.58,0-.63,0-.63-.1-.06-.09-.42a2.52,2.52,0,0,0,0-.57l-.06-.11a4.14,4.14,0,0,0,0-.45.59.59,0,0,1-.05-.12l0-.31s-.12-.13-.1,0,0,.79,0,.79a.69.69,0,0,1,.06.28A2.47,2.47,0,0,1,80,85a4.38,4.38,0,0,0,0,.69s0,.33,0,.39v.45s-.07.27-.13.29-.14.12-.21,0a.42.42,0,0,1-.09-.37c0-.17.09-1.52.09-1.52s0-1.33,0-1.37-.06-1.08-.06-1.08a1.69,1.69,0,0,1-.08-.5.32.32,0,0,1,.27-.13c.07,0,.07.07.1.16m1.18-.62a1.27,1.27,0,0,1,.24.69,5.62,5.62,0,0,0,.21,1c0,.15.14.67.13.76s.11.85.11.85l.14.28.06,1s-.06.29-.15.31-.23,0-.25,0a4.53,4.53,0,0,1,0-.75,1,1,0,0,0-.06-.4,6.31,6.31,0,0,1-.13-.62c0-.06,0-.71-.06-.78s-.39-1.48-.39-1.48,0-.68.07-.75,0-.16.12,0m.92.89a.16.16,0,0,1,.09,0,.51.51,0,0,1,.28.35c0,.22,0,.87,0,.87a5.19,5.19,0,0,1,.16,1c0,.24,0,.48,0,.48s-.11,0-.14-.24-.15-.87-.15-.87a7.16,7.16,0,0,0-.24-.83c-.09-.19-.18-.19-.15-.37a1.08,1.08,0,0,1,0-.35s.11,0,.11,0m.11-.94s-.06.24.13.17.18-.2.23-.44,0-.47-.07-.48-.16,0-.18.09a1.79,1.79,0,0,1,0,.34,1.46,1.46,0,0,0-.08.32m.48-2s.39,0,.39.54a4,4,0,0,0,.06.79l-.17.41a1.45,1.45,0,0,1-.16-.39,5.64,5.64,0,0,1-.09-.61c0-.11,0-.74,0-.74m.66-2.81s0-.09,0-.12.14.13.14.21a3.12,3.12,0,0,1,0,.68,3,3,0,0,0-.06.34.87.87,0,0,0,0,.36,2.11,2.11,0,0,0,.15.41c.06.15.12.28.14.34a2.69,2.69,0,0,1,.2.75c0,.18,0,.36.06.5a1.81,1.81,0,0,1,0,.37.65.65,0,0,1,0,.13.88.88,0,0,1,0,.15.49.49,0,0,0,0,.34,1.28,1.28,0,0,0,.16.27,1.53,1.53,0,0,1,.13.16,5.43,5.43,0,0,1,.35.87c0,.17.27,1.06.33,1.35a7.45,7.45,0,0,1,.14.92c0,.09,0,.2,0,.3l0,.12a.12.12,0,0,1,0,0l-.27.14,0,0s-.12-.15-.2-.27a3.45,3.45,0,0,1,0-.91l0-.38s0,.09-.05.09a0,0,0,0,1,0,0,.08.08,0,0,1-.07,0s0-.16,0-.2L84,82.81s-.19-.6-.22-.71,0-.09-.08-.09,0,0,0,0h0s-.06.5-.08.63a2.22,2.22,0,0,0,0,.35,3,3,0,0,0,0,.32,2.16,2.16,0,0,1,0,.31.63.63,0,0,1,0,.19s0,0,0,.06v0l0,0s0-.12,0-.18-.13-.75-.15-.84a1.66,1.66,0,0,1-.06-.31l0-.38a5.86,5.86,0,0,1,.07-.94l.06-.15s.05-.11.08-.2a2.5,2.5,0,0,0,.06-.75c0-.13-.12-.64-.15-.76s-.21-.57-.24-.65a4.57,4.57,0,0,1,0-.73s0-.26,0-.47,0-.4,0-.43,0-.16,0-.27l0-.25"/><path class="cls-2" d="M81.86,77.05a4.32,4.32,0,0,0,.61-.52,1.53,1.53,0,0,0,.31-.53c0-.1,0-.34-.2-.16a3.51,3.51,0,0,1-.51.31,1.93,1.93,0,0,0-.13.24s-.15.53-.15.53l.07.13Zm-5.16-.86s-.2.17-.34.12a2,2,0,0,1-.6-.43c-.05-.1-.13-.38-.18-.34a.43.43,0,0,0-.11.18.38.38,0,0,0,0,.17c0,.15,0,.54.19.66s.3.39.5.37.46-.12.47-.17,0-.56,0-.56m-1-1.19v0a.54.54,0,0,0,0,.08.69.69,0,0,0,.25.35l.09.07.1.08a.63.63,0,0,0,.23.12,1.9,1.9,0,0,0,.37,0H77a2.13,2.13,0,0,1,.18.26,1.46,1.46,0,0,1,.07.19.65.65,0,0,1,0,.1l.11.16s0,0,0,0,0,0,0,0h0a.37.37,0,0,0,.27-.37c0-.14-.18-.87-.2-1s0-.09-.06-.16h.74a1.86,1.86,0,0,0,.15.52.47.47,0,0,0,.24.07c.15,0,0,.11-.07.22s0,.32,0,.37a.2.2,0,0,1,.07.15,1.34,1.34,0,0,0-.15.27c0,.11.23.23.31.19a1.83,1.83,0,0,0,.28-1.14c0-.46,0-.59.11-.65h.2a1.72,1.72,0,0,1,0,.34c0,.1,0,.66,0,.66s0,.54,0,.63.14.11.28.2a.13.13,0,0,0,.2,0s0-.13,0-.18a.42.42,0,0,1-.16-.23.44.44,0,0,1,0-.18s.23,0,.22-.09-.14-.23-.15-.34.12-.11.12-.11.14-.27.23-.48a.59.59,0,0,1,.13-.18H81c-.12.29-.31.87-.35,1a3.6,3.6,0,0,0,0,.74l.21,0A1.53,1.53,0,0,1,81,76.3a4.83,4.83,0,0,1,.39-.58,2.92,2.92,0,0,0,.69,0,1.52,1.52,0,0,0,.5-.4,1.35,1.35,0,0,1,.19-.28h.71v.12s0,0,0,0A2.77,2.77,0,0,0,84.4,75h.52a.19.19,0,0,0,0,.08s0,.06,0,.07a1.7,1.7,0,0,0,.59-.15h.7c-.15.12-.29.25-.38.31a8.35,8.35,0,0,1-1.17.46,3.83,3.83,0,0,1-.71.09c-.21,0-.6,0-.64-.18s0-.13,0-.14h-.21a4.94,4.94,0,0,1,0,1,1.91,1.91,0,0,1-.21.63s-.08.19-.16.33a3,3,0,0,1-.33.65,1.74,1.74,0,0,1-.6.54.42.42,0,0,1-.18-.14.36.36,0,0,1-.07-.1l-.07-.08c-.1-.1-.18,0-.19,0a.09.09,0,0,0,0,.07l0,.07,0,.08,0,0a3.22,3.22,0,0,1,.15.55,1.59,1.59,0,0,1,0,.65.82.82,0,0,1-.44.36,1.91,1.91,0,0,1-.55-.06.47.47,0,0,1-.22-.09,1.42,1.42,0,0,1-.18-.11s0,0,0-.06l.07,0,.06,0a2,2,0,0,0,.41-.29.39.39,0,0,0,0-.23c0-.08,0-.17,0-.23a2.41,2.41,0,0,0-.16-.54.12.12,0,0,0-.14,0l-.06,0h0l-.44.17s-.28,0-.58,0h-.65a1.19,1.19,0,0,1-.47-.16.12.12,0,0,0-.16,0,.58.58,0,0,0-.1.12.62.62,0,0,0,0,.1l0,.14a1.31,1.31,0,0,1-.07.27c0,.08,0,.2,0,.3s.09.16.14.24a.63.63,0,0,0,.17.1l.1,0,.09.05c.07,0,0,.16,0,.2a3.67,3.67,0,0,1-.64.12.83.83,0,0,1-.51-.22,1.32,1.32,0,0,1-.18-.61.69.69,0,0,1,.06-.26c0-.1.07-.18.08-.21a1.13,1.13,0,0,0,0-.45c0-.1-.07-.12-.12,0a.5.5,0,0,0,0,.13l0,.11a1.79,1.79,0,0,1-.13.22s0-.06-.07-.09l0,0-.09,0c-.1,0-.26-.32-.33-.5s-.09-.17-.13-.27a.76.76,0,0,1-.1-.31q0-.09,0-.15a.27.27,0,0,0,0-.12.24.24,0,0,0-.16-.15c-.11,0-.2.36-.22.46a6.37,6.37,0,0,0,0,1,7.24,7.24,0,0,0,0,.74,3.42,3.42,0,0,1,0,.87c0,.05-.24,0-.3,0s0,0,0,0,0-.07,0-.11,0-.22,0-.39a.28.28,0,0,0,0-.16.06.06,0,0,0-.1,0,.44.44,0,0,0-.1.19,1.12,1.12,0,0,0,0,.56,6.9,6.9,0,0,1,.31,1.19c0,.22.15,1.6.15,1.6s0,1.48,0,1.74a2.36,2.36,0,0,1-.1.78s-.26,0-.29,0a.33.33,0,0,1,0-.12,1.18,1.18,0,0,0,0-.19c0-.08,0-.18,0-.28l0-.12a.34.34,0,0,0,0-.09,1.8,1.8,0,0,1,.08-.53,1.86,1.86,0,0,0,0-.52c0-.22,0-.44,0-.49a3.54,3.54,0,0,0-.09-.49c0-.1,0-.21-.06-.29a1.54,1.54,0,0,1,0-.16,2.7,2.7,0,0,0-.15-.69c0-.06-.08-.06-.12,0a1.38,1.38,0,0,0-.06.16c0,.14-.06.31-.08.39a1.69,1.69,0,0,0,0,.21l0,.35a5,5,0,0,1-.09.67,5,5,0,0,0-.12.71c0,.13-.08.61-.1.66a.93.93,0,0,1-.36.44l-.09,0s-.17-.12-.13-.38.38-1.57.43-1.78.5-2.11.6-2.55.27-1.43.37-1.76a5.83,5.83,0,0,0,.25-1.27,8,8,0,0,0,0-1.12,1.64,1.64,0,0,1,.2-.63.13.13,0,0,0,0-.06s0-.06,0-.1v-.52a.13.13,0,0,1,0-.06ZM73,75l0,0,0,0s0,0,0,0l0,0h0l.11,0h.18l0,0,.14.08.13.08a.2.2,0,0,1,.08,0l.08,0a3.4,3.4,0,0,1,.29.26,0,0,0,0,1,0,0l-.12,0-.18,0c-.19,0-.39-.16-.46-.17a7,7,0,0,1-1.27-.54L72,75Z"/><path class="cls-2" d="M78.77,74.82a.4.4,0,0,0,.26-.21.82.82,0,0,0,.18-.4c0-.09,0-.18-.21,0a1.48,1.48,0,0,0-.31.43c0,.12-.14.25-.07.23s0,0,.15-.07m.59.18s0-.08-.08-.06a.34.34,0,0,0-.12.06Zm-4,0v0a.85.85,0,0,1,.21-.11l0,0s0,0,0,0,0,.08,0,.14V75Zm11.81-.89a6.14,6.14,0,0,1-.47.46l-.41.34-.1.09h-.7l.06,0a6.72,6.72,0,0,0,1.09-.76l.09-.1Zm-1,0-.26.23a2.66,2.66,0,0,1-.44.38c-.14.07-.44.18-.46.21a.22.22,0,0,0-.06.07h-.51l.13-.06c.15-.08.27-.1.33-.15s.19-.19.19-.25,0-.13,0-.13h-.16s0-.06.06-.1.49-.16.54-.18l0,0Zm-2.83,0a.5.5,0,0,1,0,.12l-.09.48a1.38,1.38,0,0,1-.33.11c-.17,0-.08.15-.08.15l0,0h.71a2.12,2.12,0,0,1,0-.24c0-.16,0-.08.06-.11s0-.19,0-.23a.76.76,0,0,1,.09-.18s.08,0,.16-.09l0,0Zm-.9,0a.88.88,0,0,1,.13.25s0,.13.09,0a.77.77,0,0,0,0-.27Zm-1.87,0c0,.11,0,.21,0,.32a1.06,1.06,0,0,1-.09.43s-.09.08-.16.14H81l.06-.12a4.38,4.38,0,0,1,.43-.77Zm-2.7,0,0,0,0,0h-.75a.68.68,0,0,1,.12.21c0,.07.2.45.29.68h.74v-.06a7.88,7.88,0,0,0-.07-.83Zm-2,0-.1.09,0,0-.06,0-.12-.06-.08,0h.41Zm-4.19,0,.18.08,0,0h0l.07,0,.12.06a.33.33,0,0,0,.16.05h.39l0,.05.05,0,.11.07a.12.12,0,0,1,0,0h-.3l-.07,0a.15.15,0,0,0,0,.06s0,0,0,0a0,0,0,0,0,0,.06l0,0,.06,0h.1l.1,0a.23.23,0,0,1,.1,0,.12.12,0,0,1,0,0H72a7.62,7.62,0,0,1-1.1-.89Z"/><path class="cls-2" d="M78.75,73.8c.11,0,.23,0,.28-.08s.25-.31.1-.29-.23,0-.28,0-.2.31-.1.32m-.62.31a2.13,2.13,0,0,0,0-.25l-.13,0a.39.39,0,0,1,0,.15l-.08.15Zm9.75-.89-.35.53-.34.36h-.44a3.4,3.4,0,0,0,.36-.42.44.44,0,0,0,0-.26s-.06,0-.07,0,0-.07,0-.1l.15-.07Zm-1,0c-.1.14-.39.5-.45.59a2.71,2.71,0,0,1-.3.3H85.5l.38-.22.08-.08s0-.13-.08-.15l-.32,0s0-.13,0-.15l.71-.26h.63Zm-1.73,0s0,0,.07,0Zm-2.39,0a.19.19,0,0,0,0,.07,5.13,5.13,0,0,0,.46.57.41.41,0,0,1,.06.25h.56c.1-.15.33-.6.53-.89h-1a.16.16,0,0,1-.18.06.24.24,0,0,1-.09-.06Zm-1.46,0,0,0s-.07.22-.16.26a.24.24,0,0,1-.24-.07.22.22,0,0,0-.13-.06.11.11,0,0,0-.1.07l-.06.4a.4.4,0,0,1-.06.2v0h.94a.54.54,0,0,1,.14-.13c.2-.11.4-.22.64,0l.15.16h.22a1.24,1.24,0,0,0,0-.24s-.21-.37-.24-.46,0-.12-.06-.19Zm-4.1,0c0,.13,0,.2-.08.08a.27.27,0,0,1-.07-.08H74.77l.4.38a.2.2,0,0,0,.1,0l.19,0c.05,0,.06,0,.06.07s0,0,0,0l0,.35h.41l0,0L76,74a.94.94,0,0,1,.22-.12.57.57,0,0,1,.21-.06h.1l.14,0a.58.58,0,0,1,.34.25h.75c0-.11-.07-.22-.1-.33s-.09-.38-.14-.56Zm-3.46,0v.16l-.24-.16Zm-2.62,0a.28.28,0,0,0,0,.13.34.34,0,0,0,.06.06l.06,0a.35.35,0,0,0,.14.06h.1l0,0,0,0,0,0h.29l.08.05.11.06a.23.23,0,0,1,0,.05s0,.06,0,.09-.17,0-.19,0l-.09,0a.17.17,0,0,0-.17,0,.21.21,0,0,0,0,.06s0,0,0,0,0,.07,0,.1v0s0,0,0,0h-.81l0,0a4,4,0,0,1-.38-.5l-.23-.35Z"/><path class="cls-2" d="M82.29,73.22a.78.78,0,0,0-.07-.17.3.3,0,0,0-.16-.08h-.24s-.08.13-.09.07.07-.18.07-.18,0-.08-.11-.07-.17,0-.22.08l-.16.34Zm-4.73,0,0-.09s0-.23-.1-.23a.44.44,0,0,0-.17.06s0,0-.05.16v.1Zm10.83-.89a2.81,2.81,0,0,1-.13.33c0,.08-.21.32-.38.56h-.66a1.14,1.14,0,0,0,.34-.2c0-.06.14-.18.07-.26a.27.27,0,0,0-.07-.06.18.18,0,0,1,.06-.15c.06-.06.18-.06.26-.09a.36.36,0,0,0,.1-.13Zm-1,0,0,0c0,.09-.47.73-.5.8a.17.17,0,0,1,0,0h-.61a.79.79,0,0,0,.25-.17.09.09,0,0,0,0-.14c-.07,0-.18,0-.22,0s0,.07-.07.06a.12.12,0,0,1-.08,0s-.07-.05,0-.08a.59.59,0,0,1,.16-.15,3,3,0,0,1,.35-.16l.46-.21Zm-1.66,0,0,0-.17.14-.18.18a2.19,2.19,0,0,1-.16.16s-.14.07-.16.14-.11.22,0,.23h.16a.22.22,0,0,0,.13-.06c.1-.09.17-.27.27-.35s.17-.19.24-.25.12-.08.1-.13a.14.14,0,0,0-.07-.1Zm-.58,0a7.74,7.74,0,0,0-.77.87l0,0h-.94a4.28,4.28,0,0,0,.52-.69l.16-.2Zm-2.55,0a2.43,2.43,0,0,1,.06.51,1.4,1.4,0,0,0,.07.38h.41s0,0,0-.06a.7.7,0,0,1-.08-.36,2.29,2.29,0,0,1,.08-.47Zm-8.2,0,.27.26a3.6,3.6,0,0,0,.47.39c.11,0,.4-.35.35-.52s-.07-.08-.14-.13H76c-.09.15-.06.24-.11.4s0,.19.14.25.13,0,.18,0a.73.73,0,0,0,.15-.11.29.29,0,0,1,.21-.22c.18,0,.24.2.24.2s.14.21.26.36H74.77L74.55,73c-.27-.24-.58-.5-.83-.68Zm-1.5,0,.12.09c.1.08.21.2.31.3l.21.23.18.2v.07H73.5l-.1,0A2.52,2.52,0,0,1,73,72.8l-.24-.23c-.08-.08-.16-.14-.24-.21l0,0Zm-1.82,0,0,0,0,0H71l-.07,0h-.1a.09.09,0,0,0-.07,0l-.07,0h0l0,0s0,.14,0,.16l0,.08s0,0,.07.06l.48.23.06,0,.11,0,.1.06,0,0s0,0,0,0h-.39a.06.06,0,0,0,0,0s0,0,0,.07h-.9a3.08,3.08,0,0,1-.38-.88h1.27Z"/><path class="cls-2" d="M85.9,72.33h0Zm2.77-.89c0,.08,0,.16-.07.21s-.12.43-.21.68H88a2,2,0,0,0,.11-.19s.08-.09,0-.06-.24,0-.24,0,0-.1,0-.11a1.56,1.56,0,0,0,.44-.3.48.48,0,0,0,0-.18Zm-.7,0c-.09.14-.19.3-.21.32s-.25.43-.33.57H87l.06,0s.1-.2,0-.22a1.87,1.87,0,0,0-.32,0s0-.08,0-.1l.22-.09s.39-.16.43-.24a1,1,0,0,0,0-.19H88Zm-1.35,0-.34.14s-.71.43-1,.63a1.49,1.49,0,0,0-.14.12h-1c.19-.21.39-.42.6-.62a3.43,3.43,0,0,1,.28-.27Zm-4.49,0c.16.26.47.79.51.89h.49l0-.12a1.21,1.21,0,0,1,.45-.59l.28-.18h-.45c-.13.15-.17.27-.32.19L83,71.44Zm-6.17,0c-.2.24-.36.5-.7.24l-.3-.24h-.6l.44.39c.06,0,.11.19.28.31a3.21,3.21,0,0,0,.31.19H76a1,1,0,0,1,.15-.18c.2-.21.56-.52.74-.7Zm-2.89,0c.31.15.73.43.9.51a3.54,3.54,0,0,1,.47.38h-.72l-.15-.1-.6-.36a.73.73,0,0,0-.29-.13c-.14,0-.23.15-.14.31a.5.5,0,0,0,.22.18l.15.09h-.46L72,72a5.33,5.33,0,0,0-.46-.31l-.34-.18-.09,0Zm-2.69,0a.64.64,0,0,1,0,.07.27.27,0,0,0,0,.2.24.24,0,0,0,.1.12l.18.13.25.19.14.09.09.09H69.85a4.48,4.48,0,0,0-.18-.79.51.51,0,0,1,0-.1Z"/><path class="cls-2" d="M85,71.44l0,0a3.07,3.07,0,0,1,1-.48c.48-.13.7-.18.86-.21a1.92,1.92,0,0,1,.5,0H88a1.79,1.79,0,0,1,.39,0,1,1,0,0,1,.35.1c.07.11,0,.36,0,.42a1.46,1.46,0,0,1,0,.2h-.32c0-.14,0-.29-.06-.29h-.05a.41.41,0,0,0-.14.1l-.13.2H87.5a.21.21,0,0,0,0-.07.1.1,0,0,0,0-.09l-.07,0a1.51,1.51,0,0,0-.36,0l-.47.19Zm-10.66,0a7.29,7.29,0,0,1-.59-.56,1.45,1.45,0,0,0-.4-.32H74a6.22,6.22,0,0,0,.95.88Zm-4.74,0a.76.76,0,0,1-.08-.48c0-.15.18-.22.41-.23a6.73,6.73,0,0,1,1,.08c.35,0,.66.13.88.18s.89.3,1.15.41l.09,0h-2a.74.74,0,0,0-.18,0h-.48l0,0Zm14.74-.88a7.37,7.37,0,0,1-.8.78l-.11.1h.45l.28-.17c.2-.15.67-.47,1-.71Zm-3.08,0,.18.1a3.82,3.82,0,0,1,.63.72l0,.07H83l-.06-.07c-.16-.2-.14-.19-.31-.39s-.27-.29-.28-.42Zm-2.82,0a.48.48,0,0,1,0,.18c0,.08-.14.21-.06.23a.22.22,0,0,0,.25-.07,1.35,1.35,0,0,0,.17-.34Zm-.77,0a.81.81,0,0,1,.16,0,.58.58,0,0,1-.17.28c-.13.12-.19.23-.15.31s.06.19.15.13a1.82,1.82,0,0,0,.36-.41c0-.07.12-.24.18-.35Zm-1.83,0,.1,0a4,4,0,0,0,.42,0c.27.18-.19.64-.33.78l-.09.1h.92a1.29,1.29,0,0,0,.12-.12l.28-.5a1.5,1.5,0,0,1,.33-.26Z"/><path class="cls-2" d="M84.9,69.67a3.53,3.53,0,0,1-.54.89h.86c.13-.09.24-.17.33-.22.31-.2.3-.16.58-.32a1.82,1.82,0,0,1,.5-.19l.37-.09h.21a.32.32,0,0,0,.22-.07H86.3c-.52.24-1.13.57-1.13.57a2.66,2.66,0,0,1,.17-.42.77.77,0,0,0,.06-.15Zm-10.44,0a4.69,4.69,0,0,0,.69.55,5.91,5.91,0,0,0,.71.34h2.36a.44.44,0,0,1,.09-.14s.14,0,.14,0,0,.08,0,.15h.33v0a.39.39,0,0,0,0-.11l1.33,0,.73,0s.22.08.4.17h1.06v0c0-.11.36-.13.51-.13a6.21,6.21,0,0,0,.58-.29,4.06,4.06,0,0,0,.52-.42h-.62a7.42,7.42,0,0,1-.68.39.65.65,0,0,1-.44-.07.84.84,0,0,0-.34-.06,2.45,2.45,0,0,0-.37,0c-.14,0-.73.14-.84.15a3.16,3.16,0,0,1-.58,0l-.53,0-1.19,0a1.93,1.93,0,0,0-.33,0l-.32,0a.61.61,0,0,1-.4-.14.38.38,0,0,0-.23-.11.76.76,0,0,0-.3,0,.84.84,0,0,0-.24.1.54.54,0,0,1-.24.11,2.88,2.88,0,0,1-.51-.1,3.29,3.29,0,0,1-.66-.29Zm-1.35,0,.08.37-.26,0a2.45,2.45,0,0,1-.64-.11,3.74,3.74,0,0,1-.5-.24H71c.34.18,1,.54,1.14.59s1,.23,1.16.25a.31.31,0,0,1,.12,0H74a1.28,1.28,0,0,1-.14-.21,5.2,5.2,0,0,1-.33-.68Z"/><path class="cls-2" d="M83.33,69.67l.06,0a3.26,3.26,0,0,0,.62-.91c0-.11.17-.46.29-.82h.44a5.31,5.31,0,0,1-.47,1.44,4.41,4.41,0,0,1-.32.34Zm5-1.78a3,3,0,0,1-.14.42,2.56,2.56,0,0,1-1.35,1.14,3.75,3.75,0,0,0-.52.22h1.13l0,0a.82.82,0,0,1,.42-.25c.16,0,.33-.07.4-.09s.26-.1.49-.21.53-.23.65-.27a3.46,3.46,0,0,0,.85-.47c.12-.09.23-.19.36-.28l.2-.17h-.55a5.08,5.08,0,0,1-1,.57c-.45.22-.91.39-.91.39s.17-.33.23-.42.15-.2.19-.28.21-.2.37-.26Zm-3.14,0c0,.42-.07.87-.12,1.19a2,2,0,0,1-.15.59h.5c.06-.17.11-.38.12-.42S86,69,86.06,69a2.67,2.67,0,0,0,1.52-1.09h-.69a5.45,5.45,0,0,1-.88.46,1.78,1.78,0,0,1-.31.08s-.17,0-.21,0a.73.73,0,0,1-.07-.37c0-.06,0-.12,0-.17Zm-11.51,0a7.6,7.6,0,0,0,.55,1.49,1.87,1.87,0,0,0,.25.29h.67l0,0a5.58,5.58,0,0,1-.66-.86,5,5,0,0,1-.44-.9Zm-2.64,0a3.32,3.32,0,0,0,.69.83,2.81,2.81,0,0,0,.87.38,2.32,2.32,0,0,1,.43.12l.1.45h.43a5.12,5.12,0,0,1-.28-1.78h-.38c0,.18,0,.31,0,.34s0,.28,0,.34,0,.18-.14.21-.35-.12-.39-.14a8.6,8.6,0,0,1-.69-.54,2,2,0,0,1-.15-.21H71Zm-1.92,0a1.38,1.38,0,0,0,.5.14c.31,0,.33.31.45.54l.21.3h-.62a2.23,2.23,0,0,1-.91-.26,2.29,2.29,0,0,1-.89-.72h-.52a10.8,10.8,0,0,0,.89.86,2.73,2.73,0,0,0,1,.37c.18,0,1.38.38,1.53.45l.17.1h.84a3.1,3.1,0,0,1-1-.83c-.17-.28-.41-.61-.58-1Z"/><path class="cls-2" d="M86.89,67.89a1.77,1.77,0,0,0,.32-.22,13.56,13.56,0,0,0,.57-1.49.64.64,0,0,0,0-.07h.44c0,.08,0,.14,0,.19a5,5,0,0,1-.5,1.4l-.12.19Zm-2.59,0,.23-.74c0-.18.15-.63.25-1h.37c-.1,0-.13.16-.14.34s-.13.79-.27,1.44Zm6.94-1.78a2.93,2.93,0,0,1,0,.29,3.61,3.61,0,0,1-.9,1.48h.54a.33.33,0,0,0,.06-.08c0-.07.22-.23.39-.42l.4-.46a1.1,1.1,0,0,1,.25-.2,2.79,2.79,0,0,0,.28-.16,2.16,2.16,0,0,0,.43-.46h-.4l-.06.06a5.42,5.42,0,0,1-.46.36l0-.42Zm-2.61,0s0,.09,0,.14a14,14,0,0,1-.3,1.64h.84l.28-.09c.51-.14.68-.51,1-.92a2.79,2.79,0,0,0,.28-.77h-.61a5.13,5.13,0,0,1-.77,1,1.36,1.36,0,0,1-.46.19c-.12,0-.14-.14-.09-.37a3.32,3.32,0,0,1,.07-.51c0-.09,0-.18,0-.28Zm-3.41,0a.14.14,0,0,1,0,.09,3.12,3.12,0,0,1,0,.53c0,.12,0,.62-.08,1.16h.26c0-.08,0-.15,0-.18s.06-.59.07-.84,0-.46,0-.76Zm-11.54,0c.06.29.12.58.14.7s0,.3,0,.46a2.75,2.75,0,0,0,.12.53l0,.09h-.35v0c-.08-.39-.1-.83-.15-1.07s-.11-.28-.26-.27,0,0-.07.06c0,.23.08,1,.09,1.23v.07h-.38c0-.47,0-1.29-.07-1.78Zm-3.34,0a3,3,0,0,0,.42,1.31c.08.16.17.32.26.47h.47c-.08-.12-.16-.25-.23-.38S71,67,71,67s-.2-.53-.31-.86Zm-2.42,0a7.15,7.15,0,0,0,.58,1.24,1.6,1.6,0,0,0,.6.54h1.11a1.79,1.79,0,0,1-.18-.52c-.06-.42-.11-.84-.14-1.26H69.5c0,.28,0,.58,0,.61s.18.63,0,.78c-.05,0-.15,0-.26,0a2.26,2.26,0,0,1-.6-.65,5.36,5.36,0,0,1-.29-.7Zm-1.14,0a.68.68,0,0,1,.14.32c0,.22.13.32.17.55,0,0-.18.24-.4.11a2.54,2.54,0,0,1-.62-.72,2.33,2.33,0,0,1-.17-.26h-.37a1.29,1.29,0,0,0,.12.26,4.26,4.26,0,0,0,.85.92,4.38,4.38,0,0,0,.42.28l.2.15.17.14,0,0h.52a4.24,4.24,0,0,1-.54-1.46,1.65,1.65,0,0,1-.06-.32Z"/><path class="cls-2" d="M84.78,66.11c.09-.39.17-.75.18-.81a2.48,2.48,0,0,1,.43-1.09,4.83,4.83,0,0,1,.53-.55,4,4,0,0,1-.15.61c0,.12-.12.53-.13.57s0,.37,0,.64,0,.35,0,.58v0h-.79Zm-12,0c0-.23,0-.38,0-.38l-.11-.65c-.06-.31-.12-.63-.13-.65a.49.49,0,0,1,0-.26c0-.06,0-.16.11-.13a1.38,1.38,0,0,1,.39.35c0,.07.37.8.47,1a6.61,6.61,0,0,1,.18.68Zm-7.28,0c-.15-.33-.32-.78-.37-.91s-.15-.32-.24-.52a2.87,2.87,0,0,1-.2-.45c0-.11,0-.25,0-.38a.75.75,0,0,0-.1-.39L64.05,63a2.21,2.21,0,0,1-.42-.43v0h.57c.22.21.49.41.64.55a1.79,1.79,0,0,1,.17.41c.06.21.37,1.38.47,1.61l.24.58a2.06,2.06,0,0,0,.19.4Zm28.29-3.55c-.11.16-.25.38-.31.45a1.73,1.73,0,0,0-.14.58c-.08.33-.26.59-.33.92a5.24,5.24,0,0,1-.43,1.1,1.7,1.7,0,0,1-.37.5h.4a1.73,1.73,0,0,0,.25-.38,1.83,1.83,0,0,0,.07-.32.58.58,0,0,1,.09-.26.82.82,0,0,0,.08-.25,2.24,2.24,0,0,1,.11-.29,7.59,7.59,0,0,0,.37-1,1.75,1.75,0,0,1,.21-.56l.33-.45Zm-2.67,0c.06.18.21.7.23.75s.05,1,.08,1.12a4.56,4.56,0,0,0,.12.48.23.23,0,0,0,.12,0,.26.26,0,0,0,.14-.09,3.85,3.85,0,0,0,.27-.64l.24-.64a7.92,7.92,0,0,0,.13-1h.39a.52.52,0,0,1,0,.14,5.7,5.7,0,0,1,0,1.1,6.31,6.31,0,0,1-.32.91,3.56,3.56,0,0,1-.42.65,2,2,0,0,1-.31.29l0,.46h-.52a6.85,6.85,0,0,0,0-1.5c0-.12,0-.45-.12-.36a.51.51,0,0,0-.2.39,4.35,4.35,0,0,1-.09,1,4.64,4.64,0,0,0-.12.45h-.61a.25.25,0,0,0,0-.07,7.67,7.67,0,0,0,.32-1.25,17.79,17.79,0,0,0-.2-1.84c0-.06-.06-.21-.11-.39Zm-2.06,0c0,.15,0,1.24,0,1.31a4.22,4.22,0,0,0-.08.77c0,.37-.11,1.3-.11,1.3a1,1,0,0,1,0,.17h-.26c.05-.37.06-.63.1-1.09,0-.07,0-.15-.09-.16s-.08.06-.11.19-.2.7-.29,1.06H87.8c.12-.43.42-1.81.47-2a8.71,8.71,0,0,1,.24-.88c.06-.1.19-.24.42-.58a.46.46,0,0,1,.07-.07Zm-19.47,0a2,2,0,0,1,.23.33c.05.1.46,1.18.49,1.27s.23,1.59.23,1.64,0,.15.09.31h-.32a4.8,4.8,0,0,0-.09-.5c-.06-.27,0-.57-.27-.69a.25.25,0,0,0-.17,0c0,.45,0,.83.08,1.2H69.5l0-.42c0-.12-.09-1.29-.09-1.45s0-.79,0-1.32a1.89,1.89,0,0,0-.1-.36Zm-4.25,0c0,.07,0,.15,0,.25a6,6,0,0,0,.28,1.32c.11.3.37,1.06.48,1.3a1.69,1.69,0,0,0,.53.58l.1.1h.46a6.12,6.12,0,0,1,0-1.35l.12-.84c.09,0,.2.27.21.44a7.32,7.32,0,0,0,.23,1.37c0,.12.08.25.13.38h.44l-.07-.19c-.11-.35-.16-.44-.23-.72a7,7,0,0,1-.12-1s0-.23,0-.35a1.78,1.78,0,0,1,0-.4c0-.09.07-.28.11-.47s.1-.28.13-.44h-.88l0,.09a3.27,3.27,0,0,1-.14.46,4.78,4.78,0,0,0-.14.64c0,.26-.09.51-.11.61a1.89,1.89,0,0,0-.06.4c0,.15,0,.31,0,.42s0,.15-.07.18a.15.15,0,0,1-.16-.09c-.08-.18-.17-.45-.17-.45l-.21-.7A4.71,4.71,0,0,1,66,62.66v-.1Zm14.56.4H78.58v-6H75.85V55.78h2.73V53h1.35v2.82H82.6v1.14H79.93ZM68.74,54.58l-3-.54.29-.31,3,.56Zm6.44,1.14-4.82-.87,0-.28,4.79.9Zm1.13-.61H75.6l-7.8-2.87.32-.24Z"/><path class="cls-2" d="M77.4,55.11h-.47L69.75,51l.33-.2,0,0Zm.46,0h-.24L71.6,50l.34-.17,0,0L77.91,55v.07Zm0-.21-4.64-5.54.35-.11,4.29,5.28Zm2.24-2.61h-.28l.67-3.88.36,0Zm-.74,0h-.28l0-3.91h.36Zm-1.49,1.94-3.1-5.31.35-.09,2.75,4.89Zm0-1.25-1.59-4.36.36,0,1.24,3.61Zm.81-.69h-.28l-.66-3.84.35,0Zm4.55,3.53v-.26l4.94-.84.09.32ZM80.6,53.11v-.78L82,48.56l.35,0Zm0,1.21v-.49h0l2.9-5,.36.09Zm0,.64V54.6h0l4.49-5.29.35.13,0,0Zm.35.15h-.37L86.78,50l.36.16-.06,0Zm.77,0h-.49l7.45-4.2.29.21Zm1.46,0h-.76l8.21-2.93.31.26Zm5.65,28.71L86,75.72l.29-.18,2.89,8.11Zm4-3.09L88.55,73.1l.11-.38.06.1,4.33,7.64Zm3-3.9-6.2-7.58.29-.16L96,76.51Zm1.84-4.44-5.7-4.93.24-.19,0,0L97.73,72Zm.67-4.52-4.68-2.81.06-.32,4.59,2.72Zm-.39-4.26-3.07-1.2.11-.29,2.86,1.07Zm-1.19-3.78-1.23-.24v-.33l1.05.2ZM95,56.68l-1.63,0,0-.31h1.34Zm-5.92-.08-5.78-.09v-.24l5.69,0Zm.8,1.91-6.58-1.28V57l6.53,1.21Zm-6.5,9.84L80.6,60.48v-.7l3,8.23Zm-2.12.77-.9-5.47h.27l.93,5.42Zm8-8.82-7.09-2.7h.67L89.35,60ZM88.57,62h0l-7.43-4.44h.46l7.3,4.3Zm-.9,1.73-7.13-6.18h.34l6.91,5.87ZM85,63.62l0,0L80.6,58.19v-.36l4.66,5.64Zm-.77,1.83L80.6,59V58.5l3.8,6.7Zm2.83.7L86.12,65l.11-.33,1.06,1.29ZM63.8,56.35,64,56H65.3l0,.33ZM62,59.46l.17-.38.62-.12.07.33ZM60.7,63.31l.08-.4,2.27-.82.06.28Zm13.54,1.91L74,65l3.88-6.57v.45h0Zm-1-1.71L73,63.39l4.93-5.65v.34h0Zm-2.38-.15-.11-.28,6.83-5.49h.36Zm-1-1.52-.29-.14,7.28-4.11h.46ZM69,60.23v-.31l6.5-2.33h.69Zm-.56-1.9L68.6,58h0l6.57-1.09v.25Zm6.74-1.9-5.68,0,.06-.28,5.62.08ZM75,68.19l-.18-.29v0l3.11-8.26v.66Zm4.42,1h-.28v-5.5h.25ZM77,69h-.3l1.22-6.31,0,1h0Zm-5.76-3.2-.17-.21,1-1.12.12.26Zm-11,1.55v-.41h0l4.2-2.37.09.27Zm.47,4.32-.08-.39,5.17-4.14.16.2Zm1.67,4.55-.17-.33,0,0,5.82-6.71.21.14,0,0Zm3,4.23-.24-.27,0,0,4.4-7.42.15.21,0,0Zm3.86,3.12-.31-.21,3-8,.22.14Z"/><path class="cls-2" d="M79.22,47.06A20.35,20.35,0,1,0,99.57,67.4,20.37,20.37,0,0,0,79.22,47.06m0,41.71A21.37,21.37,0,1,1,100.59,67.4,21.39,21.39,0,0,1,79.22,88.77"/><path class="cls-2" d="M81.62,74.73h-.08a.06.06,0,0,1-.05,0s0-.09.09-.15l0-.07a.33.33,0,0,1,.25-.09h0a0,0,0,0,1,.06,0s0,.11-.1.18l0,0a.24.24,0,0,1-.22.09m8.24-14a3.72,3.72,0,0,0,.07.77c0,.15,0,.43.11.7s.06.27.1.4h1v0c0-.13-.45-1.26-.5-1.38a10.89,10.89,0,0,1-.43-1.23c0-.08-.08-.19-.12-.13a.88.88,0,0,0-.15.41c0,.19,0,.38-.08.5M89,62.56h.09c0-.05,0,0-.09,0M69.2,62.4s0,.08,0,.16h.39a1.31,1.31,0,0,0-.18-.17c-.12-.08-.21-.06-.24,0m-1.84-.19-.09.35h.88s0-.06,0-.1c0-.48.06-.91.06-1.11a5.44,5.44,0,0,1,0-.65c0-.24,0-.41,0-.47a1.3,1.3,0,0,0,0-.27.63.63,0,0,0-.11-.26s-.09.12-.11.16a6.76,6.76,0,0,0-.17.68s-.08.21-.13.36a2.8,2.8,0,0,0-.1.33s-.22.81-.28,1m.12-4.27a4.44,4.44,0,0,1-.29.35,1.44,1.44,0,0,0-.21.25,7.35,7.35,0,0,0-.66,1.32,8.43,8.43,0,0,1-.42,1.43c-.07.12-.38.14-.41-.08a3.8,3.8,0,0,1,.26-1.08A3.12,3.12,0,0,0,66,58.9a4,4,0,0,1-.11-1.14,3.54,3.54,0,0,1,.07-.47,1.8,1.8,0,0,0,.25.33c.37.37,1.31.32,1.31.32m2-3a2.69,2.69,0,0,1,.2-.27.62.62,0,0,0-.38,0c-.15,0-.16.08-.32.24a3.24,3.24,0,0,0-.56.73l-.63,1.14a1.92,1.92,0,0,1-.59.65,1.24,1.24,0,0,1-.22.12H66.9a.68.68,0,0,1-.26-.08.88.88,0,0,1-.25-.28.82.82,0,0,1,0-.42c0-.08.1-.34.1-.34a1.77,1.77,0,0,1,.07-.29s.08-.22.1-.3,0-.68.06-1c0-.1,0-.22-.16-.1a.85.85,0,0,0-.19.21,3.21,3.21,0,0,0-.16.37c-.07.16-.18.38-.27.55a5.86,5.86,0,0,0-.22.67c-.07.26-.13.48-.17.6a6.11,6.11,0,0,0-.09,1.14,2.43,2.43,0,0,0,0,.28,1,1,0,0,1,.07.23,1.44,1.44,0,0,1,.06.53,5.06,5.06,0,0,1-.19.78c-.07.27-.17.57-.17.57l-.1.33a1.6,1.6,0,0,1-.2.48c-.07.09-.24,0-.29,0l-.13-.16a4.53,4.53,0,0,1-.26-.4,1.44,1.44,0,0,1-.07-.31c0-.09,0-.21,0-.32a4.68,4.68,0,0,0,0-.59,7.69,7.69,0,0,0-.37-1.06c0-.05-.07-.18-.13-.31a2.59,2.59,0,0,0-.19-.33c-.08-.13-.2-.23-.29-.17s0,.12,0,.24a3.19,3.19,0,0,0,0,.43c0,.16,0,.86,0,1.07s0,1,0,1.18.05.8.09,1.06a3.44,3.44,0,0,0,.3.76h.57a1.56,1.56,0,0,1-.38-.48,2.78,2.78,0,0,1-.21-.86,4.19,4.19,0,0,1,.07-1.08c.07-.17.17,0,.19.16a6.32,6.32,0,0,0,.1.79,1.29,1.29,0,0,0,.56.8,1.38,1.38,0,0,0,.58.19.25.25,0,0,1,.24.23c0,.06,0,.14,0,.25H66a3.88,3.88,0,0,1,.06-.82c0-.19.09-.28.12-.41a7.93,7.93,0,0,1,.32-1A6,6,0,0,1,67,59.13a6.62,6.62,0,0,1,.6-.76c.06-.08.65-.91.79-1.13a7.9,7.9,0,0,0,.47-1.15,5.62,5.62,0,0,1,.35-.68c.17-.26.17-.31.29-.5m23.34,6.28s0,0-.06,0a.57.57,0,0,1-.24-.12l-.18-.49-.3-.82a2.36,2.36,0,0,0-.87-1.37c-.21-.2-.09-.32.11-.29s.29,0,.4,0a1,1,0,0,0,.34-.31,1.27,1.27,0,0,0,.27-.59c0-.14-.1-.48,0-.51.29-.08.28.67.23.84s0,.7,0,.74a5.77,5.77,0,0,0,0,.84c0,.27.16,1.1.18,1.27s.12.79.06.79M95,57.59c0-.22-.05-.29-.21-.26s-.14.15-.17.19l-.14.25a4.26,4.26,0,0,0-.27,1c-.1.51-.12,1.08-.29,2-.08.43-.28.58-.44.5a.48.48,0,0,1-.17-.1s-.14-.12-.16-.2a6.24,6.24,0,0,0-.27-.93,2.1,2.1,0,0,1-.08-.61v-.47c0-.19.09-1,.09-1.14s-.06-.83-.06-1a1.5,1.5,0,0,0-.14-.57c-.06-.11-.12-.27-.2-.43a3.14,3.14,0,0,1-.23-.53,9.75,9.75,0,0,0-.31-1,3.64,3.64,0,0,1-.15-.38s-.12-.32-.15-.31-.06,0-.1.08a.76.76,0,0,0-.11.16,2.43,2.43,0,0,0-.12.65c0,.15.11.86.13,1s0,.15.07.26l.12.39a3.87,3.87,0,0,1,.16.69.7.7,0,0,1-.22.6.42.42,0,0,1-.33,0l-.24-.14a.67.67,0,0,1-.23-.38,3.24,3.24,0,0,1-.1-.4c0-.14-.36-.72-.44-.86s-.17-.28-.29-.49a4.45,4.45,0,0,0-.35-.56,1.4,1.4,0,0,0-.65-.25c-.09,0-.17,0-.2,0l-.05.18c0,.07.06.17.19.38a4.71,4.71,0,0,1,.39.71,8.56,8.56,0,0,1,.56,1.59,3.47,3.47,0,0,0,.65,1.25l.89.71a4.64,4.64,0,0,1,.61,1.3c0,.18.15.54.26.89a5.61,5.61,0,0,1,.21.78c0,.05,0,.19,0,.37h.39a.19.19,0,0,1,.07-.22s0,0,.09,0l.09,0a1.75,1.75,0,0,0,.31-.15,1.9,1.9,0,0,0,.56-.43l.17-.23s.48-.3.32,0l-.09.26c-.16.32-.35.41-.55.69l0,0h.33l.36-.52a3.54,3.54,0,0,0,.35-.92c0-.09.08-.62.08-.93s0-1.36.07-1.5,0-.85,0-1.1M49.46,95.26H50v.3h4.89l.08,0V96a1,1,0,0,0-.5.38c-.13.25-.17.23-.17,1.07s0,2,0,2.07v5.6a5.79,5.79,0,0,0,.07,1.21l-1.33.48L51.52,108l-2.15-2.76a1.65,1.65,0,0,1-.34-1.46,2.58,2.58,0,0,1,.51-1.27c.13-.18.09-.11.09-.11h.28l-.08.32s0,.08.1.31,2.42,3,2.42,3,.08.14.09,0,0-2.79,0-2.79v-3H51l-.12.18-.42,1.39V98.88h.62v.27h1.25V97.78l-.07-.39a1.92,1.92,0,0,0,.49-.3l.42-.32,0,0s-1,.22-1.11.24l-.45,0H50.15L50,97l-.57,1.63V95.26Zm8.6,0,.84.32-1,1.17-.24-.08Zm1.53,0,.85.32-1,1.18-.26-.08Zm11.69,3.07a6.7,6.7,0,0,0,.46-.62c.2-.31.47-.7.47-.7l1.44.51-.17.48v1.15L74.7,97h.4l.62,2.31a2.34,2.34,0,0,1-.64,2.16c-.13.12-.26.25-.38.38l-.35-.36s.35-.38.36-.61a3.56,3.56,0,0,0-.22-1c-.12-.44-.33-1.05-.33-1.05s-.1.13-.16.23l-.49.86v4.38l1,.3.14-.56.58.19-1.12,1.82-2.38-.64s.21-.16.2-1.41,0-5.47,0-5.47l-.68-.24Zm4.79,0L77,97l1.61.61a2.76,2.76,0,0,0-.18.82c0,.35,0,1,0,1L79.8,97l2.11.75a3,3,0,0,0-.19,1c0,.49,0,.89,0,.89L83.12,97l2.08.75a3.21,3.21,0,0,0-.3,1c0,.8,0,5.78,0,5.78l.68.2-.7,1.35-1.81-.5a3,3,0,0,0,.22-1.3c0-.93,0-5.52,0-5.52l-.54-.21-1.06,1.8,0,4.21.57.18-.74,1.34-1.65-.44a2.47,2.47,0,0,0,.2-1.29c0-1,0-4.86,0-4.86v-.65l-.73-.29-1,1.66,0,4.39.49.16-.7,1.32-1.66-.44a2.71,2.71,0,0,0,.22-1.11c0-.7,0-5.88,0-5.88Zm16.66,6.18.78.25L92.7,106l-1.82-.47s.27-.29.26-1.85,0-5,0-5l-.73-.28L91.27,97l1.72.68-.27.63s0,6.18,0,6.18m-.44-9.27.85.34-1,1.18-.23-.07Zm3.72,0,.92.58s.38.26.65,0a3.36,3.36,0,0,0,.28-.27l.31.2-.87,1.17a1.74,1.74,0,0,1-.93.21c-.32-.11-.66-.25-.66-.25l0,3.39V107a1.15,1.15,0,0,0-.47.09.82.82,0,0,0-.45.4,1.49,1.49,0,0,0-.09.44h-.62l0-10.7-.19-.69,1.23-.37Z"/><path class="cls-2" d="M98.88,95.48v1.46h1.59l-.65,1.27h-.92l0,6.23.78.22-.8,1.37-1.82-.5a3.13,3.13,0,0,0,.26-1.41c0-.93,0-5.9,0-5.9h-.6l1.09-1.14Zm5.63,2.75a7.21,7.21,0,0,0,.47-.63l.46-.7,1.44.51-.16.49v1.15l1.2-2.15h.41l.62,2.31a3,3,0,0,1,0,1.15,3,3,0,0,1-.6,1l-.39.37-.35-.35s.35-.38.36-.61a3.87,3.87,0,0,0-.21-1c-.13-.44-.34-1.06-.34-1.06s-.1.14-.15.23-.5.87-.5.87v4.38l1.05.29.13-.55.58.19L107.38,106l-2.37-.63s.21-.16.2-1.41,0-5.47,0-5.47l-.68-.24Zm-49.08,7.43.11-.51s0-4,0-4.28a2.68,2.68,0,0,0-.15-.63l1.2-.46-.16-.09a3.18,3.18,0,0,1-.76-.62c-.08-.1-.25-.4-.25-.4L56.8,98l.8-.94,2.81,1-.15.25a2.43,2.43,0,0,0-.13.35l0,5.81.11.06.57.15L60,106.06l-1.54-.41s.1-1,.1-1.09a1.73,1.73,0,0,0,0-.34l-.35.55-.73,1.3-2-.41Zm1.73-7.17a2.19,2.19,0,0,0,.08.23.91.91,0,0,0,.51.43,1.18,1.18,0,0,0,.59.09,2.68,2.68,0,0,0,.7-.18Zm0,5.84.69.22.67-1.17v-3.8l-1.34.66Zm4.11-5.84,1.27-.56.78-.93,3,1a1,1,0,0,0-.22.52c0,.29,0,3.19,0,3.19l0,4.82-1,.31-.93,1a5.44,5.44,0,0,0-1.6-.51c-.58,0-.66,0-.82.14a2.24,2.24,0,0,0-.36.49L61,107.8a4.55,4.55,0,0,1,.7-1,2.76,2.76,0,0,1,.93-.7A1.89,1.89,0,0,1,63,106l0-.07-1.74-.47a3.77,3.77,0,0,0,.17-.85c0-.41,0-3,0-3l0-2.47-.2-.62Zm2,7.44,1.28.31v-2.53ZM63,98.53l0,5.82.57.16.9-1.64v-2.74a1.93,1.93,0,0,0-.15-.6l.38-.42Zm4.17,6.79.15-.82s0-4.08,0-4.84a4.5,4.5,0,0,0-.16-1.22l1.1-.29,1-1.15,2,2.12-.25.3L69,103.17l0,1,1.64.42.19-.52.51.16-1,1.84-3.1-.77ZM69,98.91v3.54l1.17-2.18Zm17.16,6.37.15-.82s0-4.08,0-4.84a4.5,4.5,0,0,0-.16-1.22l1.1-.29,1-1.15,2,2.12-.25.3-2.08,3.75,0,1,1.64.41.19-.51.5.16-1,1.84-3.1-.77Zm1.76-6.41v3.54l1.17-2.18Z"/><path class="cls-2" d="M100.49,105.23l.16-.81s0-4.08,0-4.84a4.26,4.26,0,0,0-.17-1.23l1.1-.29,1-1.15,2,2.12-.25.31-2.09,3.75,0,1,1.64.42.19-.51.51.15-1,1.84-3.1-.77Zm1.76-6.41v3.55l1.18-2.19-1.19-1.36Z"/></svg>