<svg id="Layer_1" data-name="Layer 1" xmlns="http://www.w3.org/2000/svg" viewBox="0 0 158 158"><defs><style>.cls-1{fill:#322f31;}.cls-2{fill:#fff;}</style></defs><title>logo_collection_svg</title><rect class="cls-1" width="158" height="158"/><path class="cls-2" d="M61.65,83l2.87-.07,0-.34-1.06-.09a3.68,3.68,0,0,0,0-.6V75.64l.11-.13h.45c1.46,0,2,.85,2,1.76A1.58,1.58,0,0,1,64.55,79h0v.46L66,81.61a8.16,8.16,0,0,1,.74,1.3l0,0H68.5l0-.38h-.12c-.31,0-.55-.06-1-.79l-1.71-2.49v-.15A2.74,2.74,0,0,0,67.22,77c0-1-.8-1.91-2.94-1.91h-1a.65.65,0,0,0-.71.6c0,.31,0,.63,0,.94v.15h0v5.14c0,.4-.33.67-.86.72V83Z"/><path class="cls-2" d="M58.53,83l-2.91-.07,0-.34,1.13-.09a2.66,2.66,0,0,1-.07-.6V76.47a4.46,4.46,0,0,1,0-.82.64.64,0,0,1,.71-.6h1.16v.3c-.88.18-.88.3-.88.86v5.67c0,.4.33.67.85.72V83Z"/><path class="cls-2" d="M45.3,83h2.2l0-.33-1-.15.66-1.7.39-1,.15-.42h0l1.15-3a5.86,5.86,0,0,0,.23.72L50,79.3l.71,1.87.36,1c.13.35-.17.45-.5.46V83s1.35,0,1.8,0h.51l.05-.32c-.37-.05-.58-.11-.91-.92L49.38,75l-.47.12-2.81,7a.87.87,0,0,1-.8.54V83Z"/><path class="cls-2" d="M37.32,83s1.06,0,1.65,0h3.82l.49-2.17h-.41c-.6,1.35-.79,1.71-1.81,1.71h-2a3.62,3.62,0,0,0,.06-.66V76.59a5.94,5.94,0,0,0-.06-.94.64.64,0,0,0-.71-.6H37.23v.3c.87.18.87.3.87.86v5.67c0,.42-.25.67-.78.72V83Z"/><path class="cls-2" d="M27,79.09a4,4,0,0,0,4.13,4,3.56,3.56,0,0,0,3-1.37l-.17-.25a3.73,3.73,0,0,1-2.38.84,3.37,3.37,0,0,1-3.42-3.57,3.1,3.1,0,0,1,3-3.38c1,0,2,.39,2,1.62h.39l.37-1.79a22.49,22.49,0,0,0-2.56-.28A4.1,4.1,0,0,0,27,79.09"/><path class="cls-2" d="M126.07,81.87c0,.87,1.24,1.22,2.27,1.22,1.43,0,2.65-.66,2.65-2.09,0-2.54-3.71-2.33-3.71-4.41,0-.86.67-1.23,1.47-1.23A1.3,1.3,0,0,1,130.08,77h.4l.37-1.85a14.84,14.84,0,0,0-2-.22c-1.75,0-2.64.89-2.64,2,0,2.41,3.7,2.38,3.7,4.44,0,.91-.72,1.24-1.49,1.24a1.6,1.6,0,0,1-1.73-1.82h-.4a3.77,3.77,0,0,0-.26,1.05"/><path class="cls-2" d="M112.14,83l3-.07,0-.34L114,82.48a3,3,0,0,0,.07-.65V75.64l.11-.13h1.18c.92,0,1.31.25,1.25,1.47H117l.38-2a5.23,5.23,0,0,1-.85.07H111a3.78,3.78,0,0,1-.78-.07l-.38,2h.4c.45-1.22.81-1.47,1.63-1.47H113v6.32c0,.44-.32.71-.85.77V83Z"/><path class="cls-2" d="M91.43,80.17c0,2.17,1.58,2.92,3.13,2.92a3,3,0,0,0,3.27-3V76.59c0-.31,0-.63,0-.94a.66.66,0,0,0-.71-.6H96.3v.33a1.83,1.83,0,0,1,.72.19h0v0h0v0h0v0h0v0a1.15,1.15,0,0,1,.1.56v3.88a2.36,2.36,0,0,1-2.44,2.41,2.28,2.28,0,0,1-2.35-2.49V76.49a2.24,2.24,0,0,1,.4-1.44l-.07,0a11.33,11.33,0,0,1-1.32,0h-.93v.29c.88.18.88.31.88.87v4Z"/><path class="cls-2" d="M80.06,79.09a3.94,3.94,0,0,0,4.12,4,3.57,3.57,0,0,0,3-1.37L87,81.47a3.73,3.73,0,0,1-2.38.84,3.38,3.38,0,0,1-3.43-3.57,3.1,3.1,0,0,1,3-3.38c1,0,2,.39,2,1.62h.39L87,75.19a22,22,0,0,0-2.55-.28,4.1,4.1,0,0,0-4.34,4.18"/><path class="cls-2" d="M100.9,83l2.85-.07,0-.34-1.07-.09a3.08,3.08,0,0,0,.06-.6V75.64l.12-.13h.44c1.45,0,2,.85,2,1.76A1.59,1.59,0,0,1,103.77,79h0v.46l1.47,2.17a8.16,8.16,0,0,1,.74,1.3l0,0h1.72l0-.38h-.12c-.31,0-.55-.06-1.05-.79l-1.71-2.49v-.15A2.71,2.71,0,0,0,106.46,77c0-1-.81-1.91-2.94-1.91h-1a.66.66,0,0,0-.71.6c0,.31,0,.63,0,.94v5.29c0,.4-.34.67-.86.72V83Z"/><path class="cls-2" d="M123.07,83l-2.91-.07,0-.32,1.12-.11a3.68,3.68,0,0,1,0-.6V76.47a7.5,7.5,0,0,1,0-.82.66.66,0,0,1,.71-.6h1.16v.31c-.88.17-.88.29-.88.85v5.67c0,.4.34.67.85.74V83Z"/><rect class="cls-2" x="73.98" y="66.77" width="0.82" height="24.46"/></svg>